<svg width="726" height="225" viewBox="0 0 726 225" fill="none" xmlns="http://www.w3.org/2000/svg">
<path opacity="0.5" fill-rule="evenodd" clip-rule="evenodd" d="M152.96 221L131.36 167.432H44.672L23.936 221H1.47203L75.488 34.088L68.864 22.856V19.4H117.536L199.04 221H152.96ZM74.3782 34.1746L0.000488281 222H24.6212L45.3573 168.432H130.685L152.285 222H200.523L118.21 18.4H67.864V23.1289L74.3782 34.1746ZM87.296 58.28L51.584 149.576H124.16L92.48 70.376L87.296 58.28ZM87.3383 60.9171L91.5561 70.7587L122.683 148.576H53.049L87.3383 60.9171ZM276.118 147.56L300.886 144.392V113.576C300.886 100.904 294.742 94.568 282.454 94.568C275.734 94.568 270.454 96.488 266.614 100.328C262.774 104.168 260.854 109.544 260.854 116.456C260.854 118.952 261.046 121.448 261.43 123.944C261.814 126.44 262.198 128.264 262.582 129.416L263.446 131.144L259.99 134.6C253.654 134.6 247.606 134.312 241.846 133.736C236.086 133.16 231.958 132.584 229.462 132.008L225.718 131.144C223.606 127.688 222.55 123.176 222.55 117.608C222.55 106.088 227.83 97.064 238.39 90.536C249.142 84.008 264.31 80.744 283.894 80.744C323.638 80.744 343.51 94.376 343.51 121.64V191.912C343.51 199.976 346.774 204.008 353.302 204.008C354.646 204.008 355.894 203.816 357.046 203.432C358.198 203.048 358.966 202.76 359.35 202.568L360.214 201.992L366.838 208.616C365.878 209.768 364.534 211.208 362.806 212.936C361.078 214.664 357.046 216.968 350.71 219.848C344.374 222.536 337.462 223.88 329.974 223.88C314.72 223.88 305.414 218.473 302.055 207.658C301.948 207.311 301.846 206.958 301.75 206.6C301.472 206.842 301.192 207.082 300.911 207.319C287.839 218.36 272.375 223.88 254.518 223.88C242.038 223.88 232.534 220.712 226.006 214.376C219.478 208.04 216.214 199.016 216.214 187.304C216.214 175.976 220.342 167.336 228.598 161.384C237.046 155.432 252.886 150.824 276.118 147.56ZM301.229 208.358C302.95 213.608 306.068 217.645 310.588 220.413C315.503 223.422 321.993 224.88 329.974 224.88C337.585 224.88 344.631 223.513 351.101 220.769L351.113 220.764L351.124 220.758C354.308 219.311 356.93 218.001 358.982 216.828C361.02 215.664 362.553 214.603 363.513 213.643C365.251 211.905 366.619 210.441 367.607 209.256L368.191 208.555L360.342 200.705L358.851 201.699C358.518 201.857 357.83 202.117 356.73 202.483C355.69 202.83 354.55 203.008 353.302 203.008C350.255 203.008 348.13 202.077 346.736 200.355C345.308 198.592 344.51 195.835 344.51 191.912V121.64C344.51 107.729 339.419 97.1726 329.172 90.1434C318.993 83.1606 303.85 79.744 283.894 79.744C264.221 79.744 248.844 83.0193 237.871 89.6812L237.864 89.6854C227.037 96.3786 221.55 105.71 221.55 117.608C221.55 123.294 222.628 128.004 224.865 131.665L225.084 132.024L229.237 132.982C231.801 133.574 235.984 134.155 241.747 134.731C247.543 135.311 253.624 135.6 259.99 135.6H260.404L264.663 131.341L263.509 129.034C263.16 127.961 262.793 126.228 262.419 123.792C262.042 121.346 261.854 118.9 261.854 116.456C261.854 109.733 263.717 104.64 267.321 101.035C270.931 97.4251 275.933 95.568 282.454 95.568C288.436 95.568 292.741 97.1084 295.56 100.016C298.385 102.93 299.886 107.387 299.886 113.576V143.512L275.991 146.568L275.979 146.57C252.741 149.835 236.685 154.464 228.022 160.566L228.013 160.573C219.464 166.736 215.214 175.697 215.214 187.304C215.214 199.205 218.536 208.519 225.31 215.094C232.085 221.669 241.877 224.88 254.518 224.88C272.453 224.88 288.038 219.374 301.229 208.358ZM289.604 197.883L289.612 197.88C293.41 196.551 296.087 195.343 297.71 194.268L299.886 192.575V160.507L281.144 162.952L281.141 162.952C273.745 163.9 268.629 165.967 265.593 169.003C262.77 171.827 261.278 176.045 261.278 181.832C261.278 188.021 262.779 192.478 265.604 195.392C268.424 198.3 272.728 199.84 278.71 199.84C282.431 199.84 286.058 199.189 289.597 197.886L289.604 197.883ZM281.014 161.96C273.526 162.92 268.15 165.032 264.886 168.296C261.814 171.368 260.278 175.88 260.278 181.832C260.278 194.504 266.422 200.84 278.71 200.84C282.55 200.84 286.294 200.168 289.942 198.824C293.782 197.48 296.566 196.232 298.294 195.08L300.886 193.064V159.368L281.014 161.96ZM388.145 222V18.4H466.617C491.943 18.4 511.113 22.5832 523.977 31.094C536.913 39.6527 543.361 52.5134 543.361 69.512C543.361 81.6027 540.115 91.6347 533.554 99.5272C527.644 106.636 519.109 111.934 508.025 115.467C522.33 118.97 533.305 124.713 540.858 132.764C549.078 141.525 553.153 152.92 553.153 166.856C553.153 185.189 546.353 199.058 532.697 208.292C519.111 217.48 498.858 222 472.089 222H388.145ZM506.131 116.046C505.447 115.89 504.756 115.738 504.057 115.592C504.747 115.405 505.427 115.212 506.098 115.013C530.273 107.844 542.361 92.6768 542.361 69.512C542.361 36.104 517.113 19.4 466.617 19.4H389.145V221H472.089C525.465 221 552.153 202.952 552.153 166.856C552.153 139.999 536.812 123.062 506.131 116.046ZM494.437 136.186L494.432 136.181C487.765 129.699 478.067 126.384 465.177 126.384H434.785V201.856H465.177C478.074 201.856 487.776 198.633 494.442 192.337C501.094 186.055 504.497 176.756 504.497 164.264C504.497 151.772 501.094 142.473 494.442 136.191L494.437 136.186ZM465.177 202.856C478.233 202.856 488.217 199.592 495.129 193.064C502.041 186.536 505.497 176.936 505.497 164.264C505.497 151.592 502.041 141.992 495.129 135.464C488.217 128.744 478.233 125.384 465.177 125.384H433.785V202.856H465.177ZM486.38 97.5831C492.459 91.873 495.569 83.5319 495.569 72.392C495.569 61.252 492.459 52.911 486.38 47.2008C480.292 41.4813 471.359 38.544 459.417 38.544H434.785V106.24H459.417C471.359 106.24 480.292 103.303 486.38 97.5831ZM459.417 107.24C471.513 107.24 480.729 104.264 487.065 98.312C493.401 92.36 496.569 83.72 496.569 72.392C496.569 61.064 493.401 52.424 487.065 46.472C480.729 40.52 471.513 37.544 459.417 37.544H433.785V107.24H459.417ZM574.264 8.14191L578.406 3.99997H578.82C586.668 3.99997 594.128 3.71285 601.203 3.13925L601.205 3.13908C608.498 2.56334 613.737 1.99023 616.95 1.42318L622.334 0.473083L626.764 4.56214V81.0818L625.366 95.0599L625.779 95.4729C626.926 94.4152 628.446 93.1789 630.327 91.7673C632.777 89.7352 637.711 87.292 644.971 84.4258C652.385 81.3054 660.098 79.744 668.1 79.744C685.277 79.744 699.102 86.1043 709.478 98.8261C720.042 111.35 725.26 128.693 725.26 150.728C725.26 175.289 718.559 193.888 704.992 206.329C691.44 218.755 671.21 224.88 644.484 224.88C632.129 224.88 620.816 223.625 610.55 221.107C600.361 218.608 593.038 216.085 588.679 213.509L588.67 213.504L582.14 209.461V91.4C582.14 75.2993 581.469 60.356 580.128 46.5687L580.127 46.555C578.975 32.7325 577.732 23.0052 576.406 17.3232L574.264 8.14191ZM708.708 99.464C698.532 86.984 684.996 80.744 668.1 80.744C660.228 80.744 652.644 82.28 645.348 85.352C638.052 88.232 633.252 90.632 630.948 92.552C628.657 94.2698 626.936 95.7029 625.784 96.8515C625.777 96.8583 625.771 96.8652 625.764 96.872L624.324 95.432L625.764 81.032V4.99997L622.02 1.54398L617.124 2.40797C613.86 2.98397 608.58 3.55997 601.284 4.13598C594.18 4.71197 586.692 4.99997 578.82 4.99997L575.364 8.45597L577.38 17.096C578.724 22.856 579.972 32.648 581.124 46.472C582.468 60.296 583.14 75.272 583.14 91.4V208.904L589.188 212.648C593.412 215.144 600.612 217.64 610.788 220.136C620.964 222.632 632.196 223.88 644.484 223.88C697.668 223.88 724.26 199.496 724.26 150.728C724.26 128.84 719.076 111.752 708.708 99.464ZM628.934 110.361L626.764 111.807V201.307C631.316 206.056 637.658 208.48 645.924 208.48C655.736 208.48 663.039 204.213 667.951 195.593C672.911 186.89 675.452 173.706 675.452 155.912C675.452 138.791 672.983 126.113 668.169 117.747C663.403 109.464 656.317 105.36 646.788 105.36C643.249 105.36 639.705 105.918 636.152 107.039C632.728 108.181 630.359 109.292 628.956 110.344L628.934 110.361ZM635.844 106.088C639.492 104.936 643.14 104.36 646.788 104.36C666.564 104.36 676.452 121.544 676.452 155.912C676.452 191.624 666.276 209.48 645.924 209.48C637.284 209.48 630.564 206.888 625.764 201.704V111.272L628.356 109.544C629.892 108.392 632.388 107.24 635.844 106.088Z" fill="#262626"/>
<path d="M119.118 159.186C113.706 153.719 111 146.585 111 137.784C111 128.983 113.706 121.876 119.118 116.464C124.585 110.997 131.719 108.264 140.52 108.264C149.267 108.264 156.346 110.997 161.758 116.464C167.225 121.876 169.958 128.983 169.958 137.784C169.958 146.585 167.225 153.719 161.758 159.186C156.346 164.598 149.267 167.304 140.52 167.304C131.719 167.304 124.585 164.598 119.118 159.186ZM129.286 119.088C126.553 123.407 125.186 129.639 125.186 137.784C125.186 145.929 126.553 152.189 129.286 156.562C132.074 160.881 135.819 163.04 140.52 163.04C145.221 163.04 148.939 160.881 151.672 156.562C154.46 152.189 155.854 145.929 155.854 137.784C155.854 129.639 154.46 123.407 151.672 119.088C148.939 114.715 145.221 112.528 140.52 112.528C135.819 112.528 132.074 114.715 129.286 119.088Z" fill="#262626"/>
<path d="M205.591 126.55C206.302 129.393 206.657 132.837 206.657 136.882L205.591 137.866C204.826 137.265 203.514 136.964 201.655 136.964C199.906 136.964 198.184 137.347 196.489 138.112C194.794 138.877 193.537 139.643 192.717 140.408L191.569 141.556V166.484H179.433V141.884C179.433 139.151 179.242 136.663 178.859 134.422C178.476 132.126 178.121 130.541 177.793 129.666L177.219 128.354L178.285 127.37C180.472 127.37 182.576 127.288 184.599 127.124C186.676 126.96 188.18 126.796 189.109 126.632L190.585 126.386L191.569 127.37L191.241 135.57L191.569 135.898C191.733 135.625 191.952 135.297 192.225 134.914C192.498 134.477 193.1 133.739 194.029 132.7C195.013 131.607 195.997 130.65 196.981 129.83C198.02 129.01 199.304 128.272 200.835 127.616C202.42 126.905 204.006 126.55 205.591 126.55Z" fill="#262626"/>
<path d="M246.77 157.382L248.574 159.268C248.464 159.487 248.273 159.787 248 160.17C247.726 160.498 247.098 161.127 246.114 162.056C245.184 162.985 244.118 163.805 242.916 164.516C241.713 165.227 240.073 165.883 237.996 166.484C235.918 167.031 233.704 167.304 231.354 167.304C224.958 167.304 219.819 165.445 215.938 161.728C212.111 157.956 210.198 152.981 210.198 146.804C210.198 140.681 212.138 135.789 216.02 132.126C219.901 128.409 225.313 126.55 232.256 126.55C237.176 126.55 241.084 127.507 243.982 129.42C246.934 131.279 248.41 133.903 248.41 137.292C248.41 138.003 248.328 138.713 248.164 139.424C248 140.135 247.863 140.654 247.754 140.982L247.508 141.474C245.266 142.13 242.068 142.458 237.914 142.458L236.93 141.474C237.422 140.217 237.668 138.686 237.668 136.882C237.668 132.618 235.809 130.486 232.092 130.486C229.413 130.486 227.336 131.825 225.86 134.504C224.438 137.183 223.728 140.709 223.728 145.082C223.728 150.658 224.712 154.703 226.68 157.218C228.702 159.733 231.682 160.99 235.618 160.99C237.695 160.99 239.663 160.689 241.522 160.088C243.38 159.487 244.72 158.885 245.54 158.284L246.77 157.382Z" fill="#262626"/>
<path d="M256.702 166.484V130.322C256.702 125.73 256.511 121.411 256.128 117.366C255.8 113.266 255.445 110.341 255.062 108.592L254.488 105.968L255.472 104.984C257.714 104.984 259.846 104.902 261.868 104.738C263.946 104.574 265.449 104.41 266.378 104.246L267.772 104L268.838 104.984V126.96L268.428 131.06L268.838 131.388C269.276 131.005 269.877 130.568 270.642 130.076C271.462 129.529 273.102 128.819 275.562 127.944C278.077 127.015 280.592 126.55 283.106 126.55C287.042 126.55 289.912 127.561 291.716 129.584C293.52 131.607 294.422 134.34 294.422 137.784V166.484H282.286V138.932C282.286 135.16 280.291 133.274 276.3 133.274C275.043 133.274 273.786 133.438 272.528 133.766C271.326 134.094 270.396 134.395 269.74 134.668L268.838 135.16V166.484H256.702Z" fill="#262626"/>
<path d="M305.556 166.484V141.884C305.556 139.151 305.365 136.663 304.982 134.422C304.599 132.126 304.244 130.541 303.916 129.666L303.342 128.354L304.326 127.37C306.513 127.37 308.645 127.288 310.722 127.124C312.799 126.96 314.303 126.796 315.232 126.632L316.708 126.386L317.692 127.37V166.484H305.556ZM303.998 114.25C303.998 112.118 304.654 110.396 305.966 109.084C307.278 107.772 309 107.116 311.132 107.116C313.319 107.116 315.068 107.772 316.38 109.084C317.692 110.396 318.348 112.118 318.348 114.25C318.348 116.437 317.692 118.186 316.38 119.498C315.068 120.81 313.319 121.466 311.132 121.466C309 121.466 307.278 120.81 305.966 119.498C304.654 118.186 303.998 116.437 303.998 114.25Z" fill="#262626"/>
<path d="M351.981 105.968L352.965 104.984C355.206 104.984 357.338 104.902 359.361 104.738C361.438 104.574 362.941 104.41 363.871 104.246L365.347 104L366.331 104.984V141.802C366.331 146.394 366.522 150.685 366.905 154.676C367.287 158.612 367.643 161.4 367.971 163.04L368.545 165.5L367.479 166.484C365.292 166.484 363.16 166.566 361.083 166.73C359.06 166.894 357.584 167.058 356.655 167.222L355.179 167.468L354.195 166.484L354.523 163.286L354.195 162.876C353.867 163.204 353.375 163.614 352.719 164.106C352.117 164.598 350.751 165.254 348.619 166.074C346.541 166.894 344.382 167.304 342.141 167.304C337.275 167.304 333.394 165.609 330.497 162.22C327.599 158.776 326.151 154.047 326.151 148.034C326.151 141.365 327.927 136.117 331.481 132.29C335.089 128.463 340.036 126.55 346.323 126.55C349.22 126.55 351.844 126.987 354.195 127.862C354.14 123.598 353.921 119.635 353.539 115.972C353.211 112.309 352.883 109.74 352.555 108.264L351.981 105.968ZM339.681 145.902C339.681 155.687 342.578 160.58 348.373 160.58C349.411 160.58 350.395 160.416 351.325 160.088C352.309 159.76 353.047 159.432 353.539 159.104L354.195 158.694V135.488C354.14 134.012 353.511 132.837 352.309 131.962C351.161 131.087 349.767 130.65 348.127 130.65C345.503 130.65 343.425 131.962 341.895 134.586C340.419 137.155 339.681 140.927 339.681 145.902Z" fill="#262626"/>
<path d="M411.57 157.382L413.456 159.268C413.347 159.487 413.156 159.787 412.882 160.17C412.609 160.498 411.98 161.127 410.996 162.056C410.067 162.985 409.001 163.805 407.798 164.516C406.596 165.227 404.956 165.883 402.878 166.484C400.801 167.031 398.587 167.304 396.236 167.304C389.786 167.304 384.62 165.445 380.738 161.728C376.912 157.956 374.998 152.981 374.998 146.804C374.998 140.572 376.966 135.652 380.902 132.044C384.838 128.381 390.36 126.55 397.466 126.55C408.236 126.55 413.62 130.814 413.62 139.342C413.62 140.381 413.538 141.419 413.374 142.458C413.265 143.442 413.128 144.18 412.964 144.672L412.718 145.492L411.734 146.476H388.528C388.692 151.56 389.758 155.25 391.726 157.546C393.749 159.842 396.674 160.99 400.5 160.99C402.578 160.99 404.518 160.689 406.322 160.088C408.181 159.487 409.52 158.885 410.34 158.284L411.57 157.382ZM397.138 130.486C394.733 130.486 392.765 131.497 391.234 133.52C389.758 135.543 388.884 138.522 388.61 142.458L402.304 141.638C402.578 140.381 402.714 139.041 402.714 137.62C402.714 132.864 400.856 130.486 397.138 130.486Z" fill="#262626"/>
<path d="M439.682 126.55C450.998 126.55 456.656 130.431 456.656 138.194V158.202C456.656 160.498 457.586 161.646 459.444 161.646C459.827 161.646 460.182 161.591 460.51 161.482C460.838 161.373 461.057 161.291 461.166 161.236L461.412 161.072L463.298 162.958C463.025 163.286 462.642 163.696 462.15 164.188C461.658 164.68 460.51 165.336 458.706 166.156C456.902 166.921 454.934 167.304 452.802 167.304C448.32 167.304 445.641 165.664 444.766 162.384C440.994 165.664 436.512 167.304 431.318 167.304C427.765 167.304 425.059 166.402 423.2 164.598C421.342 162.794 420.412 160.225 420.412 156.89C420.412 153.665 421.588 151.205 423.938 149.51C426.344 147.815 430.854 146.503 437.468 145.574L444.52 144.672V135.898C444.52 132.29 442.771 130.486 439.272 130.486C437.359 130.486 435.856 131.033 434.762 132.126C433.669 133.219 433.122 134.75 433.122 136.718C433.122 137.429 433.177 138.139 433.286 138.85C433.396 139.561 433.505 140.08 433.614 140.408L433.86 140.9L432.876 141.884C431.072 141.884 429.35 141.802 427.71 141.638C426.07 141.474 424.895 141.31 424.184 141.146L423.118 140.9C422.517 139.916 422.216 138.631 422.216 137.046C422.216 133.766 423.72 131.197 426.726 129.338C429.788 127.479 434.106 126.55 439.682 126.55ZM432.958 155.332C432.958 158.94 434.708 160.744 438.206 160.744C439.3 160.744 440.366 160.553 441.404 160.17C442.498 159.787 443.29 159.432 443.782 159.104L444.52 158.53V148.936L438.862 149.674C436.73 149.947 435.2 150.549 434.27 151.478C433.396 152.353 432.958 153.637 432.958 155.332Z" fill="#262626"/>
<path d="M488.388 166.484V109.084H509.79C516.951 109.084 522.582 110.587 526.682 113.594C530.782 116.546 532.832 120.673 532.832 125.976C532.832 131.279 530.782 135.406 526.682 138.358C522.582 141.31 516.951 142.786 509.79 142.786H501.098V166.484H488.388ZM507.822 114.25H501.098V137.702H507.822C511.484 137.702 514.354 136.691 516.432 134.668C518.509 132.645 519.548 129.748 519.548 125.976C519.548 122.149 518.509 119.252 516.432 117.284C514.409 115.261 511.539 114.25 507.822 114.25Z" fill="#262626"/>
<path d="M567.864 126.55C568.575 129.393 568.93 132.837 568.93 136.882L567.864 137.866C567.099 137.265 565.787 136.964 563.928 136.964C562.179 136.964 560.457 137.347 558.762 138.112C557.068 138.877 555.81 139.643 554.99 140.408L553.842 141.556V166.484H541.706V141.884C541.706 139.151 541.515 136.663 541.132 134.422C540.75 132.126 540.394 130.541 540.066 129.666L539.492 128.354L540.558 127.37C542.745 127.37 544.85 127.288 546.872 127.124C548.95 126.96 550.453 126.796 551.382 126.632L552.858 126.386L553.842 127.37L553.514 135.57L553.842 135.898C554.006 135.625 554.225 135.297 554.498 134.914C554.772 134.477 555.373 133.739 556.302 132.7C557.286 131.607 558.27 130.65 559.254 129.83C560.293 129.01 561.578 128.272 563.108 127.616C564.694 126.905 566.279 126.55 567.864 126.55Z" fill="#262626"/>
<path d="M578.375 161.646C574.439 157.874 572.471 152.954 572.471 146.886C572.471 140.818 574.439 135.925 578.375 132.208C582.311 128.436 587.45 126.55 593.791 126.55C600.132 126.55 605.244 128.436 609.125 132.208C613.061 135.925 615.029 140.818 615.029 146.886C615.029 152.954 613.061 157.874 609.125 161.646C605.189 165.418 600.078 167.304 593.791 167.304C587.45 167.304 582.311 165.418 578.375 161.646ZM586.001 146.886C586.001 152.189 586.712 156.261 588.133 159.104C589.554 161.947 591.44 163.368 593.791 163.368C596.142 163.368 598 161.947 599.367 159.104C600.788 156.261 601.499 152.189 601.499 146.886C601.499 141.638 600.788 137.593 599.367 134.75C598 131.907 596.142 130.486 593.791 130.486C591.44 130.486 589.554 131.907 588.133 134.75C586.712 137.593 586.001 141.638 586.001 146.886Z" fill="#262626"/>
</svg>
