<svg id="Layer_1" data-name="Layer 1" xmlns="http://www.w3.org/2000/svg" viewBox="0 0 717.89 416.17" fill='white'><path d="M658.39,416.32a4.82,4.82,0,0,1-.28-1.15q0-7.91,0-15.82a7.74,7.74,0,0,1,.23-1.22,28.46,28.46,0,0,1,3.45-.16,3.43,3.43,0,0,0,3.47-2,96.66,96.66,0,0,0,8.2-19.12,91,91,0,0,0,4.8-23.64,47.54,47.54,0,0,0-.31-7.15,4.58,4.58,0,0,0-3.76-4.15c-1.24-.31-2.49-.56-3.74-.83-1.87-.4-1.91-.45-1.72-2.59,1.71-.54,46.74-.69,49.7-.17.57,2.11.53,2.21-1.3,2.63-1.09.25-2.19.46-3.27.73a4.13,4.13,0,0,0-3.22,3.74,15.88,15.88,0,0,0-.11,2.39q0,22.05,0,44.1v.48c.05,4,1.26,5.32,5.23,5.55,1,.06,2.06,0,3.44,0,0,6.29.07,12.33.1,18.36h-2.88c-.55-4.57-2.71-8.44-5.22-12.16a6.44,6.44,0,0,0-5.86-3c-5.9.1-11.81,0-17.71,0H672.54a5.32,5.32,0,0,0-4,1.25,24.93,24.93,0,0,0-7.28,13.91Zm11.18-18.59c1.32.1,2.1.2,2.87.2h23.47a13.55,13.55,0,0,0,2.38-.17,3.61,3.61,0,0,0,3.29-3.54,23.83,23.83,0,0,0,0-2.39V366.21q0-11,0-22c0-2.87,0-2.88-3-2.89-4.23,0-8.46,0-12.69,0-2.48,0-2.66.15-2.67,2.52A109.69,109.69,0,0,1,681.1,365a108.44,108.44,0,0,1-10.46,30.43C670.32,396,670.06,396.65,669.57,397.73Z" transform="translate(-1.41 -0.15)"/><path d="M588.76,123.33c3.17,1.15,5.73,0,8-2a6.72,6.72,0,0,1,8-1.12c2.23,1.06,4.33,2.4,6.46,3.65s4,2.4,5.94,3.6a2.37,2.37,0,0,0,3.25-.43,23.61,23.61,0,0,0,2.88-3.46c2-3.14,5.31-3.51,7.68-.69.71.85,1.25,1.85,1.89,2.76,1.33,1.89,1.7,2.07,3.74,1a15.2,15.2,0,0,1,9.76-1.47,3.58,3.58,0,0,1,3.25,2.64c.51,1.68,1.19,3.31,1.85,4.94s.88,1.81,2.68,1.57,3.34-.4,5-.72a1.87,1.87,0,0,1,2.41,1.32,22.57,22.57,0,0,0,1.48,3,2.09,2.09,0,0,0,2.78,1.15c2.93-1.05,4.43,1.09,6,2.88a4.51,4.51,0,0,1,.39,5.57c-.43.76-1,1.44-1.48,2.17s-.79,1.3-1.35,2.23l8.37,2-1.4,3.81c-1.43,3.89-2.85,7.8-4.31,11.68-.69,1.84-.72,1.83-2.87,1.73a9.22,9.22,0,0,0-.05,5.33c.35,1.6,3.21,2.89,5,2.4,1.29-.36,2.55-.87,4.06-1.39a13,13,0,0,1,1.23,2.57,5.44,5.44,0,0,0,2.89,3.62c1.11.62,2.29,1.13,3.46,1.65.79.36,1.64.63,2.42,1,2.69,1.32,3.37,2.83,2.38,5.63-.55,1.57-1.32,3.07-2,4.6-.29.64-.59,1.27-.92,2,2,2,4.82,2.19,7.32,3.56-.53,1.1-1,2.19-1.57,3.18a3.37,3.37,0,0,0-.24,3.38c2.13,5,1.66,3.88-2.14,6l-2.32,1.29c.91,2,1.77,3.8,2.79,6-2.38.2-4.49.44-6.6.55-3,.15-3.19.24-3.75,3.2-.33,1.8-.48,3.63-.64,5.46-.3,3.22-1.18,6.11-4,8.11a6.13,6.13,0,0,1-6.31.93c-1.33-.55-2.64-1.13-4-1.65-1.09-.42-2.21-.78-3.49-1.22a5.64,5.64,0,0,0-.28,1.57c.4,2.19.76,4.41,1.36,6.56.68,2.41,2.13,3.35,4.69,3.11,1.58-.15,3.13-.56,4.61-.84.23.13.43.17.5.29a11.66,11.66,0,0,0,7.7,5.64c.46.1.87.39,1.33.52,4.53,1.33,4.22,4.16,3.06,8a13.89,13.89,0,0,1-1.43,2.49c-.3.53-.55,1.09-.94,1.85l7.32,2.62a10.4,10.4,0,0,0-.73,7.15c.26,1.1-.74,1.52-1.56,1.82-1.26.47-2.56.82-4,1.25.09,2.32,1.91,3.89,2.36,6.18a12.55,12.55,0,0,1-1.83.39c-2,.15-4,.27-6,.32a2,2,0,0,0-2.16,1.78c-.35,2-.84,3.91-1.05,5.89a11.66,11.66,0,0,1-3.32,6.5,2.81,2.81,0,0,1-2.11.77c-2.13-.23-4.23-.67-6.34-1.08a7.18,7.18,0,0,1-2-.73c-1.76-1-3-.47-4.42.89-4.86,4.68-10.9,7.15-17.31,8.83-1.24.33-2.52.52-3.72.95-2.24.78-2.5.31-3.79-1.67a9.19,9.19,0,0,0-2.25-2.68,4.66,4.66,0,0,0-7,2.32c-.34.88-.66,1.77-1,2.67-3.18-.12-4.18-3.53-7.09-4.27-.6.89-1.24,1.78-1.81,2.71a3,3,0,0,1-3.2,1.56c-2.45-.23-4.93-.3-7.41-.29a16.71,16.71,0,0,1-7.67-1.56,25.27,25.27,0,0,0-13-2.84,3,3,0,0,1-3.32-2.07c-.8-2-1.81-3.92-2.76-5.85-.79-1.58-1.15-1.73-2.83-1.3a8.06,8.06,0,0,0-1.36.46,7.67,7.67,0,0,1-7.72-.68c-.94-.62-1.7-.19-2.47.16-2.18,1-4.3,2.12-6.5,3.07-2.71,1.16-5.43,2.34-8.24,3.23-3.82,1.22-3.91,1.14-5.85-2.27a8.13,8.13,0,0,0-4-3.55,1.78,1.78,0,0,0-2.47.65c-1.24,1.67-2.54,3.29-3.83,4.91-.39.49-.84.92-1.46,1.59L525,298.89c-2.12,1.84-2.93,4.43-4.89,6.2-1.12-.72-2.15-1.45-3.25-2.08-1.81-1-2.38-1-3.78.44a3.9,3.9,0,0,1-4.76,1.06,48.67,48.67,0,0,1-6.55-2.91,23.57,23.57,0,0,0-9-2.87c-4.47-.62-4.45-.63-5.69-4.88-.68-2.35-1.43-4.69-2.2-7.2-3.37.75-6.12,2.49-9.38,3.37-26.18-42.17-51.11-85-77.64-127.4-.94.89-1.65,1.47-2.26,2.14-8.35,9-16.9,17.9-25,27.19-9.42,10.83-20.42,19.76-32,28.09-10.69,7.71-21.47,15.31-32.11,23.09A212.79,212.79,0,0,0,280.75,265a109,109,0,0,0-18.93,24.92,83,83,0,0,0-8.72,25.5,7.85,7.85,0,0,0-.1,1.19,8.46,8.46,0,0,0,.17,1c.94.06,1.94.18,2.94.18H319.9l382.25-.06c3,0,5.91-.09,8.87-.15a4.32,4.32,0,0,1,4.34,2.5,3.61,3.61,0,0,1-3.22,1.64H6.16c-1.75,0-3.56.21-4.75-1.51.55-2.35.59-2.41,2.73-2.44,1.84,0,3.68,0,5.52,0H215.17c3.68,0,3.61,0,3.26-3.77a101.06,101.06,0,0,0-3.64-19.75,50.67,50.67,0,0,0-7.92-16.3c-5.75-7.62-13.49-12.13-22.69-14.12a85.05,85.05,0,0,0-10.91-1.44c-2.71-.23-3.2.63-2.18,3.07.27.64.45,1.31.74,2.22-.92.12-1.6.23-2.28.29-2.15.17-4.3.34-6.46.47-1.17.07-1.59.63-1.73,1.81a63.41,63.41,0,0,1-1.28,7.78c-1,4.24-3.36,5.67-7.62,4.83a52.17,52.17,0,0,1-6.22-1.73,2.46,2.46,0,0,0-3,.68c-5.2,5.88-12.19,8.12-19.54,9.83-2.92.68-5.1.4-6.82-2.12a5.19,5.19,0,0,0-.84-.85c-2.62-2.46-4.63-2.35-7,.5-1,1.17-1.71,2.5-2.76,4.06l-2.8-2.52c-.87-.77-1.75-1.53-2.86-2.52-.82,1.46-1.53,2.59-2.11,3.79a2.4,2.4,0,0,1-2.62,1.55c-3.75-.25-7.52-.23-11.25-.57a16,16,0,0,1-4.51-1.47c-1.62-.67-3.16-1.52-4.74-2.29-1.07-.52-1.71-.15-2.35.84C67,299.52,58.27,305.79,48,310c-3.38,1.39-3.42,1.27-5.11-1.88-.68-1.25-1.4-2.48-2.26-4-1.64.71-3.13,1.41-4.67,2a34.84,34.84,0,0,1-5.2,1.73,4.88,4.88,0,0,1-5.48-2.54,19.89,19.89,0,0,1-2.55-7.92c-.19-1.42-.21-2.87-.4-4.29-.32-2.35-1.19-3.24-3.55-3.44-1.66-.15-3.35-.06-5-.1-.54,0-1.07-.11-1.83-.19a21.51,21.51,0,0,1,1.88-4.73c1-2.24.85-2.59-1.48-3.51-1.25-.48-2.45-1.08-3.66-1.61.41-1.92,1.1-3.61,1-5.28s-.9-3.21-1.45-5c2.15-1.6,5-1.92,7.4-3.53-.45-.81-.84-1.47-1.2-2.15a32.37,32.37,0,0,1-1.87-3.6,4.79,4.79,0,0,1,.6-4.79,11.33,11.33,0,0,1,5.34-3.9,11,11,0,0,1,3.14,0l2.19-4.7c.87-1.89.87-1.89,2.86-1.61l5,.71c2.23.31,2.45.12,2.89-2a41.75,41.75,0,0,1,1-4.42c1.2-3.81,3.45-5.08,7.33-4.2,1.17.27,2.32.61,3.46,1a1.63,1.63,0,0,0,2.3-1c.62-1.56,1.37-3.07,1.94-4.64a1.72,1.72,0,0,1,2-1.3c1.51.1,3,.14,4.55.16a7.17,7.17,0,0,0,6-2.56,42,42,0,0,0,4.48-6.74,9.28,9.28,0,0,0,0-8.56c-.21-.42-.35-.87-.62-1.54l3.51-1.53,3.79-1.65c-.64-1.06-1.13-1.92-1.67-2.76-2.69-4.19-2.19-6.51,2-9.08a9.45,9.45,0,0,1,2.59-1.23,8.91,8.91,0,0,0,5.41-3.7,2.57,2.57,0,0,1,3.32-1,13.26,13.26,0,0,0,1.6.47,4.62,4.62,0,0,0,5.74-3.31,15.71,15.71,0,0,0,.76-8.24c-.64-3.28-1.09-6.6-1.67-10.14l-10.46-1.19c.91-2,1.7-3.69,2.6-5.64l-5.67-2.75c.44-1,.79-2,1.27-2.87a2.29,2.29,0,0,0-.19-2.66c-.67-1-1.2-2-2-3.37l7.5-1.79c-.62-1.13-1-2-1.57-2.85-2.59-4.17-2.16-6.21,1.93-9,1.34-.91,2.7-1.73,4.44-1.42a2,2,0,0,0,2.15-1.17c.5-.82,1-1.65,1.45-2.49,1-1.83,1.07-1.85,3.22-1.58,1.58.21,3.18.31,4.75.59a2,2,0,0,0,2.41-1.42c.78-1.83,1.66-3.63,2.42-5.47a2.55,2.55,0,0,1,2.35-1.67,20.55,20.55,0,0,1,9.21,1c.6.21,1.22.37,1.82.59a1.62,1.62,0,0,0,2.09-.66l1.38-2c.27-.4.52-.81.81-1.19,2.59-3.32,4.69-3.28,7.77.13,1,1.16,2,2.45,2.88,3.61a18.63,18.63,0,0,0,7.47-6.31c-.71-1.49-2.18-2.2-3.51-3a5.37,5.37,0,0,1-2.63-3c-.35-1.19-1.09-2.64-.71-3.6a6.52,6.52,0,0,1,4.14-3.73c2.34-.78,4.62-1.73,6.94-2.58s3.48-2.21,3.18-4.69a2.57,2.57,0,0,1,0-.48c.26-3.72.55-3.91,4.28-4.2s7.16-.69,10.72-1.15a16.41,16.41,0,0,0,9.94-5.33c.33-.34.7-.64,1.23-1.12l7.52,3.4c.84-1,1.67-1.94,2.45-2.91,1.16-1.44,2.39-2.41,4.49-2a4.53,4.53,0,0,0,5.17-2.08,9.13,9.13,0,0,1,2.62-2,2.84,2.84,0,0,1,2.95-.34c1.68.75,3.4,1.41,5,2.29,3,1.6,5.79,3.4,8.75,5,2.75,1.46,3.2,1.26,5.25-1.15a26.36,26.36,0,0,1,3.47-3.61c2.32-1.88,5.38-.89,6.47,2,.34.89.53,1.84.84,2.75a1.26,1.26,0,0,0,1.68.91c5-1.26,10.07-2.49,15.1-3.75a2.66,2.66,0,0,0,.65-.44,3.74,3.74,0,0,0-2.4-4c-3-1.21-3.77-3.63-4.29-6.41-.24-1.32,0-2.16,1.3-2.65,2-.78,4-1.61,6-2.38a17.87,17.87,0,0,1,2.29-.71,5.12,5.12,0,0,0,3.84-3.89c.34-1.22.58-2.48.85-3.73.23-1.08.43-2.17.67-3.4a14.32,14.32,0,0,1,2.18,0,21.1,21.1,0,0,0,8.81-.16c3.32-.85,6.61-1.79,9.89-2.79A4.91,4.91,0,0,0,281,47.6a20.32,20.32,0,0,1,4.64-8.55c.1-.1.1-.29.17-.56-.69-1.27-2.17-1.71-3.23-2.63-.6-.52-1.45-.86-1.85-1.5-2.17-3.47-3.13-5.93,1-8.08a25.9,25.9,0,0,1,6.21-2.39,5.34,5.34,0,0,0,4.39-4.18c.38-1.46.58-3,.85-4.46.33-1.83.41-1.93,2.31-2a56.19,56.19,0,0,0,14.19-2,35.51,35.51,0,0,0,6.65-2.66,8.8,8.8,0,0,1,8.88-.25c2,1,2,.9,3.31-.8a10.38,10.38,0,0,0,.82-1.18A2.88,2.88,0,0,1,332,4.77a13.74,13.74,0,0,0,4.41-1,5.78,5.78,0,0,0,2.53-2A3.22,3.22,0,0,1,341.28.3a9.18,9.18,0,0,1,6.05.92c2.3,1.28,4.53,2.69,6.76,4.08q2.15,1.34,4.21,2.76a2.54,2.54,0,0,0,3.11,0A10,10,0,0,0,365,4.54a5.52,5.52,0,0,1,.94-1.38c2.84-2.8,5.28-2.2,7.47,1a12.19,12.19,0,0,1,1,2.43c.72,1.78.84,1.85,2.62,1.27,2.43-.8,4.82-1.71,7.27-2.43,3.47-1,5-.34,6.53,3a53.69,53.69,0,0,1,1.93,5.14c.65,1.85.87,2,2.79,1.54,1.63-.37,3.28-.7,4.91-1.06a2.16,2.16,0,0,1,2.47,1c.54.8,1.17,1.53,1.74,2.3a4.78,4.78,0,0,0,3.78,2.06,8,8,0,0,1,6,4,3.36,3.36,0,0,1,.08,3.64c-.86,1.52-1.78,3-2.71,4.58a3.7,3.7,0,0,0,3,2c1.16.22,2.35.32,3.74.5a17.61,17.61,0,0,1-.24,2c-.13.54-.44,1-.59,1.57-.84,3-.58,3.15,2.31,4.25a70.1,70.1,0,0,1,8,3.81c2.32,1.24,4.57,2.63,6.79,4a2.59,2.59,0,0,0,3.31-.14A32.14,32.14,0,0,0,440.82,47c.49-.51.78-1.21,1.27-1.73,2.58-2.73,3.71-2.82,6.67-.51a30.45,30.45,0,0,1,3.4,3,2.27,2.27,0,0,0,3.2.4,7.69,7.69,0,0,0,1.6-1,7.65,7.65,0,0,1,5.16-2.23c2.83-.27,5.31-1.12,7-3.54a2,2,0,0,1,2.57-.72C476.3,42.47,481,44,485,47.14a12.35,12.35,0,0,0,2.76,1.33,2.27,2.27,0,0,0,2.8-.69,29.21,29.21,0,0,1,3-3.12,42.59,42.59,0,0,1,4.25-3,1.52,1.52,0,0,1,2.26.57c1.22,1.68,2.54,3.29,3.74,5a1.93,1.93,0,0,0,2.86.7c3.21-1.81,6.68-2,10.24-1.78,2.3.14,2.31.11,3,2.24s1.48,4.53,2.29,7c1.39-.11,2.64-.17,3.89-.31s2.53-.36,3.79-.56a2,2,0,0,1,2.21,1,10.73,10.73,0,0,0,4.86,4.12c.73.34,1.43.73,2.14,1.1,3.18,1.66,3.85,3,3.11,6.6a22.38,22.38,0,0,1-.85,2.75c-.3.89-.65,1.77-1.12,3l7.52,1.62c-.72,3.08-1.35,5.95-2.1,8.78a3.43,3.43,0,0,1-1.21,1.41,17.44,17.44,0,0,1-1.78,1.24c.09.4.06.79.24,1,2.08,2.22,3.07,5,4.14,7.77.86,2.23.89,2.2,3.37,1.81,1.42-.23,2.86-.36,4.27-.64a2.27,2.27,0,0,1,2.68,1c.29.47.74.86,1,1.33a9.1,9.1,0,0,0,5,3.86,20.23,20.23,0,0,1,4,2.08c2.78,1.84,2.85,3.74.32,6-.71.63-1.46,1.2-2.15,1.76.84,2.13.65,2.26,7.38,4.38-.6,1.44-1.52,2.83-1.68,4.31s.5,2.89.86,4.64c-.59.27-1.34.69-2.13,1-2.32.84-2.58,1.18-2.65,3.83a7.26,7.26,0,0,0,8.27-2.48c1-1.57,2.16-2,3.82-1.34,1.49.57,3,1.1,4.49,1.67.73.28,1.46.6,2.23.92C587.82,127.45,587.23,125.05,588.76,123.33ZM229.11,234.93c-3,.47-5.6.84-8.19,1.29-2.44.43-2.65.47-2.56,2.82a14.54,14.54,0,0,1-5.58,12.14c-.3.26-.54.59-.84.85a2,2,0,0,0-.43,2.75c1.18,2.27,2.23,4.6,3.37,6.88a216.91,216.91,0,0,1,12,27.65c1.61,4.76,3.49,9.43,5.29,14.12a20.16,20.16,0,0,0,1.47,2.48,18.47,18.47,0,0,0,2.08-2.71,72.47,72.47,0,0,0,3.53-7.85,80.66,80.66,0,0,1,8.28-17c1.82-2.82,3.63-5.65,5.51-8.42a104,104,0,0,0,12.48-24.46c1.92-5.58,3.55-11.26,5.24-16.91.57-1.93.38-2.1-1.58-2.66-1.38-.4-2.75-.83-4.14-1.19a4.92,4.92,0,0,1-3.19-2.23c-1.76-2.74-3.44-3.07-6.23-1.44a8.37,8.37,0,0,0-2.26,2.33,16.94,16.94,0,0,0-1.29,2.51c-2.84-.32-3.8-3.28-6.27-4-.95.92-1.87,1.79-2.78,2.68a4.82,4.82,0,0,1-4.34,1.49c-4.15-.66-7.76,1.2-11.5,2.32C226.69,230.92,228.14,232.69,229.11,234.93Zm87.72-34.1c-3.18.24-5.88.48-8.58.63a1.72,1.72,0,0,0-1.88,1.71c-.12,1-.2,2.08-.4,3.09a57.1,57.1,0,0,1-1.39,6.54c-1,3.17-3,4.36-6.28,3.7a45.74,45.74,0,0,1-6.86-2,2.71,2.71,0,0,0-3.23.65c-3.57,3.47-6.31,7.49-7.32,12.4-.88,4.29-1.43,8.66-2.08,13-.16,1.07-.16,2.17-.26,3.67a18.35,18.35,0,0,0,2.5-1c1.88-1,3.75-2.13,5.58-3.27,3-1.91,6-4,9.09-5.79,13.92-8.16,28-16.12,41.8-24.41A203.78,203.78,0,0,0,371,185.06a132.46,132.46,0,0,0,18.6-20.91c.46-.65,1.27-1.23.88-2.43a14.26,14.26,0,0,0-1.87.32c-4.58,1.41-9.2,2.7-13.7,4.32-18.25,6.56-36.46,13.23-54.68,19.88a15.32,15.32,0,0,0-2,1.12c.71,1.94,1.32,3.62,2,5.35l-5.7,3Zm-9.31-87.68c-1.14,1.67-2,2.92-2.82,4.14-1.05,1.5-1.37,1.72-2.92.74a6.72,6.72,0,0,0-5.89-.55c-4.19,1.18-8.21,1-11.69-2.15-2.59-2.33-5.74-2.07-8.87-1.68-1,.13-1.42.75-1.05,1.71.94,2.42-.19,4.17-1.79,5.77-.89.9-1.85,1.73-2.79,2.6L272,129h-3c-1.43,0-2.87,0-4.31,0a2.85,2.85,0,0,0-2.88,1.76,10.49,10.49,0,0,0,0,6.82,13.18,13.18,0,0,0,1.58-.4,15.91,15.91,0,0,1,7.48-1.26,7.28,7.28,0,0,0,3.56-1.07,9,9,0,0,0,2.77-2.25c1.49-1.85,3.23-1.77,5.13-1a23.53,23.53,0,0,1,2.35,1.19c1.78,1,2,1,3.19-.55A9,9,0,0,1,293,129c3-.82,6-1.74,8.18-4.23.59-.67,1.28-.39,2-.07,2.17,1,4.34,2,6.54,3a34.36,34.36,0,0,1,8,4.31,12.43,12.43,0,0,0,3.37,1.34c1-1.26,1.24-2.5.73-3.44-1.43-2.66.15-4.36,1.6-6.16.44-.56,1-1.06,1.4-1.64.64-.85.6-1.7-.45-2.16a11.55,11.55,0,0,1-5.52-5.43c-.1-.17-.38-.24-.77-.48l-6.28,4.6Z" transform="translate(-1.41 -0.15)"/><path d="M265.23,401.13H238.38c-.42-2.38-.34-2.52,1.69-2.8.87-.12,1.75-.13,2.62-.25a5.45,5.45,0,0,0,5.13-5.61c.08-2,0-4,0-6q0-18.69,0-37.39c0-.9-.12-1.81-.19-2.75-1.36.17-1.44,1.08-1.71,1.77q-7.29,18.38-14.54,36.75L226.23,398a7.3,7.3,0,0,1-.69,1.53,1.34,1.34,0,0,1-2.22,0,6.75,6.75,0,0,1-.69-1.52q-9.27-25.17-18.56-50.33c-.33-.88-.3-2.11-1.81-2.51A15.48,15.48,0,0,0,202,347c0,12.46,0,24.92.05,37.39a48.37,48.37,0,0,0,.62,6.67,7,7,0,0,0,5.49,6.23c.93.24,1.84.54,2.77.77,2,.51,2,.5,1.7,2.79-1.71.49-21.39.61-24.29.15-.71-2.16-.53-2.57,1.56-2.85,5.36-.71,8-2.63,8.08-9.27.14-12.94,0-25.88.11-38.82,0-4.62-2.36-8.08-7.48-9-2.23-.41-2.22-.48-2.11-2.79.72-.07,1.48-.2,2.24-.2q8.14,0,16.3,0c2.36,0,2.36,0,3.22,2.32q8,21.3,16,42.61c.27.72.62,1.41,1.17,2.63a21.9,21.9,0,0,0,1.18-2.22q7.31-18.88,14.54-37.78a53.54,53.54,0,0,0,1.75-6c.25-1,.62-1.6,1.72-1.59l18,.08c.14,0,.28.12.43.18.51,2.12.49,2.17-1.38,2.61-1.24.29-2.49.53-3.73.84a3.78,3.78,0,0,0-2.93,3.4,19.25,19.25,0,0,0-.16,2.63q0,21.69,0,43.38c0,.72,0,1.44.08,2.16a4.41,4.41,0,0,0,3,4,21.37,21.37,0,0,0,3.46.87C265.44,398.58,265.48,398.59,265.23,401.13Z" transform="translate(-1.41 -0.15)"/><path d="M6.93,401c-.3-2.37-.22-2.49,1.8-2.75,5.56-.72,6.33-1.57,6.33-7.12q0-21.09,0-42.19v-1.19c-.07-3.66-1-4.94-4.52-6.12-.68-.23-1.39-.38-2.08-.57-1.85-.5-1.85-.5-1.46-2.84H31.81c.78,2.06.66,2.3-1.34,2.75-1.09.24-2.18.46-3.26.74a3.93,3.93,0,0,0-3,3.34,11.78,11.78,0,0,0-.23,2.14c0,5.59,0,11.18,0,16.78,0,2.39.2,2.57,2.62,2.58H51.74c2.28,0,2.41-.15,2.42-2.49,0-5.59,0-11.18,0-16.78,0-3-.94-4.35-3.78-5.39-1.41-.52-2.87-.9-4.35-1.36v-2.32H71c.59,2.21.54,2.33-1.29,2.75-1.09.25-2.19.46-3.27.74a4,4,0,0,0-3.12,3.54,17.56,17.56,0,0,0-.17,2.62q0,21.69,0,43.38a15.18,15.18,0,0,0,.19,2.62,4.42,4.42,0,0,0,3.19,3.56,22.44,22.44,0,0,0,3,.75c1.94.39,2,.53,1.56,2.94H46.28c-.67-2.3-.5-2.59,1.63-2.86.47-.06,1-.07,1.43-.12,3.24-.33,4.74-1.89,4.81-5.12.05-2.71,0-5.43,0-8.15,0-4,0-8,0-12,0-2.83,0-2.89-2.75-2.9q-12.34,0-24.69,0c-2.6,0-2.78.17-2.79,2.68,0,6.39,0,12.78,0,19.18,0,3.56,1.25,5.08,4.66,6,.53.14,1.09.21,1.64.31,2.09.38,2.09.38,1.86,2.67C30.46,401.37,10.25,401.53,6.93,401Z" transform="translate(-1.41 -0.15)"/><path d="M567.85,338.21h24.91c.51,2.28.47,2.35-1.37,2.76-1.09.25-2.19.47-3.27.75a4,4,0,0,0-3.11,3.55,11,11,0,0,0-.15,1.9c0,5.6,0,11.19,0,16.78,0,2.43.18,2.6,2.59,2.61h25.18c2.27,0,2.43-.16,2.44-2.48,0-5.51,0-11,0-16.54,0-3.45-.93-4.64-4.25-5.8-.75-.26-1.53-.45-2.3-.66-1.86-.5-1.86-.5-1.53-2.84h25c.49,2.24.45,2.31-1.41,2.73-1.09.25-2.18.46-3.27.74a3.94,3.94,0,0,0-3.11,3.54,21.33,21.33,0,0,0-.2,3.1q0,21.09,0,42.19c0,5.42,1.06,6.66,6.44,7.65,2,.36,2.06.48,1.62,2.92H607a5.81,5.81,0,0,1-.23-1,12.05,12.05,0,0,1,.11-1.46c1.08-.16,2.15-.37,3.22-.48,3.43-.35,5-1.82,5-5.2.07-6.95.05-13.91,0-20.86,0-1.85-.24-2.08-2.09-2.09q-12.94,0-25.9,0c-2,0-2.18.26-2.19,2.27q0,9.83,0,19.66c0,3.53,1.24,5,4.69,5.94.54.14,1.1.2,1.65.3,2,.36,2,.46,1.66,2.92H567.79c0-.75-.09-1.48-.16-2.44,1.19-.19,2.18-.39,3.18-.49,3.64-.37,5.11-1.9,5.11-5.59q0-22.41,0-44.83c0-3.59-.93-4.84-4.3-6-.75-.27-1.53-.44-2.3-.66C567.65,340.59,567.65,340.58,567.85,338.21Z" transform="translate(-1.41 -0.15)"/><path d="M161,369.81c-.24,7.65-2,14.74-6.59,21-12.95,17.66-39.93,15.61-49.5-4-6.36-13.08-5.88-26.24,2.58-38.41,5.23-7.53,12.82-11.3,22-11.75,15.56-.76,27.75,9.93,30.52,25.16C160.52,364.4,160.69,367.12,161,369.81Zm-10.48.14a50.3,50.3,0,0,0-1.45-13.05c-1.14-4.72-3.05-9.06-6.71-12.46a17,17,0,0,0-23.24.2,22.1,22.1,0,0,0-5.86,10,54.54,54.54,0,0,0-1,26.29,29.32,29.32,0,0,0,4.66,11.18c6.85,9.83,21.46,9.2,27.83-.07a29.94,29.94,0,0,0,3-5.45C149.92,381.28,150.47,375.65,150.53,370Z" transform="translate(-1.41 -0.15)"/><path d="M347.78,383.08c-.4,6-.78,11.91-1.16,17.7-1.93.59-48.57.73-51.38.23-.61-2.13-.45-2.45,1.46-2.75,1.1-.18,2.23-.2,3.31-.48,2.45-.62,3.46-1.87,3.65-4.4.09-1.19.09-2.39.09-3.59q0-20,0-40c0-1.12-.07-2.23-.08-3.35a4.4,4.4,0,0,0-3.19-4.32c-1.28-.45-2.62-.72-3.93-1.06-1.69-.43-1.69-.43-1.51-2.53,1.68-.53,44.26-.72,47.83-.16.45,4.67.08,9.41.21,14.06-2.49.82-2.63.78-3.5-1.17a24.47,24.47,0,0,0-5.26-7.66,7.33,7.33,0,0,0-5.14-2.25c-4.79-.09-9.58-.17-14.38-.19-1.84,0-2.06.24-2.07,2.11q0,10.78,0,21.57c0,1.78.25,2,1.89,2.06,2.64,0,5.27,0,7.91-.14,3.33-.13,5.49-2,6.71-4.94a33.27,33.27,0,0,0,1.07-3.43c.59-2,.58-2,2.83-1.62.47,1.76.57,21.24.12,23.83-2.19.66-2.3.6-2.86-1.35a40.75,40.75,0,0,0-1.27-4.11c-1.06-2.62-2.92-4.44-5.85-4.66s-5.9-.22-8.86-.3a1.46,1.46,0,0,0-1.67,1.58q0,.6,0,1.2c0,5.35,0,10.71,0,16.06,0,1.27.11,2.56.24,3.82.31,2.78,1.52,4.09,4.29,4.72a7.88,7.88,0,0,0,1.18.21,64.85,64.85,0,0,0,15.06-.24,7.82,7.82,0,0,0,6-3.86c1.65-2.91,3.21-5.88,4.72-8.87C345.23,382.81,345.15,382.78,347.78,383.08Z" transform="translate(-1.41 -0.15)"/><path d="M525.13,380.7c-2.42.4-2.46.37-2.92-1.63a25.09,25.09,0,0,0-.69-2.54c-1.5-4.49-3.51-6.08-8.19-6.33-2.23-.12-4.47-.09-6.71,0-1.77,0-2.07.32-2.08,2.16,0,6.15-.11,12.31.07,18.46.15,5.18,1.64,6.71,6.76,7.06a56.47,56.47,0,0,0,14.34-.41,7.28,7.28,0,0,0,5.45-3.49c1.76-3.13,3.43-6.3,5.08-9.49.86-1.66.8-1.69,3.18-1.29.12,5.93-.6,11.84-1,17.94H487.06c-.65-2.29-.49-2.56,1.64-2.86a31.65,31.65,0,0,0,3.53-.56,4.3,4.3,0,0,0,3.35-4.18c.06-.79.05-1.6.05-2.39q0-21.23,0-42.43c0-5.05-1-6.28-5.92-7.39-.39-.08-.78-.14-1.17-.23-1.9-.44-1.9-.44-1.7-2.6,1.84-.52,45.48-.59,48,0v14.14c-2.51.55-2.54.56-3.41-1.43a24.43,24.43,0,0,0-4.94-7.31,7.43,7.43,0,0,0-5.28-2.49c-4.88-.09-9.75-.18-14.62-.19-1.75,0-2,.25-2,1.93q-.06,10.9,0,21.81c0,1.7.28,2,2,2,2.71,0,5.43-.07,8.14-.18a6.84,6.84,0,0,0,6.25-4.49,26.82,26.82,0,0,0,1.27-3.86c.52-2,.52-2,2.83-1.62C525.48,358.43,525.6,377.77,525.13,380.7Z" transform="translate(-1.41 -0.15)"/><path d="M456.7,401.14H431.77c-.52-2.36-.39-2.6,1.55-2.86.63-.09,1.28-.09,1.91-.17a4.6,4.6,0,0,0,4.48-4.71c.05-.63,0-1.27,0-1.91V344.76c0-3.71.07-3.47-3.59-3.47-3.83,0-7.67,0-11.5,0-2.14,0-2.27.2-2.39,2.33-.31,5.9-.41,11.82-1,17.69-1,9.55-2.83,18.95-7,27.74a29.2,29.2,0,0,1-6.82,9.74A11.48,11.48,0,0,1,398,402c-4.1-.53-6.7-4.28-5.4-7.88s4.58-4.71,7.7-2.63a16.23,16.23,0,0,1,2.7,2.67c.48.51.85,1.11,1.46,1.92a31.32,31.32,0,0,0,2.24-2.32,34.2,34.2,0,0,0,4.87-9.31,91.29,91.29,0,0,0,5.69-34.52c0-.08,0-.16,0-.24-.25-5.87-1.59-7.4-7.36-8.42-2.52-.45-2.59-.54-2.17-2.81,2.06-.52,46.94-.52,49.07,0v2.13c-1.36.28-2.61.51-3.84.8-3.06.73-4.2,2-4.28,5.18-.08,3.43,0,6.87,0,10.3v33.55c0,.72,0,1.44,0,2.16a4.92,4.92,0,0,0,3.71,5,22.63,22.63,0,0,0,2.56.6C457,398.55,457,398.57,456.7,401.14Z" transform="translate(-1.41 -0.15)"/><path d="M389.3,245.16q-.24,13.68-.48,27.13c-2.43.66-15.34.56-17.52-.07V245.13C373.23,244.5,386,244.49,389.3,245.16Z" transform="translate(-1.41 -0.15)"/><path d="M411.67,272.36H394.12c-.59-2-.68-23.63-.2-27.21,1.7-.59,15.11-.34,17.75.34Z" transform="translate(-1.41 -0.15)"/><path d="M389.15,211.21v28c-5.82.14-11.43.16-17.08.1-.67-2.38-.2-4.53,0-6.64a30.92,30.92,0,0,1,3.37-12.4,16.78,16.78,0,0,1,12.31-9A12.2,12.2,0,0,1,389.15,211.21Z" transform="translate(-1.41 -0.15)"/><path d="M411.48,239.23H394c-.58-2.19-.62-26,0-28.22.66.16,1.35.26,2,.48a20.36,20.36,0,0,1,11.77,10.31C410.07,226.15,411.9,234.57,411.48,239.23Z" transform="translate(-1.41 -0.15)"/><path d="M385.12,368.31a11.1,11.1,0,1,1-11-11.11A11,11,0,0,1,385.12,368.31Z" transform="translate(-1.41 -0.15)"/></svg>