<svg width="970" height="109" viewBox="0 0 970 109" fill="none" xmlns="http://www.w3.org/2000/svg">
<path d="M887.084 109C886.893 108.496 886.765 107.97 886.703 107.435C886.703 100.257 886.703 93.0784 886.703 85.9003C886.762 85.3392 886.867 84.7839 887.016 84.2396C888.575 84.072 890.143 83.9993 891.712 84.0218C892.685 84.12 893.665 83.9101 894.512 83.4216C895.36 82.9331 896.032 82.1908 896.435 81.2994C901.081 73.0508 904.824 64.3248 907.597 55.2731C911.193 44.8842 913.391 34.0629 914.131 23.0941C914.235 19.8439 914.094 16.5905 913.709 13.3615C913.601 11.9863 913.04 10.6858 912.114 9.6636C911.188 8.64139 909.949 7.9552 908.591 7.71247C906.903 7.2905 905.201 6.95017 903.5 6.58265C900.954 6.03816 900.9 5.97011 901.159 3.05712C903.486 2.32207 964.781 2.11791 968.811 2.82574C969.586 5.69789 969.532 5.83402 967.041 6.40572C965.557 6.74603 964.06 7.03185 962.59 7.39938C961.409 7.66306 960.344 8.30094 959.554 9.21816C958.765 10.1354 958.292 11.283 958.207 12.4903C958.075 13.5694 958.025 14.6569 958.057 15.7436C958.057 35.7534 958.057 55.7631 958.057 75.7729V76.4263C958.125 81.8711 959.772 83.6679 965.176 83.981C966.537 84.0627 967.98 83.981 969.859 83.981C969.859 92.543 969.954 100.765 969.995 108.973H966.074C965.326 102.752 962.386 97.4842 958.969 92.4205C958.13 91.0852 956.946 90.0011 955.542 89.2824C954.138 88.5637 952.566 88.237 950.992 88.3369C942.961 88.473 934.916 88.3369 926.885 88.3369H906.345C905.369 88.2371 904.384 88.3364 903.448 88.6289C902.512 88.9214 901.645 89.4009 900.9 90.0384C895.644 95.1179 892.168 101.759 890.99 108.973L887.084 109ZM902.302 83.6951C904.099 83.8313 905.161 83.9674 906.209 83.9674H938.156C939.241 83.9856 940.325 83.9082 941.396 83.736C942.606 83.6284 943.733 83.0764 944.56 82.1865C945.387 81.2967 945.855 80.132 945.874 78.9173C945.929 77.8335 945.929 76.7477 945.874 75.664V40.7898C945.874 30.8076 945.874 20.8254 945.874 10.8432C945.874 6.93657 945.874 6.92298 941.791 6.90936C936.033 6.90936 930.275 6.90936 924.517 6.90936C921.141 6.90936 920.896 7.11353 920.882 10.3396C920.856 20.0115 919.889 29.6578 917.997 39.1428C915.337 53.5812 910.538 67.5421 903.758 80.5643C903.323 81.3402 902.969 82.225 902.302 83.6951V83.6951Z" fill="white"/>
<path d="M351.911 88.3231H315.362C314.791 85.0834 314.9 84.8928 317.663 84.5117C318.847 84.3483 320.045 84.3347 321.229 84.1714C323.159 84.0588 324.968 83.1979 326.272 81.7717C327.576 80.3455 328.272 78.4667 328.212 76.535C328.321 73.8126 328.212 71.0902 328.212 68.3677C328.212 51.4071 328.212 34.4418 328.212 17.4721C328.212 16.247 328.049 15.0083 327.954 13.7288C326.102 13.9602 325.994 15.1989 325.626 16.1381C319.011 32.8175 312.413 49.4923 305.834 66.1626L298.824 84.0625C298.592 84.7905 298.277 85.4893 297.885 86.1451C297.717 86.3922 297.492 86.5945 297.229 86.7344C296.966 86.8742 296.672 86.9473 296.374 86.9473C296.075 86.9473 295.782 86.8742 295.518 86.7344C295.255 86.5945 295.03 86.3922 294.863 86.1451C294.465 85.497 294.15 84.802 293.923 84.0761C285.511 61.235 277.09 38.3984 268.659 15.5664C268.21 14.3686 268.251 12.6943 266.196 12.1498C266.028 12.9724 265.91 13.8042 265.842 14.6408C265.842 31.6015 265.842 48.5622 265.91 65.5364C265.981 68.5787 266.263 71.6124 266.754 74.6157C266.931 76.6417 267.752 78.5578 269.097 80.0836C270.442 81.6095 272.239 82.6651 274.227 83.096C275.493 83.4227 276.731 83.8311 277.997 84.1442C280.72 84.8384 280.72 84.8248 280.311 87.9419C277.984 88.6089 251.195 88.7723 247.248 88.1461C246.281 85.2059 246.526 84.6478 249.371 84.2667C256.667 83.3002 260.261 80.6867 260.37 71.6483C260.56 54.0342 260.37 36.4202 260.519 18.8061C260.519 12.5173 257.307 7.80753 250.338 6.55522C247.302 5.99712 247.316 5.90183 247.465 2.75743C248.445 2.66215 249.48 2.48522 250.515 2.48522C257.901 2.48522 265.297 2.48522 272.702 2.48522C275.915 2.48522 275.915 2.48523 277.085 5.64323C284.345 24.9724 291.605 44.3061 298.865 63.6443C299.232 64.6244 299.709 65.5637 300.457 67.2243C301.05 66.2486 301.586 65.2397 302.063 64.2024C308.697 47.0694 315.294 29.9272 321.855 12.776C322.808 10.1022 323.603 7.37518 324.238 4.6087C324.578 3.24749 325.082 2.43077 326.579 2.44438L351.081 2.55326C351.271 2.55326 351.462 2.7166 351.666 2.79827C352.36 5.68403 352.333 5.75211 349.787 6.35105C348.1 6.7458 346.398 7.07248 344.71 7.49446C343.638 7.73855 342.672 8.3196 341.955 9.15248C341.237 9.98535 340.805 11.0262 340.722 12.1226C340.568 13.3095 340.495 14.5056 340.504 15.7025C340.504 35.3856 340.504 55.0687 340.504 74.7518C340.504 75.7319 340.504 76.712 340.613 77.692C340.662 78.9063 341.079 80.0769 341.809 81.0491C342.538 82.0213 343.545 82.7493 344.697 83.1369C346.231 83.6622 347.806 84.0583 349.406 84.3211C352.197 84.852 352.251 84.8656 351.911 88.3231Z" fill="white"/>
<path d="M0.310848 88.1463C-0.0975142 84.9203 0.0113821 84.7569 2.76102 84.403C10.3293 83.4229 11.3775 82.2659 11.3775 74.7112C11.3775 55.5726 11.3775 36.4295 11.3775 17.2819V15.662C11.2822 10.68 10.0163 8.93766 5.22481 7.33144C4.29919 7.01836 3.33273 6.81417 2.3935 6.55554C-0.124738 5.87493 -0.124738 5.87494 0.406133 2.68971H34.1777C35.2394 5.4938 35.0761 5.82049 32.3537 6.43303C30.87 6.75972 29.3863 7.05918 27.9161 7.44031C26.8527 7.69047 25.8913 8.26025 25.1612 9.07303C24.4312 9.88581 23.9675 10.9026 23.8325 11.9867C23.6395 12.9461 23.5347 13.9212 23.5194 14.8997C23.5194 22.5089 23.5194 30.118 23.5194 37.7408C23.5194 40.9941 23.7917 41.2391 27.0858 41.2527H61.3066C64.4101 41.2527 64.5871 41.0485 64.6007 37.8633C64.6007 30.2542 64.6007 22.645 64.6007 15.0223C64.6007 10.9386 63.3212 9.10102 59.4553 7.68536C57.536 6.97753 55.5487 6.46025 53.5341 5.8341V2.67609H87.5235C88.3266 5.68436 88.2585 5.8477 85.7675 6.41941C84.2838 6.75971 82.7865 7.04559 81.3163 7.42673C80.189 7.6759 79.17 8.27695 78.4066 9.14311C77.6432 10.0093 77.1749 11.0957 77.0694 12.2454C76.9034 13.4267 76.826 14.6188 76.838 15.8117C76.838 35.4948 76.838 55.1779 76.838 74.8609C76.821 76.055 76.9075 77.2482 77.0966 78.4273C77.2796 79.5663 77.7863 80.6287 78.5561 81.4879C79.326 82.3471 80.3267 82.9668 81.4389 83.2732C82.775 83.707 84.1394 84.0481 85.5225 84.2941C88.1632 84.825 88.2449 85.0155 87.646 88.2961H53.8744C52.9624 85.1653 53.1938 84.7705 56.0932 84.403C56.7329 84.3213 57.4544 84.3077 58.0397 84.2397C62.45 83.7905 64.4918 81.667 64.5871 77.2703C64.6552 73.5814 64.5871 69.8789 64.5871 66.1764C64.5871 60.7316 64.5871 55.2868 64.5871 49.8419C64.5871 45.9897 64.5871 45.908 60.8438 45.8944C49.6456 45.8944 38.4428 45.8944 27.2355 45.8944C23.6964 45.8944 23.4514 46.1259 23.4378 49.5425C23.4378 58.2406 23.4378 66.9387 23.4378 75.6505C23.4378 80.4964 25.1393 82.5654 29.781 83.8177C30.5024 84.0083 31.2647 84.1036 32.0134 84.2397C34.8583 84.7569 34.8583 84.7569 34.5452 87.8741C32.3401 88.65 4.83006 88.8678 0.310848 88.1463Z" fill="white"/>
<path d="M763.84 2.67609H797.747C798.442 5.77964 798.387 5.87494 795.883 6.43303C794.399 6.77333 792.901 7.0728 791.431 7.45394C790.304 7.70637 789.287 8.31057 788.526 9.17921C787.765 10.0478 787.3 11.1359 787.198 12.2862C787.055 13.1408 786.987 14.0062 786.994 14.8725C786.994 22.4953 786.994 30.1044 786.994 37.7136C786.994 41.0213 787.239 41.2527 790.519 41.2663H824.795C827.884 41.2663 828.102 41.0485 828.116 37.8905C828.116 30.3903 828.116 22.9173 828.116 15.3762C828.116 10.68 826.85 9.06015 822.331 7.48115C821.31 7.12723 820.248 6.8686 819.2 6.58275C816.668 5.90214 816.668 5.90215 817.117 2.71692H851.147C851.814 5.76603 851.76 5.86133 849.228 6.43303C847.744 6.77333 846.261 7.05917 844.777 7.44031C843.646 7.68011 842.623 8.27875 841.861 9.14706C841.098 10.0154 840.636 11.1069 840.544 12.259C840.35 13.6571 840.259 15.0674 840.271 16.4788C840.271 35.6173 840.271 54.7605 840.271 73.9081C840.271 81.2858 841.714 82.9737 849.038 84.3213C851.76 84.8114 851.842 84.9747 851.243 88.296H817.131C816.987 87.8524 816.882 87.3969 816.818 86.9348C816.827 86.27 816.877 85.6063 816.968 84.9475C818.438 84.7297 819.894 84.4439 821.351 84.2941C826.02 83.8177 828.157 81.8167 828.157 77.2158C828.252 67.7554 828.225 58.2814 828.157 48.821C828.157 46.3028 827.83 45.9897 825.312 45.9761C813.569 45.9761 801.817 45.9761 790.057 45.9761C787.334 45.9761 787.089 46.33 787.075 49.0661C787.075 57.9865 787.075 66.907 787.075 75.8274C787.075 80.6325 788.763 82.6335 793.46 83.913C794.195 84.1036 794.957 84.1852 795.706 84.3213C798.428 84.8114 798.428 84.9475 797.965 88.296H763.758C763.758 87.2751 763.636 86.2815 763.54 84.9747C765.16 84.7161 766.508 84.4438 767.869 84.3077C772.824 83.8041 774.825 81.7214 774.825 76.6986C774.825 56.3621 774.825 36.0212 774.825 15.6756C774.825 10.7889 773.559 9.0874 768.971 7.5084C767.951 7.14087 766.889 6.90946 765.841 6.61C763.568 5.91578 763.567 5.90215 763.84 2.67609Z" fill="white"/>
<path d="M210.032 45.6899C209.706 56.1032 207.31 65.7541 201.062 74.2753C183.434 98.3143 146.709 95.5238 133.682 68.8305C125.025 51.0259 125.678 33.1123 137.194 16.5464C144.313 6.29652 154.645 1.16476 167.141 0.552215C188.321 -0.482304 204.914 14.069 208.685 34.8002C209.379 38.3258 209.61 42.0283 210.032 45.6899ZM195.767 45.8805C195.888 39.8984 195.224 33.9263 193.793 28.1167C192.241 21.6918 189.641 15.7842 184.659 11.156C180.337 7.17731 174.663 4.99156 168.788 5.04211C162.914 5.09267 157.278 7.37577 153.025 11.4283C149.202 15.1752 146.449 19.8742 145.048 25.0404C141.681 36.6793 141.214 48.9655 143.687 60.8266C144.719 66.2855 146.88 71.4689 150.03 76.0449C159.355 89.4255 179.242 88.568 187.913 75.9496C189.528 73.6253 190.896 71.139 191.996 68.531C194.95 61.303 195.699 53.6394 195.78 45.9485L195.767 45.8805Z" fill="white"/>
<path d="M464.279 63.7534C463.734 71.9207 463.217 79.9654 462.7 87.8468C460.073 88.6499 396.586 88.8405 392.761 88.1599C391.931 85.2605 392.148 84.8249 394.748 84.4166C396.246 84.1716 397.784 84.1443 399.254 83.7632C402.589 82.9192 403.964 81.2177 404.222 77.7739C404.345 76.154 404.345 74.5206 404.345 72.8871C404.345 54.7377 404.345 36.5883 404.345 18.4389C404.345 16.9143 404.249 15.4034 404.236 13.8788C404.263 12.5568 403.851 11.2631 403.066 10.1994C402.28 9.13564 401.165 8.36175 399.894 7.9984C398.151 7.38586 396.327 7.01833 394.544 6.55552C392.244 5.9702 392.244 5.9702 392.489 3.11167C394.775 2.39023 452.736 2.1316 457.595 2.89387C458.208 9.25071 457.704 15.7028 457.881 22.0324C454.492 23.1486 454.301 23.0942 453.117 20.4398C451.418 16.5388 448.988 12.9994 445.957 10.013C445.049 9.06804 443.964 8.31117 442.763 7.78567C441.563 7.26016 440.27 6.97631 438.96 6.95028C432.44 6.82778 425.92 6.71888 419.386 6.69165C416.881 6.69165 416.582 7.01832 416.568 9.56378C416.568 19.3463 416.568 29.1334 416.568 38.925C416.568 41.348 416.909 41.6474 419.141 41.7291C422.735 41.7291 426.315 41.7291 429.908 41.5386C434.441 41.3616 437.381 38.8161 439.042 34.8142C439.611 33.2852 440.097 31.7267 440.498 30.1453C441.302 27.4228 441.288 27.4228 444.351 27.9401C444.99 30.3358 445.127 56.8521 444.514 60.3777C441.533 61.276 441.383 61.1944 440.621 58.54C440.144 56.646 439.567 54.7786 438.892 52.9455C437.449 49.3791 434.917 46.9017 430.929 46.6022C426.941 46.3028 422.898 46.3028 418.869 46.1939C418.571 46.1492 418.266 46.173 417.978 46.2634C417.691 46.3538 417.427 46.5084 417.208 46.7157C416.989 46.9229 416.82 47.1772 416.714 47.4594C416.608 47.7417 416.567 48.0444 416.596 48.3446C416.596 48.8891 416.596 49.4335 416.596 49.978C416.596 57.2605 416.596 64.5565 416.596 71.839C416.596 73.5677 416.745 75.3237 416.922 77.0388C417.344 80.823 418.991 82.6061 422.762 83.4637C423.289 83.5996 423.826 83.6952 424.368 83.7496C431.191 84.4373 438.07 84.3276 444.868 83.4229C446.548 83.2577 448.165 82.695 449.586 81.7814C451.006 80.8678 452.188 79.6295 453.035 78.1686C455.281 74.2075 457.405 70.1647 459.46 66.0947C460.808 63.3859 460.699 63.3451 464.279 63.7534Z" fill="white"/>
<path d="M705.689 60.5135C702.395 61.058 702.34 61.0172 701.714 58.2948C701.462 57.1266 701.148 55.9726 700.775 54.8373C698.733 48.7255 695.997 46.5612 689.627 46.2209C686.591 46.0575 683.542 46.0984 680.493 46.2209C678.083 46.2209 677.675 46.6564 677.662 49.161C677.662 57.5325 677.512 65.9175 677.757 74.2889C677.961 81.34 679.989 83.4226 686.959 83.899C693.462 84.5436 700.022 84.3561 706.478 83.3409C707.997 83.1747 709.457 82.6594 710.744 81.8353C712.031 81.0112 713.11 79.9006 713.897 78.5904C716.292 74.3298 718.566 70.0147 720.812 65.6725C721.982 63.4129 721.901 63.3721 725.14 63.9166C725.304 71.9885 724.324 80.0332 723.779 88.3366H653.868C652.983 85.2194 653.201 84.8519 656.1 84.4435C657.715 84.2801 659.319 84.0256 660.905 83.6812C662.197 83.3886 663.351 82.6666 664.179 81.6331C665.008 80.5996 665.461 79.3158 665.465 77.9914C665.547 76.9161 665.533 75.8135 665.533 74.7381C665.533 55.4725 665.533 36.2205 665.533 16.9822C665.533 10.1081 664.172 8.43378 657.475 6.92284C656.944 6.81394 656.413 6.73229 655.882 6.60979C653.296 6.01086 653.296 6.01085 653.568 3.07064C656.073 2.36282 715.476 2.26753 718.906 3.07064V22.3181C715.489 23.0668 715.449 23.0804 714.264 20.3716C712.645 16.6741 710.367 13.3024 707.54 10.4211C706.633 9.4002 705.528 8.57354 704.293 7.99101C703.058 7.40849 701.718 7.08219 700.353 7.03176C693.71 6.90925 687.081 6.78674 680.452 6.77312C678.07 6.77312 677.73 7.11342 677.73 9.40024C677.675 19.2917 677.675 29.1876 677.73 39.0881C677.73 41.4022 678.111 41.8105 680.452 41.8105C684.141 41.8105 687.843 41.7153 691.532 41.5655C693.4 41.5179 695.21 40.9096 696.727 39.8196C698.244 38.7296 699.398 37.2084 700.04 35.4537C700.748 33.7486 701.326 31.9921 701.768 30.1995C702.476 27.4771 702.476 27.4771 705.621 27.9943C706.165 30.1995 706.329 56.5252 705.689 60.5135Z" fill="white"/>
<path d="M612.542 88.3366H578.607C577.899 85.1242 578.076 84.7975 580.717 84.4436C581.574 84.321 582.459 84.321 583.317 84.2121C584.975 84.1693 586.549 83.4702 587.692 82.2681C588.835 81.066 589.455 79.4594 589.415 77.8009C589.483 76.9433 589.415 76.0721 589.415 75.2009V11.5917C589.415 6.54165 589.51 6.86834 584.528 6.86834C579.315 6.86834 574.088 6.86834 568.874 6.86834C565.961 6.86834 565.784 7.14056 565.621 10.0399C565.199 18.0711 565.063 26.1294 564.26 34.1197C562.898 47.1192 560.407 59.9146 554.731 71.8796C552.579 76.8889 549.419 81.4019 545.448 85.1378C543.777 86.7796 541.758 88.0248 539.541 88.7811C537.324 89.5375 534.965 89.7856 532.639 89.5073C527.058 88.7858 523.519 83.6813 525.288 78.7809C527.058 73.8806 531.523 72.3696 535.77 75.2009C537.133 76.2644 538.366 77.4843 539.445 78.8354C540.098 79.5296 540.602 80.3463 541.432 81.4489C542.502 80.4493 543.52 79.3952 544.481 78.2909C547.331 74.4333 549.567 70.1586 551.11 65.6181C556.697 50.6009 559.327 34.645 558.856 18.6292C558.856 18.5203 558.856 18.4114 558.856 18.3025C558.515 10.3122 556.691 8.22952 548.837 6.84109C545.407 6.22855 545.312 6.10604 545.883 3.0161C548.687 2.30827 609.778 2.30827 612.678 3.0161V5.91548C610.826 6.29662 609.125 6.60972 607.451 7.00447C603.285 7.99815 601.734 9.72688 601.625 14.0555C601.516 18.7245 601.625 23.407 601.625 28.0759V73.7445C601.625 74.7246 601.625 75.7046 601.625 76.6847C601.553 78.2275 602.016 79.7478 602.936 80.9881C603.857 82.2284 605.177 83.1125 606.675 83.4907C607.82 83.8302 608.983 84.103 610.16 84.3074C612.95 84.8111 612.95 84.8383 612.542 88.3366Z" fill="white"/>
<path d="M515.106 43.6484C515.103 46.6419 514.211 49.5672 512.543 52.053C510.875 54.5388 508.506 56.4731 505.737 57.6105C502.968 58.7479 499.924 59.0371 496.99 58.4415C494.056 57.8458 491.366 56.3921 489.26 54.2649C487.153 52.1376 485.727 49.4326 485.16 46.4931C484.594 43.5537 484.913 40.5122 486.078 37.7546C487.243 34.9969 489.201 32.6475 491.703 31.0044C494.205 29.3612 497.139 28.4984 500.133 28.5253C502.112 28.5252 504.071 28.9174 505.897 29.6793C507.724 30.4411 509.381 31.5574 510.774 32.9637C512.166 34.37 513.266 36.0384 514.009 37.8723C514.753 39.7063 515.126 41.6695 515.106 43.6484V43.6484Z" fill="white"/>
</svg>
