<svg width="110" height="96" viewBox="0 0 110 96" fill="none" xmlns="http://www.w3.org/2000/svg">
<path fill-rule="evenodd" clip-rule="evenodd" d="M28.6977 3.07361V59.6877C28.6977 60.8712 27.7224 61.7661 26.5999 61.7661H20.393C19.629 61.7661 19.0096 61.1468 19.0096 60.3828C19.0096 59.6188 19.629 58.9994 20.393 58.9994H25.931V2.07755C25.931 0.556165 27.473 -0.37178 28.7959 0.143013L55 10.3402L81.2041 0.143014L81.7058 1.43218L81.2041 0.143013C82.527 -0.371777 84.069 0.556162 84.069 2.07755V58.9994H107.889C109.911 58.9994 110.868 61.7001 108.99 62.8472L56.1007 95.1401C55.4259 95.5521 54.5741 95.5521 53.8993 95.1401L1.01049 62.8472C-0.868261 61.7001 0.0892314 58.9994 2.11118 58.9994H10.0109C10.7749 58.9994 11.3942 59.6188 11.3942 60.3828C11.3942 61.1468 10.7749 61.7661 10.0109 61.7661H4.54895L55 92.5705L105.451 61.7661H83.4001C82.2776 61.7661 81.3023 60.8712 81.3023 59.6877V3.07361L55.767 13.0105C55.274 13.2024 54.726 13.2024 54.233 13.0105L28.6977 3.07361ZM54.7637 10.4322C54.7641 10.432 54.7645 10.4319 54.7649 10.4317L54.7637 10.4322ZM13.5172 60.3828C13.5172 59.6188 14.1365 58.9994 14.9005 58.9994H15.7657C16.5297 58.9994 17.149 59.6188 17.149 60.3828C17.149 61.1468 16.5297 61.7661 15.7657 61.7661H14.9005C14.1365 61.7661 13.5172 61.1468 13.5172 60.3828Z" fill="white"/>
<path fill-rule="evenodd" clip-rule="evenodd" d="M67.085 78.6975C67.4911 79.3446 67.2958 80.1984 66.6486 80.6045L64.9735 81.6559C64.3264 82.062 63.4726 81.8667 63.0664 81.2196C62.6603 80.5724 62.8556 79.7186 63.5028 79.3125L65.1779 78.2611C65.825 77.855 66.6788 78.0504 67.085 78.6975ZM62.0595 81.8515C62.4657 82.4986 62.2703 83.3524 61.6232 83.7586L49.8972 91.1179C49.2501 91.5241 48.3963 91.3287 47.9902 90.6816C47.584 90.0345 47.7794 89.1807 48.4265 88.7746L60.1525 81.4152C60.7996 81.009 61.6534 81.2044 62.0595 81.8515Z" fill="white"/>
<path fill-rule="evenodd" clip-rule="evenodd" d="M48.9498 76.4563C49.356 77.1034 49.1606 77.9572 48.5135 78.3633L46.8384 79.4147C46.1912 79.8208 45.3374 79.6255 44.9313 78.9783C44.5252 78.3312 44.7205 77.4774 45.3676 77.0713L47.0428 76.0199C47.6899 75.6138 48.5437 75.8092 48.9498 76.4563ZM43.9244 79.6103C44.3305 80.2574 44.1352 81.1112 43.4881 81.5173L38.4626 84.6714C37.8155 85.0775 36.9617 84.8822 36.5556 84.235C36.1494 83.5879 36.3448 82.7341 36.9919 82.328L42.0173 79.174C42.6644 78.7678 43.5183 78.9632 43.9244 79.6103Z" fill="white"/>
<path fill-rule="evenodd" clip-rule="evenodd" d="M71.0938 69.2356C71.5 69.8827 71.3046 70.7365 70.6575 71.1426L68.9824 72.194C68.3353 72.6001 67.4814 72.4048 67.0753 71.7576C66.6692 71.1105 66.8645 70.2567 67.5116 69.8506L69.1868 68.7992C69.8339 68.3931 70.6877 68.5884 71.0938 69.2356ZM66.0684 72.3896C66.4745 73.0367 66.2792 73.8905 65.6321 74.2966L43.8552 87.9641C43.2081 88.3702 42.3543 88.1749 41.9482 87.5278C41.542 86.8806 41.7374 86.0268 42.3845 85.6207L64.1613 71.9533C64.8084 71.5471 65.6623 71.7425 66.0684 72.3896Z" fill="white"/>
<path fill-rule="evenodd" clip-rule="evenodd" d="M52.1305 19.7276C52.1305 18.1996 53.3692 16.9609 54.8972 16.9609H57.0122C58.5402 16.9609 59.7789 18.1996 59.7789 19.7276V22.6509C63.1192 23.2496 65.9036 24.5469 68.0469 26.6054C70.5025 28.9439 71.6828 31.9447 71.6168 35.4859C71.6067 36.3537 70.9002 37.0539 70.03 37.0539H60.4297C59.26 37.0539 58.404 36.1179 58.3359 35.0688C58.2533 33.7955 57.9108 33.0461 57.4912 32.6108C57.4841 32.6035 57.4771 32.5961 57.4703 32.5886C56.9468 32.0212 56.2631 31.711 55.2835 31.711C54.1448 31.711 53.5795 32.0061 53.2842 32.3294C52.7688 32.8934 51.8939 32.9329 51.3298 32.4175C50.7658 31.9022 50.7263 31.0272 51.2417 30.4632C52.2481 29.3617 53.6965 28.9443 55.2835 28.9443C56.943 28.9443 58.3912 29.5127 59.4937 30.7017C60.3895 31.6368 60.8643 32.8787 61.0401 34.2873H68.8165C68.6307 31.9922 67.7314 30.1248 66.1372 28.6073L66.1325 28.6028C64.3633 26.9027 61.9498 25.7742 58.7915 25.2913C57.7954 25.139 57.0122 24.2855 57.0122 23.2293L57.0122 19.7276H54.8972V23.0729C54.8972 24.1653 54.0603 25.0394 53.0173 25.1463C49.5982 25.4965 46.9616 26.4939 45.0097 28.0507L45.0049 28.0546C42.9846 29.6514 42.0218 31.6238 42.0218 34.0677C42.0218 35.9737 42.4585 37.4451 43.2397 38.5714C44.051 39.7413 45.3544 40.8377 47.2512 41.8188C49.2214 42.827 51.7632 43.8528 54.8949 44.8907C54.9073 44.8948 54.9196 44.8991 54.9319 44.9035C56.2367 45.3774 57.3315 45.8847 58.17 46.4411C59.0393 46.9879 59.7515 47.6737 60.197 48.5317C60.6547 49.3743 60.8467 50.3407 60.8467 51.3686C60.8467 52.2956 60.6512 53.1738 60.2204 53.9643C59.7742 54.7828 59.1088 55.4101 58.2788 55.8485C58.2698 55.8532 58.2608 55.8578 58.2517 55.8624C57.3953 56.2909 56.4047 56.4666 55.3445 56.4666C54.0649 56.4666 52.8762 56.2431 51.8103 55.7564L51.7899 55.7468C50.6733 55.2148 49.7954 54.3878 49.1724 53.3054L49.1665 53.2952C48.7246 52.5121 48.46 51.6163 48.3377 50.6402H40.5302C40.6625 52.4252 41.1564 53.8931 41.9632 55.0907C43.0074 56.5933 44.4492 57.7768 46.3354 58.6319C48.1104 59.4367 50.1324 59.9687 52.416 60.2119C53.4563 60.3226 54.287 61.1962 54.287 62.2842V65.378H56.4325V62.2314C56.4325 61.145 57.2604 60.274 58.2963 60.1596C61.5774 59.7974 64.0959 58.8277 65.9499 57.3378C67.8522 55.8092 68.7892 53.8438 68.7892 51.3177C68.7892 49.4617 68.3402 48.026 67.5304 46.9185L67.518 46.9013C66.6826 45.7213 65.3501 44.6027 63.4242 43.5851C61.4445 42.539 58.9144 41.4526 55.8185 40.3294L55.8096 40.3262C54.4845 39.8351 53.3805 39.3305 52.5362 38.8025C51.6797 38.2668 50.9619 37.6142 50.5078 36.8064C50.1335 36.1404 50.3699 35.2971 51.0359 34.9227C51.7019 34.5483 52.5452 34.7847 52.9196 35.4507C53.0758 35.7285 53.3953 36.0766 54.0033 36.4568C54.6228 36.8443 55.5311 37.2721 56.7667 37.7303C59.9336 38.8794 62.5887 40.0144 64.7168 41.1389C66.8958 42.2903 68.6122 43.6624 69.7701 45.2942C70.9899 46.9669 71.5559 49.0052 71.5559 51.3177C71.5559 54.6604 70.2555 57.4273 67.6829 59.4945C65.4461 61.2919 62.5906 62.3813 59.1992 62.8364V65.378C59.1992 66.906 57.9605 68.1446 56.4325 68.1446H54.287C52.759 68.1446 51.5203 66.906 51.5203 65.378V62.8921C49.2197 62.5954 47.1068 62.0194 45.193 61.1517C42.8921 60.1085 41.0404 58.6146 39.6848 56.6604L39.6751 56.6461C38.3052 54.6175 37.6864 52.1629 37.7297 49.3677C37.7384 48.541 38.4113 47.8735 39.2401 47.8735H48.9473C50.117 47.8735 50.9724 48.8094 51.0414 49.8574C51.1014 50.7693 51.2987 51.4417 51.5731 51.9303C51.924 52.5378 52.3845 52.9631 52.97 53.2444C53.6108 53.535 54.3918 53.6999 55.3445 53.6999C56.1056 53.6999 56.6369 53.5733 57.0005 53.3947C57.383 53.1898 57.629 52.9376 57.7911 52.6402C57.9704 52.3112 58.08 51.9003 58.08 51.3686C58.08 50.673 57.9491 50.1864 57.7622 49.8455C57.7563 49.8347 57.7505 49.8239 57.7449 49.8129C57.5825 49.497 57.2675 49.1398 56.6857 48.776C56.6788 48.7717 56.672 48.7673 56.6652 48.7629C56.6606 48.7599 56.656 48.7569 56.6515 48.7539C56.0713 48.3668 55.2048 47.9472 54.0055 47.5106C50.8007 46.4477 48.1222 45.3727 45.9881 44.2803L45.9832 44.2777C43.8133 43.1559 42.1072 41.7933 40.9662 40.1481C39.7947 38.4588 39.2551 36.4021 39.2551 34.0677C39.2551 30.7457 40.6306 27.9865 43.2869 25.8859C45.6234 24.0231 48.5988 22.9069 52.1305 22.4629V19.7276ZM39.1129 49.3841L40.4961 49.4059C40.4962 49.3987 40.4963 49.3914 40.4963 49.3841H39.1129ZM68.8505 35.4406C68.8503 35.4494 68.8502 35.4582 68.8502 35.4671H70.2336L68.8505 35.4406Z" fill="white"/>
</svg>