<svg width="110" height="96" viewBox="0 0 110 96" fill="none" xmlns="http://www.w3.org/2000/svg">
<path fill-rule="evenodd" clip-rule="evenodd" d="M81.3047 5.53453C81.3047 4.77036 80.6852 4.15088 79.921 4.15088L59.4244 4.15088C58.6602 4.15088 58.0407 4.77036 58.0407 5.53453C58.0407 6.29869 58.6602 6.91817 59.4244 6.91817L68.2891 6.91817V14.4712C46.6519 15.2039 29.3454 33.0567 29.3454 54.9597C29.3454 55.6743 29.3639 56.3847 29.4003 57.0904C29.4397 57.8536 30.0903 58.4403 30.8534 58.4009C31.6166 58.3615 32.2033 57.7109 32.1639 56.9478C32.1299 56.2895 32.1127 55.6267 32.1127 54.9597C32.1127 34.1078 48.9351 17.2151 69.6727 17.2151C78.9794 17.2151 87.4932 20.6148 94.0559 26.2488C102.121 33.173 107.233 43.4651 107.233 54.9597C107.233 75.8117 90.4104 92.7043 69.6727 92.7043C58.8723 92.7043 49.1372 88.125 42.2827 80.7872C41.761 80.2287 40.8855 80.1989 40.327 80.7206C39.7686 81.2422 39.7388 82.1178 40.2604 82.6762C47.6149 90.5493 58.0721 95.4716 69.6727 95.4716C91.951 95.4716 110 77.3277 110 54.9597C110 43.1056 104.93 32.4383 96.8521 25.0308L98.5216 22.9143L105.466 28.4439C106.064 28.92 106.934 28.8212 107.41 28.2234C107.886 27.6256 107.788 26.7551 107.19 26.2791L91.1261 13.4881C90.5283 13.012 89.6578 13.1108 89.1818 13.7086C88.7058 14.3064 88.8045 15.1769 89.4023 15.6529L96.3567 21.1905L94.7482 23.2298C88.2014 18.0019 79.997 14.7742 71.0564 14.4712V6.91817H79.921C80.6852 6.91817 81.3047 6.29869 81.3047 5.53453Z" fill="white"/>
<path fill-rule="evenodd" clip-rule="evenodd" d="M60.5905 24.0019C67.517 21.9514 74.929 22.3046 81.6309 25.0044C88.3327 27.7041 93.9329 32.5925 97.5295 38.8797C101.126 45.1669 102.51 52.4872 101.459 59.6604C100.407 66.8337 96.9821 73.4434 91.7336 78.4231C86.485 83.4029 79.7191 86.4624 72.5265 87.1067C65.3339 87.7511 58.1355 85.9426 52.0921 81.9738C51.4533 81.5544 51.2756 80.6965 51.6951 80.0578C52.1145 79.419 52.9724 79.2413 53.6111 79.6607C59.1335 83.2873 65.7097 84.9391 72.2796 84.3505C78.8495 83.7619 85.0317 80.9672 89.8289 76.4156C94.6263 71.8639 97.7591 65.8204 98.7206 59.2592C99.6821 52.6979 98.4161 46.0028 95.1274 40.2538C91.8388 34.5049 86.7198 30.0378 80.5969 27.5713C74.4741 25.1048 67.7034 24.7822 61.376 26.6553C55.0486 28.5285 49.5321 32.4886 45.717 37.8987C41.9018 43.3088 40.0109 49.8533 40.3501 56.4766C40.3892 57.2398 39.8022 57.8901 39.039 57.9292C38.2758 57.9683 37.6255 57.3813 37.5864 56.6181C37.2156 49.3772 39.2827 42.2212 43.4555 36.3039C47.6284 30.3864 53.6642 26.0523 60.5905 24.0019L60.858 24.9056L60.5905 24.0019Z" fill="white"/>
<path fill-rule="evenodd" clip-rule="evenodd" d="M72.055 51.807C70.273 50.6611 67.8994 51.1818 66.7554 52.9779C65.6113 54.7741 66.135 57.1577 67.917 58.3035C69.6991 59.4494 72.0726 58.9287 73.2167 57.1326C74.3607 55.3364 73.8371 52.9529 72.055 51.807ZM64.4277 51.4813C66.3901 48.4004 70.4698 47.4977 73.5417 49.4729C76.2146 51.1916 77.2379 54.5191 76.166 57.384L85.698 63.5132C86.3408 63.9265 86.529 64.784 86.1185 65.4285C85.708 66.073 84.8541 66.2605 84.2114 65.8472L74.6793 59.718C72.5391 61.8961 69.1033 62.3563 66.4304 60.6376C63.3584 58.6623 62.4654 54.5621 64.4277 51.4813ZM87.636 66.4043C88.0466 65.7598 88.9004 65.5723 89.5432 65.9856L90.5045 66.6037C91.1472 67.017 91.3355 67.8746 90.925 68.5191C90.5144 69.1636 89.6606 69.3511 89.0178 68.9378L88.0565 68.3197C87.4138 67.9064 87.2255 67.0488 87.636 66.4043Z" fill="white"/>
<path fill-rule="evenodd" clip-rule="evenodd" d="M26.2139 72.766C26.2139 72.0018 26.8333 71.3823 27.5975 71.3823L53.8113 71.3823C54.5755 71.3823 55.195 72.0018 55.195 72.766C55.195 73.5301 54.5755 74.1496 53.8113 74.1496L27.5975 74.1496C26.8333 74.1496 26.2139 73.5301 26.2139 72.766Z" fill="white"/>
<path fill-rule="evenodd" clip-rule="evenodd" d="M17.9365 81.0834C17.9365 80.3192 18.556 79.6997 19.3202 79.6997H35.7175C36.4817 79.6997 37.1011 80.3192 37.1011 81.0834C37.1011 81.8475 36.4817 82.467 35.7175 82.467H19.3202C18.556 82.467 17.9365 81.8475 17.9365 81.0834Z" fill="white"/>
<path fill-rule="evenodd" clip-rule="evenodd" d="M11.7275 64.4486C11.7275 63.6844 12.347 63.0649 13.1112 63.0649L56.571 63.0649C57.3351 63.0649 57.9546 63.6844 57.9546 64.4486C57.9546 65.2128 57.3351 65.8322 56.571 65.8322L13.1112 65.8322C12.347 65.8322 11.7275 65.2128 11.7275 64.4486Z" fill="white"/>
<path fill-rule="evenodd" clip-rule="evenodd" d="M1.20738e-07 57.5174C5.40563e-08 56.7533 0.61948 56.1338 1.38365 56.1338L19.3194 56.1338C20.0836 56.1338 20.7031 56.7533 20.7031 57.5174C20.7031 58.2816 20.0836 58.9011 19.3194 58.9011L1.38365 58.9011C0.61948 58.9011 1.8742e-07 58.2816 1.20738e-07 57.5174Z" fill="white"/>
<path fill-rule="evenodd" clip-rule="evenodd" d="M15.8662 50.5868C15.8662 49.8226 16.4857 49.2031 17.2499 49.2031L26.2177 49.2031C26.9819 49.2031 27.6014 49.8226 27.6014 50.5868C27.6014 51.3509 26.9819 51.9704 26.2177 51.9704L17.2499 51.9704C16.4857 51.9704 15.8662 51.3509 15.8662 50.5868Z" fill="white"/>
<path fill-rule="evenodd" clip-rule="evenodd" d="M20.0059 72.766C20.0059 72.0018 20.6253 71.3823 21.3895 71.3823L22.7692 71.3823C23.5334 71.3823 24.1528 72.0018 24.1528 72.766C24.1528 73.5301 23.5334 74.1496 22.7692 74.1496L21.3895 74.1496C20.6253 74.1496 20.0059 73.5301 20.0059 72.766Z" fill="white"/>
<path fill-rule="evenodd" clip-rule="evenodd" d="M10.3477 50.5868C10.3477 49.8226 10.9671 49.2031 11.7313 49.2031L13.111 49.2031C13.8751 49.2031 14.4946 49.8226 14.4946 50.5868C14.4946 51.3509 13.8751 51.9704 13.111 51.9704L11.7313 51.9704C10.9671 51.9704 10.3477 51.3509 10.3477 50.5868Z" fill="white"/>
<path fill-rule="evenodd" clip-rule="evenodd" d="M68.1445 1.38365C68.1445 0.61948 68.764 -5.41568e-08 69.5282 -1.20963e-07L70.22 -1.81444e-07C70.9842 -2.4825e-07 71.6037 0.61948 71.6037 1.38365C71.6037 2.14782 70.9842 2.7673 70.22 2.7673L69.5282 2.7673C68.764 2.7673 68.1445 2.14782 68.1445 1.38365Z" fill="white"/>
</svg>
