<svg width="110" height="96" viewBox="0 0 110 96" fill="none" xmlns="http://www.w3.org/2000/svg">
<path fill-rule="evenodd" clip-rule="evenodd" d="M64.0332 9.29389C62.734 8.24205 61.3046 7.47355 59.8102 7.6303C58.3154 7.78707 57.0754 8.8358 56.0213 10.1347L55.7794 10.4328L64.3235 17.35C64.9174 17.8308 65.0091 18.7021 64.5282 19.296C64.0474 19.8899 63.1761 19.9816 62.5822 19.5008L52.9615 11.712C51.9091 10.8599 50.9775 10.111 50.0236 9.58928C49.0954 9.08153 48.2435 8.8459 47.3668 8.93785C45.5261 9.1309 44.1872 10.6911 43.3042 11.7851L43.3019 11.7879L25.2228 34.0662L28.5637 36.771C29.1576 37.2518 29.2493 38.1231 28.7685 38.717C28.2876 39.3109 27.4164 39.4026 26.8224 38.9218L23.479 36.215L21.6692 38.4451L34.14 48.5412C34.7339 49.0221 34.8256 49.8933 34.3448 50.4872C33.8639 51.0812 32.9927 51.1728 32.3988 50.692L19.9255 40.5938L18.1157 42.8239L27.6414 50.5357C28.2353 51.0166 28.327 51.8878 27.8461 52.4818C27.3653 53.0757 26.494 53.1674 25.9001 52.6865L16.372 44.9727L14.5622 47.2028L28.6857 58.637C29.2796 59.1178 29.3713 59.9891 28.8905 60.583C28.4097 61.1769 27.5384 61.2686 26.9445 60.7878L12.8185 49.3516L11.0087 51.5817L34.6711 70.7384C35.265 71.2192 35.3567 72.0905 34.8758 72.6844C34.395 73.2783 33.5237 73.37 32.9298 72.8892L9.28368 53.7456C8.85104 54.3296 8.37862 55.0302 7.96557 55.8152C7.24372 57.187 6.76994 58.6938 6.92505 60.1796C7.10052 61.8606 7.69591 63.371 8.41088 64.5855C9.0946 65.747 9.85385 66.5809 10.3746 67.0025L26.8672 80.3547C27.3874 80.7758 28.3601 81.3443 29.6388 81.7714C30.9756 82.2179 32.5787 82.487 34.2647 82.3114C35.7547 82.1561 37.1335 81.381 38.3279 80.3919C39.0103 79.8267 39.598 79.2211 40.0802 78.6781L37.053 76.2272C36.459 75.7464 36.3674 74.8751 36.8482 74.2812C37.329 73.6873 38.2003 73.5956 38.7942 74.0764L41.8432 76.5449L59.6283 54.629C60.1098 54.0356 60.9812 53.9449 61.5746 54.4265C62.1679 54.908 62.2586 55.7794 61.7771 56.3727L43.1032 79.3839C42.5404 80.0765 41.497 81.3604 40.0929 82.5232C38.6811 83.6923 36.7984 84.8296 34.5515 85.0637C32.6326 85.2637 30.8306 85.0103 29.3019 84.5649L7.76987 94.6816C7.74567 94.6959 7.71739 94.7121 7.68522 94.7301C7.58887 94.7839 7.45628 94.8534 7.29289 94.9283C6.96928 95.0766 6.50742 95.2537 5.95437 95.3643C4.83418 95.5883 3.27261 95.5435 1.82951 94.3752C0.386829 93.2072 0.016585 91.6887 0.000568047 90.5465C-0.00734312 89.9823 0.0687112 89.4934 0.145624 89.1457C0.184455 88.9701 0.224567 88.8258 0.25686 88.7203C0.268128 88.6834 0.278501 88.6512 0.287611 88.6237L5.74785 65.4948C4.99439 64.0924 4.37276 62.3832 4.17271 60.4669C3.93848 58.2231 4.66356 56.1478 5.51662 54.5266C6.36799 52.9086 7.41351 51.6203 7.97521 50.9281L41.1509 10.0469C41.1513 10.0464 41.1517 10.0459 41.1521 10.0454C41.1674 10.0265 41.1831 10.0069 41.1993 9.98683C42.0153 8.97439 44.003 6.50819 47.0781 6.18566C48.6906 6.01654 50.1128 6.4838 51.3516 7.16146C52.1486 7.59737 52.909 8.14347 53.623 8.69846L53.8726 8.39093C55.0482 6.94229 56.8952 5.15357 59.5215 4.87811C62.1481 4.60262 64.3249 5.96957 65.7745 7.1431L72.99 12.9847C73.5839 13.4655 73.6756 14.3368 73.1948 14.9307C72.7139 15.5246 71.8427 15.6163 71.2487 15.1355L64.0332 9.29389ZM7.88944 68.4674L4.71107 81.9306C6.09584 82.2803 7.92085 83.0638 9.78198 84.5705C11.6411 86.0756 12.7841 87.6936 13.4117 88.9733L25.9436 83.0852C25.6359 82.8916 25.3618 82.6964 25.126 82.5055L8.63335 69.1533C8.39558 68.9608 8.14523 68.731 7.88944 68.4674ZM10.9065 90.1504C10.4693 89.2743 9.60204 87.9853 8.04073 86.7213C6.47615 85.4547 5.02788 84.8716 4.07513 84.6244L2.96486 89.3273C2.95214 89.3812 2.93619 89.4343 2.91712 89.4863C2.91596 89.4894 2.91478 89.4926 2.9136 89.4957L2.91472 89.4927L2.91592 89.4895L2.91656 89.4879C2.91454 89.4938 2.90973 89.5081 2.90302 89.53C2.88952 89.5742 2.86882 89.6474 2.8476 89.7433C2.80441 89.9386 2.76339 90.2085 2.76758 90.5077C2.77578 91.0923 2.94649 91.719 3.57076 92.2244C4.19461 92.7295 4.84086 92.7649 5.41176 92.6507C5.70426 92.5922 5.95876 92.4957 6.14011 92.4126C6.22921 92.3717 6.29626 92.3362 6.33643 92.3138C6.35639 92.3026 6.36933 92.2949 6.37463 92.2917L6.37312 92.2927L6.37019 92.2946L6.36843 92.2957L6.36748 92.2963C6.37038 92.2945 6.37328 92.2926 6.3762 92.2908C6.42482 92.26 6.47532 92.2323 6.52739 92.2079L10.9065 90.1504ZM7.11578 93.4602L6.36648 92.297C6.36681 92.2968 6.36715 92.2966 6.36748 92.2963C6.36698 92.2967 6.36648 92.297 7.11578 93.4602ZM1.61823 89.0094C2.91318 89.4969 2.91339 89.4963 2.9136 89.4957C2.91346 89.4961 2.91332 89.4965 2.91318 89.4969L1.61823 89.0094ZM2.91656 89.4879C2.91678 89.4872 2.91697 89.4867 2.91712 89.4863C2.91766 89.4847 2.91775 89.4845 2.91734 89.4856L2.91656 89.4879ZM29.9309 39.6581C30.4117 39.0641 31.283 38.9725 31.8769 39.4533L32.9813 40.3474C33.5752 40.8282 33.6669 41.6995 33.1861 42.2934C32.7052 42.8874 31.834 42.979 31.24 42.4982L30.1356 41.6041C29.5417 41.1233 29.45 40.252 29.9309 39.6581ZM29.2295 53.6017C29.7103 53.0078 30.5816 52.9161 31.1755 53.397L32.3536 54.3507C32.9475 54.8315 33.0392 55.7028 32.5583 56.2967C32.0775 56.8906 31.2062 56.9823 30.6123 56.5015L29.4343 55.5477C28.8403 55.0669 28.7487 54.1956 29.2295 53.6017Z" fill="white"/>
<path fill-rule="evenodd" clip-rule="evenodd" d="M3.45898 94.0877C3.45898 93.3236 4.07846 92.7041 4.84263 92.7041H86.1317C86.8959 92.7041 87.5153 93.3236 87.5153 94.0877C87.5153 94.8519 86.8959 95.4714 86.1317 95.4714H4.84263C4.07846 95.4714 3.45898 94.8519 3.45898 94.0877ZM89.0395 94.0877C89.0395 93.3236 89.659 92.7041 90.4231 92.7041H93.3742C94.1384 92.7041 94.7578 93.3236 94.7578 94.0877C94.7578 94.8519 94.1384 95.4714 93.3742 95.4714H90.4231C89.659 95.4714 89.0395 94.8519 89.0395 94.0877ZM96.4171 94.0877C96.4171 93.3236 97.0366 92.7041 97.8008 92.7041H99.2763C100.04 92.7041 100.66 93.3236 100.66 94.0877C100.66 94.8519 100.04 95.4714 99.2763 95.4714H97.8008C97.0366 95.4714 96.4171 94.8519 96.4171 94.0877Z" fill="white"/>
<path fill-rule="evenodd" clip-rule="evenodd" d="M78.2731 6.2726C78.8988 4.36616 81.605 4.36617 82.2307 6.2726L87.3123 21.7541L103.766 21.7541C105.754 21.7541 106.649 24.3145 104.984 25.5117L91.6852 35.0764L96.7632 50.547C97.4061 52.5056 95.1582 54.0199 93.566 52.8748L80.2519 43.2993L66.9378 52.8748C65.3456 54.0199 63.0977 52.5056 63.7406 50.5471L68.8186 35.0764L55.5195 25.5117C53.8548 24.3145 54.7501 21.7541 56.7379 21.7541L73.1915 21.7541L78.2731 6.2726ZM80.2519 9.11722L75.665 23.0916C75.3827 23.9517 74.579 24.5214 73.6862 24.5214L58.882 24.5214L70.8467 33.1264C71.5775 33.652 71.8903 34.5914 71.6072 35.4541L67.0296 49.4001L79.0335 40.7669C79.7609 40.2437 80.7428 40.2437 81.4703 40.7669L93.4742 49.4001L88.8966 35.4541C88.6135 34.5914 88.9263 33.652 89.6571 33.1264L101.622 24.5214L86.8176 24.5214C85.9248 24.5214 85.1211 23.9517 84.8388 23.0916L80.2519 9.11722Z" fill="white"/>
<path fill-rule="evenodd" clip-rule="evenodd" d="M109.958 22.3245C110.144 23.0656 109.694 23.8173 108.953 24.0033L108.261 24.177C107.52 24.363 106.768 23.913 106.582 23.1718C106.396 22.4307 106.846 21.679 107.587 21.493L108.279 21.3193C109.02 21.1333 109.772 21.5833 109.958 22.3245Z" fill="white"/>
<path fill-rule="evenodd" clip-rule="evenodd" d="M80.2518 3.45898C79.4876 3.45898 78.8682 2.83951 78.8682 2.07534V1.38352C78.8682 0.619354 79.4876 -0.000124931 80.2518 -0.000124931C81.016 -0.000124931 81.6355 0.619354 81.6355 1.38352V2.07534C81.6355 2.83951 81.016 3.45898 80.2518 3.45898Z" fill="white"/>
</svg>
