<svg width="1680" height="900" viewBox="0 0 1680 900" fill="none" xmlns="http://www.w3.org/2000/svg">
<g clip-path="url(#clip0)">
<path opacity="0.15" fill-rule="evenodd" clip-rule="evenodd" d="M1404.97 693.543C1369.89 700.783 1338 718.502 1338 759C1338 799.498 1369.89 817.217 1404.97 824.457C1385.29 854.383 1375.26 889.462 1403.9 918.099C1432.54 946.735 1467.62 936.714 1497.54 917.028C1504.78 952.109 1522.5 984 1563 984C1603.5 984 1621.22 952.109 1628.46 917.027C1658.38 936.714 1693.46 946.736 1722.1 918.099C1750.74 889.462 1740.71 854.383 1721.03 824.457C1756.11 817.217 1788 799.498 1788 759C1788 718.502 1756.11 700.783 1721.03 693.543C1740.71 663.617 1750.74 628.537 1722.1 599.901C1693.46 571.264 1658.38 581.285 1628.46 600.972C1621.22 565.891 1603.5 534 1563 534C1522.5 534 1504.78 565.891 1497.54 600.972C1467.62 581.285 1432.54 571.264 1403.9 599.901C1375.26 628.537 1385.29 663.617 1404.97 693.543Z" fill="url(#paint0_linear)"/>
<path opacity="0.15" fill-rule="evenodd" clip-rule="evenodd" d="M-14.4636 44.1524C-41.9831 49.8317 -67 63.7312 -67 95.5C-67 127.269 -41.9832 141.168 -14.4638 146.848C-29.907 170.323 -37.7679 197.84 -15.3041 220.304C7.1596 242.768 34.6775 234.907 58.1524 219.464C63.8318 246.983 77.7314 272 109.5 272C141.269 272 155.168 246.983 160.848 219.464C184.323 234.907 211.841 242.768 234.305 220.304C256.768 197.84 248.907 170.323 233.464 146.848C260.983 141.168 286 127.269 286 95.5C286 63.7314 260.983 49.8318 233.464 44.1525C248.907 20.6774 256.768 -6.84063 234.305 -29.3045C211.841 -51.7684 184.323 -43.9073 160.847 -28.464C155.168 -55.9833 141.269 -81 109.5 -81C77.7314 -81 63.8318 -55.9835 58.1525 -28.4642C34.6775 -43.9074 7.15961 -51.7683 -15.3041 -29.3045C-37.768 -6.84066 -29.9069 20.6774 -14.4636 44.1524Z" fill="url(#paint1_linear)"/>
<path opacity="0.15" fill-rule="evenodd" clip-rule="evenodd" d="M287.172 163.736C288.653 164.042 290 164.79 290 166.5C290 168.21 288.653 168.958 287.172 169.264C288.003 170.527 288.427 172.008 287.218 173.217C286.008 174.427 284.527 174.003 283.264 173.172C282.958 174.653 282.21 176 280.5 176C278.79 176 278.042 174.653 277.736 173.172C276.473 174.003 274.992 174.427 273.782 173.217C272.573 172.008 272.996 170.527 273.828 169.264C272.346 168.958 271 168.21 271 166.5C271 164.79 272.347 164.042 273.828 163.736C272.997 162.473 272.573 160.992 273.782 159.782C274.992 158.573 276.473 158.996 277.736 159.828C278.042 158.346 278.79 157 280.5 157C282.21 157 282.958 158.346 283.264 159.828C284.527 158.996 286.008 158.573 287.218 159.782C288.427 160.992 288.003 162.473 287.172 163.736Z" fill="url(#paint2_linear)"/>
<path opacity="0.15" fill-rule="evenodd" clip-rule="evenodd" d="M324.172 92.7362C325.653 93.0419 327 93.7901 327 95.5C327 97.2099 325.653 97.9581 324.172 98.2637C325.003 99.5273 325.427 101.008 324.218 102.217C323.008 103.427 321.527 103.003 320.264 102.172C319.958 103.653 319.21 105 317.5 105C315.79 105 315.042 103.653 314.736 102.172C313.473 103.003 311.992 103.427 310.782 102.217C309.573 101.008 309.996 99.5273 310.828 98.2637C309.346 97.9581 308 97.2099 308 95.5C308 93.7901 309.347 93.0419 310.828 92.7362C309.997 91.4727 309.573 89.9916 310.782 88.7825C311.992 87.5734 313.473 87.9965 314.736 88.8277C315.042 87.3465 315.79 86 317.5 86C319.21 86 319.958 87.3465 320.264 88.8277C321.527 87.9965 323.008 87.5734 324.218 88.7825C325.427 89.9916 325.003 91.4727 324.172 92.7362Z" fill="url(#paint3_linear)"/>
<path opacity="0.15" fill-rule="evenodd" clip-rule="evenodd" d="M268.172 240.736C269.653 241.042 271 241.79 271 243.5C271 245.21 269.653 245.958 268.172 246.264C269.003 247.527 269.427 249.008 268.218 250.217C267.008 251.427 265.527 251.003 264.264 250.172C263.958 251.653 263.21 253 261.5 253C259.79 253 259.042 251.653 258.736 250.172C257.473 251.003 255.992 251.427 254.782 250.217C253.573 249.008 253.996 247.527 254.828 246.264C253.346 245.958 252 245.21 252 243.5C252 241.79 253.347 241.042 254.828 240.736C253.997 239.473 253.573 237.992 254.782 236.782C255.992 235.573 257.473 235.996 258.736 236.828C259.042 235.346 259.79 234 261.5 234C263.21 234 263.958 235.346 264.264 236.828C265.527 235.996 267.008 235.573 268.218 236.782C269.427 237.992 269.003 239.473 268.172 240.736Z" fill="url(#paint4_linear)"/>
<path opacity="0.15" fill-rule="evenodd" clip-rule="evenodd" d="M107.172 301.736C108.653 302.042 110 302.79 110 304.5C110 306.21 108.653 306.958 107.172 307.264C108.003 308.527 108.427 310.008 107.218 311.217C106.008 312.427 104.527 312.003 103.264 311.172C102.958 312.653 102.21 314 100.5 314C98.7901 314 98.0419 312.653 97.7363 311.172C96.4727 312.003 94.9916 312.427 93.7825 311.217C92.5734 310.008 92.9965 308.527 93.8277 307.264C92.3465 306.958 91 306.21 91 304.5C91 302.79 92.3465 302.042 93.8277 301.736C92.9965 300.473 92.5734 298.992 93.7825 297.782C94.9916 296.573 96.4727 296.996 97.7363 297.828C98.0419 296.346 98.7901 295 100.5 295C102.21 295 102.958 296.346 103.264 297.828C104.527 296.996 106.008 296.573 107.218 297.782C108.427 298.992 108.003 300.473 107.172 301.736Z" fill="url(#paint5_linear)"/>
<path opacity="0.15" fill-rule="evenodd" clip-rule="evenodd" d="M287.172 24.7362C288.653 25.0419 290 25.7901 290 27.5C290 29.2099 288.653 29.9581 287.172 30.2637C288.003 31.5273 288.427 33.0084 287.218 34.2175C286.008 35.4266 284.527 35.0035 283.264 34.1723C282.958 35.6535 282.21 37 280.5 37C278.79 37 278.042 35.6535 277.736 34.1723C276.473 35.0035 274.992 35.4266 273.782 34.2175C272.573 33.0084 272.996 31.5273 273.828 30.2637C272.346 29.9581 271 29.2099 271 27.5C271 25.7901 272.347 25.0419 273.828 24.7362C272.997 23.4727 272.573 21.9916 273.782 20.7825C274.992 19.5734 276.473 19.9965 277.736 20.8277C278.042 19.3465 278.79 18 280.5 18C282.21 18 282.958 19.3465 283.264 20.8277C284.527 19.9965 286.008 19.5734 287.218 20.7825C288.427 21.9916 288.003 23.4727 287.172 24.7362Z" fill="url(#paint6_linear)"/>
<path opacity="0.15" fill-rule="evenodd" clip-rule="evenodd" d="M1383.17 574.736C1384.65 575.042 1386 575.79 1386 577.5C1386 579.21 1384.65 579.958 1383.17 580.264C1384 581.527 1384.43 583.008 1383.22 584.217C1382.01 585.427 1380.53 585.003 1379.26 584.172C1378.96 585.653 1378.21 587 1376.5 587C1374.79 587 1374.04 585.653 1373.74 584.172C1372.47 585.003 1370.99 585.427 1369.78 584.217C1368.57 583.008 1369 581.527 1369.83 580.264C1368.35 579.958 1367 579.21 1367 577.5C1367 575.79 1368.35 575.042 1369.83 574.736C1369 573.473 1368.57 571.992 1369.78 570.782C1370.99 569.573 1372.47 569.996 1373.74 570.828C1374.04 569.346 1374.79 568 1376.5 568C1378.21 568 1378.96 569.346 1379.26 570.828C1380.53 569.996 1382.01 569.573 1383.22 570.782C1384.43 571.992 1384 573.473 1383.17 574.736Z" fill="url(#paint7_linear)"/>
<path opacity="0.15" fill-rule="evenodd" clip-rule="evenodd" d="M1491.17 561.736C1492.65 562.042 1494 562.79 1494 564.5C1494 566.21 1492.65 566.958 1491.17 567.264C1492 568.527 1492.43 570.008 1491.22 571.217C1490.01 572.427 1488.53 572.003 1487.26 571.172C1486.96 572.653 1486.21 574 1484.5 574C1482.79 574 1482.04 572.653 1481.74 571.172C1480.47 572.003 1478.99 572.427 1477.78 571.217C1476.57 570.008 1477 568.527 1477.83 567.264C1476.35 566.958 1475 566.21 1475 564.5C1475 562.79 1476.35 562.042 1477.83 561.736C1477 560.473 1476.57 558.992 1477.78 557.782C1478.99 556.573 1480.47 556.996 1481.74 557.828C1482.04 556.346 1482.79 555 1484.5 555C1486.21 555 1486.96 556.346 1487.26 557.828C1488.53 556.996 1490.01 556.573 1491.22 557.782C1492.43 558.992 1492 560.473 1491.17 561.736Z" fill="url(#paint8_linear)"/>
<path opacity="0.15" fill-rule="evenodd" clip-rule="evenodd" d="M1577.17 501.736C1578.65 502.042 1580 502.79 1580 504.5C1580 506.21 1578.65 506.958 1577.17 507.264C1578 508.527 1578.43 510.008 1577.22 511.217C1576.01 512.427 1574.53 512.003 1573.26 511.172C1572.96 512.653 1572.21 514 1570.5 514C1568.79 514 1568.04 512.653 1567.74 511.172C1566.47 512.003 1564.99 512.427 1563.78 511.217C1562.57 510.008 1563 508.527 1563.83 507.264C1562.35 506.958 1561 506.21 1561 504.5C1561 502.79 1562.35 502.042 1563.83 501.736C1563 500.473 1562.57 498.992 1563.78 497.782C1564.99 496.573 1566.47 496.996 1567.74 497.828C1568.04 496.346 1568.79 495 1570.5 495C1572.21 495 1572.96 496.346 1573.26 497.828C1574.53 496.996 1576.01 496.573 1577.22 497.782C1578.43 498.992 1578 500.473 1577.17 501.736Z" fill="url(#paint9_linear)"/>
<path opacity="0.15" fill-rule="evenodd" clip-rule="evenodd" d="M1649.17 565.736C1650.65 566.042 1652 566.79 1652 568.5C1652 570.21 1650.65 570.958 1649.17 571.264C1650 572.527 1650.43 574.008 1649.22 575.217C1648.01 576.427 1646.53 576.003 1645.26 575.172C1644.96 576.653 1644.21 578 1642.5 578C1640.79 578 1640.04 576.653 1639.74 575.172C1638.47 576.003 1636.99 576.427 1635.78 575.217C1634.57 574.008 1635 572.527 1635.83 571.264C1634.35 570.958 1633 570.21 1633 568.5C1633 566.79 1634.35 566.042 1635.83 565.736C1635 564.473 1634.57 562.992 1635.78 561.782C1636.99 560.573 1638.47 560.996 1639.74 561.828C1640.04 560.346 1640.79 559 1642.5 559C1644.21 559 1644.96 560.346 1645.26 561.828C1646.53 560.996 1648.01 560.573 1649.22 561.782C1650.43 562.992 1650 564.473 1649.17 565.736Z" fill="url(#paint10_linear)"/>
<path opacity="0.15" fill-rule="evenodd" clip-rule="evenodd" d="M1370.17 675.736C1371.65 676.042 1373 676.79 1373 678.5C1373 680.21 1371.65 680.958 1370.17 681.264C1371 682.527 1371.43 684.008 1370.22 685.217C1369.01 686.427 1367.53 686.003 1366.26 685.172C1365.96 686.653 1365.21 688 1363.5 688C1361.79 688 1361.04 686.653 1360.74 685.172C1359.47 686.003 1357.99 686.427 1356.78 685.217C1355.57 684.008 1356 682.527 1356.83 681.264C1355.35 680.958 1354 680.21 1354 678.5C1354 676.79 1355.35 676.042 1356.83 675.736C1356 674.473 1355.57 672.992 1356.78 671.782C1357.99 670.573 1359.47 670.996 1360.74 671.828C1361.04 670.346 1361.79 669 1363.5 669C1365.21 669 1365.96 670.346 1366.26 671.828C1367.53 670.996 1369.01 670.573 1370.22 671.782C1371.43 672.992 1371 674.473 1370.17 675.736Z" fill="url(#paint11_linear)"/>
<path opacity="0.15" fill-rule="evenodd" clip-rule="evenodd" d="M1314.17 756.736C1315.65 757.042 1317 757.79 1317 759.5C1317 761.21 1315.65 761.958 1314.17 762.264C1315 763.527 1315.43 765.008 1314.22 766.217C1313.01 767.427 1311.53 767.003 1310.26 766.172C1309.96 767.653 1309.21 769 1307.5 769C1305.79 769 1305.04 767.653 1304.74 766.172C1303.47 767.003 1301.99 767.427 1300.78 766.217C1299.57 765.008 1300 763.527 1300.83 762.264C1299.35 761.958 1298 761.21 1298 759.5C1298 757.79 1299.35 757.042 1300.83 756.736C1300 755.473 1299.57 753.992 1300.78 752.782C1301.99 751.573 1303.47 751.996 1304.74 752.828C1305.04 751.346 1305.79 750 1307.5 750C1309.21 750 1309.96 751.346 1310.26 752.828C1311.53 751.996 1313.01 751.573 1314.22 752.782C1315.43 753.992 1315 755.473 1314.17 756.736Z" fill="url(#paint12_linear)"/>
<path opacity="0.15" fill-rule="evenodd" clip-rule="evenodd" d="M1370.17 840.736C1371.65 841.042 1373 841.79 1373 843.5C1373 845.21 1371.65 845.958 1370.17 846.264C1371 847.527 1371.43 849.008 1370.22 850.217C1369.01 851.427 1367.53 851.003 1366.26 850.172C1365.96 851.653 1365.21 853 1363.5 853C1361.79 853 1361.04 851.653 1360.74 850.172C1359.47 851.003 1357.99 851.427 1356.78 850.217C1355.57 849.008 1356 847.527 1356.83 846.264C1355.35 845.958 1354 845.21 1354 843.5C1354 841.79 1355.35 841.042 1356.83 840.736C1356 839.473 1355.57 837.992 1356.78 836.782C1357.99 835.573 1359.47 835.996 1360.74 836.828C1361.04 835.346 1361.79 834 1363.5 834C1365.21 834 1365.96 835.346 1366.26 836.828C1367.53 835.996 1369.01 835.573 1370.22 836.782C1371.43 837.992 1371 839.473 1370.17 840.736Z" fill="url(#paint13_linear)"/>
<path opacity="0.15" fill-rule="evenodd" clip-rule="evenodd" d="M186.172 267.736C187.653 268.042 189 268.79 189 270.5C189 272.21 187.653 272.958 186.172 273.264C187.003 274.527 187.427 276.008 186.218 277.217C185.008 278.427 183.527 278.003 182.264 277.172C181.958 278.653 181.21 280 179.5 280C177.79 280 177.042 278.653 176.736 277.172C175.473 278.003 173.992 278.427 172.782 277.217C171.573 276.008 171.996 274.527 172.828 273.264C171.346 272.958 170 272.21 170 270.5C170 268.79 171.347 268.042 172.828 267.736C171.997 266.473 171.573 264.992 172.782 263.782C173.992 262.573 175.473 262.996 176.736 263.828C177.042 262.346 177.79 261 179.5 261C181.21 261 181.958 262.346 182.264 263.828C183.527 262.996 185.008 262.573 186.218 263.782C187.427 264.992 187.003 266.473 186.172 267.736Z" fill="url(#paint14_linear)"/>
<path opacity="0.15" fill-rule="evenodd" clip-rule="evenodd" d="M50.1723 259.736C51.6535 260.042 53 260.79 53 262.5C53 264.21 51.6535 264.958 50.1723 265.264C51.0035 266.527 51.4266 268.008 50.2175 269.217C49.0084 270.427 47.5273 270.003 46.2638 269.172C45.9581 270.653 45.2099 272 43.5 272C41.7901 272 41.0419 270.653 40.7363 269.172C39.4727 270.003 37.9916 270.427 36.7825 269.217C35.5734 268.008 35.9965 266.527 36.8277 265.264C35.3465 264.958 34 264.21 34 262.5C34 260.79 35.3465 260.042 36.8277 259.736C35.9965 258.473 35.5734 256.992 36.7825 255.782C37.9916 254.573 39.4727 254.996 40.7363 255.828C41.0419 254.346 41.7901 253 43.5 253C45.2099 253 45.9581 254.346 46.2637 255.828C47.5273 254.996 49.0084 254.573 50.2175 255.782C51.4266 256.992 51.0035 258.473 50.1723 259.736Z" fill="url(#paint15_linear)"/>
</g>
<defs>
<linearGradient id="paint0_linear" x1="1498.67" y1="692.134" x2="1722.4" y2="941.535" gradientUnits="userSpaceOnUse">
<stop stop-color="#FF9CAA"/>
<stop offset="1" stop-color="#FFAF96"/>
</linearGradient>
<linearGradient id="paint1_linear" x1="59.0359" y1="43.0472" x2="234.542" y2="238.689" gradientUnits="userSpaceOnUse">
<stop stop-color="#FF9CAA"/>
<stop offset="1" stop-color="#FFAF96"/>
</linearGradient>
<linearGradient id="paint2_linear" x1="283.216" y1="163.677" x2="273.77" y2="174.207" gradientUnits="userSpaceOnUse">
<stop stop-color="#FF9CAA"/>
<stop offset="1" stop-color="#FFAF96"/>
</linearGradient>
<linearGradient id="paint3_linear" x1="320.216" y1="92.6768" x2="310.77" y2="103.207" gradientUnits="userSpaceOnUse">
<stop stop-color="#FF9CAA"/>
<stop offset="1" stop-color="#FFAF96"/>
</linearGradient>
<linearGradient id="paint4_linear" x1="264.216" y1="240.677" x2="254.77" y2="251.207" gradientUnits="userSpaceOnUse">
<stop stop-color="#FF9CAA"/>
<stop offset="1" stop-color="#FFAF96"/>
</linearGradient>
<linearGradient id="paint5_linear" x1="103.216" y1="301.677" x2="93.7697" y2="312.207" gradientUnits="userSpaceOnUse">
<stop stop-color="#FF9CAA"/>
<stop offset="1" stop-color="#FFAF96"/>
</linearGradient>
<linearGradient id="paint6_linear" x1="283.216" y1="24.6768" x2="273.77" y2="35.207" gradientUnits="userSpaceOnUse">
<stop stop-color="#FF9CAA"/>
<stop offset="1" stop-color="#FFAF96"/>
</linearGradient>
<linearGradient id="paint7_linear" x1="1379.22" y1="574.677" x2="1369.77" y2="585.207" gradientUnits="userSpaceOnUse">
<stop stop-color="#FF9CAA"/>
<stop offset="1" stop-color="#FFAF96"/>
</linearGradient>
<linearGradient id="paint8_linear" x1="1487.22" y1="561.677" x2="1477.77" y2="572.207" gradientUnits="userSpaceOnUse">
<stop stop-color="#FF9CAA"/>
<stop offset="1" stop-color="#FFAF96"/>
</linearGradient>
<linearGradient id="paint9_linear" x1="1573.22" y1="501.677" x2="1563.77" y2="512.207" gradientUnits="userSpaceOnUse">
<stop stop-color="#FF9CAA"/>
<stop offset="1" stop-color="#FFAF96"/>
</linearGradient>
<linearGradient id="paint10_linear" x1="1645.22" y1="565.677" x2="1635.77" y2="576.207" gradientUnits="userSpaceOnUse">
<stop stop-color="#FF9CAA"/>
<stop offset="1" stop-color="#FFAF96"/>
</linearGradient>
<linearGradient id="paint11_linear" x1="1366.22" y1="675.677" x2="1356.77" y2="686.207" gradientUnits="userSpaceOnUse">
<stop stop-color="#FF9CAA"/>
<stop offset="1" stop-color="#FFAF96"/>
</linearGradient>
<linearGradient id="paint12_linear" x1="1310.22" y1="756.677" x2="1300.77" y2="767.207" gradientUnits="userSpaceOnUse">
<stop stop-color="#FF9CAA"/>
<stop offset="1" stop-color="#FFAF96"/>
</linearGradient>
<linearGradient id="paint13_linear" x1="1366.22" y1="840.677" x2="1356.77" y2="851.207" gradientUnits="userSpaceOnUse">
<stop stop-color="#FF9CAA"/>
<stop offset="1" stop-color="#FFAF96"/>
</linearGradient>
<linearGradient id="paint14_linear" x1="182.216" y1="267.677" x2="172.77" y2="278.207" gradientUnits="userSpaceOnUse">
<stop stop-color="#FF9CAA"/>
<stop offset="1" stop-color="#FFAF96"/>
</linearGradient>
<linearGradient id="paint15_linear" x1="46.2162" y1="259.677" x2="36.7697" y2="270.207" gradientUnits="userSpaceOnUse">
<stop stop-color="#FF9CAA"/>
<stop offset="1" stop-color="#FFAF96"/>
</linearGradient>
<clipPath id="clip0">
<rect width="1680" height="900" fill="white"/>
</clipPath>
</defs>
</svg>
