<svg width="514" height="91" viewBox="0 0 514 91" fill="none" xmlns="http://www.w3.org/2000/svg">
<path d="M47.4379 16.5828C48.9578 19.6994 49.7178 23.1688 49.7178 26.9911C49.7178 30.8133 48.9578 34.2828 47.4379 37.3994C45.9181 40.4572 43.9597 42.8976 41.563 44.7205C36.7111 48.484 31.6838 50.3657 26.4811 50.3657H15.5204V60.333C15.5204 61.6855 15.4619 62.7146 15.345 63.4202C15.2865 64.0671 15.0235 64.8315 14.5558 65.7136C13.7374 67.3013 11.4576 68.0951 7.71634 68.0951C3.62434 68.0951 1.2276 67.0073 0.526114 64.8315C0.175371 63.8318 0 62.3029 0 60.2448V11.2904C0 9.93789 0.0292287 8.93822 0.0876857 8.29138C0.2046 7.58573 0.496885 6.79187 0.964542 5.90981C1.78294 4.3221 4.06277 3.52825 7.80402 3.52825H26.5688C31.713 3.52825 36.7111 5.40998 41.563 9.17344C43.9597 10.9964 45.9181 13.4661 47.4379 16.5828ZM26.5688 34.7532C28.3225 34.7532 30.047 34.1064 31.7422 32.8127C33.4375 31.519 34.2851 29.5785 34.2851 26.9911C34.2851 24.4037 33.4375 22.4632 31.7422 21.1695C30.047 19.817 28.2932 19.1407 26.4811 19.1407H15.5204V34.7532H26.5688Z" fill="#182739"/>
<path d="M85.3915 26.6383C85.7422 23.3452 88.0513 21.6987 92.3186 21.6987C94.5984 21.6987 96.2937 21.8751 97.4044 22.2279C98.5151 22.5808 99.275 23.1982 99.6842 24.0803C100.152 24.9623 100.415 25.7562 100.473 26.4618C100.59 27.1087 100.649 28.1084 100.649 29.4608V60.333C100.649 61.6855 100.59 62.7146 100.473 63.4202C100.415 64.0671 100.181 64.8315 99.7719 65.7136C98.9535 67.2425 96.9367 68.0069 93.7216 68.0069C90.5649 68.0069 88.4312 67.6247 87.3205 66.8603C86.2683 66.037 85.6545 64.8609 85.4791 63.332C83.3162 66.4486 79.6919 68.0069 74.6061 68.0069C69.5788 68.0069 64.9022 65.6842 60.5764 61.0386C56.2506 56.3931 54.0877 51.0125 54.0877 44.8969C54.0877 38.7225 56.2506 33.3419 60.5764 28.7552C64.9607 24.1097 69.7542 21.7869 74.9569 21.7869C76.9444 21.7869 78.7566 22.1397 80.3934 22.8454C82.0302 23.551 83.1701 24.2273 83.8131 24.8741C84.4561 25.4622 84.9823 26.0502 85.3915 26.6383ZM69.4327 44.9851C69.4327 46.9257 70.1926 48.6898 71.7125 50.2775C73.2324 51.8064 75.0738 52.5709 77.2367 52.5709C79.3996 52.5709 81.1825 51.777 82.5855 50.1893C84.0469 48.6016 84.7776 46.8669 84.7776 44.9851C84.7776 43.0446 84.0762 41.2511 82.6732 39.6046C81.3287 37.958 79.4873 37.1348 77.149 37.1348C74.8692 37.1348 72.9985 37.958 71.5371 39.6046C70.1341 41.2511 69.4327 43.0446 69.4327 44.9851Z" fill="#182739"/>
<path d="M139.029 22.2279C140.14 22.5808 141.046 23.1982 141.747 24.0803C142.507 24.9035 142.887 26.256 142.887 28.1378C142.887 30.0195 142.332 32.0776 141.221 34.3122C140.111 36.5467 138.503 37.664 136.398 37.664C135.346 37.664 134.323 37.4288 133.329 36.9584C132.394 36.4879 131.137 36.2527 129.559 36.2527C127.981 36.2527 126.49 36.8114 125.087 37.9286C123.743 39.0459 123.07 40.3984 123.07 41.9861V60.5094C123.07 61.8619 123.012 62.891 122.895 63.5966C122.836 64.2435 122.573 65.0079 122.106 65.89C121.229 67.4189 118.949 68.1833 115.266 68.1833C112.46 68.1833 110.444 67.6835 109.216 66.6838C108.281 65.8606 107.754 64.5963 107.638 62.891C107.638 62.3029 107.638 61.4503 107.638 60.333V29.3726C107.638 28.0202 107.667 27.0205 107.725 26.3736C107.842 25.668 108.105 24.9035 108.514 24.0803C109.333 22.4926 111.613 21.6987 115.354 21.6987C118.861 21.6987 121.053 22.375 121.93 23.7275C122.573 24.6683 122.895 25.6386 122.895 26.6383C123.187 26.2266 123.596 25.7268 124.122 25.1388C124.707 24.5507 125.905 23.7569 127.718 22.7572C129.53 21.7575 131.108 21.2577 132.453 21.2577C133.856 21.2577 135.025 21.3459 135.96 21.5223C136.895 21.6399 137.918 21.8751 139.029 22.2279Z" fill="#182739"/>
<path d="M189.602 39.4281C189.602 43.0152 188.696 45.6908 186.884 47.4549C185.13 49.1602 183.172 50.0129 181.009 50.0129H160.228C160.228 51.6594 161.192 53.0413 163.121 54.1586C165.05 55.2758 166.98 55.8345 168.909 55.8345C172.299 55.8345 174.959 55.4817 176.888 54.776L177.853 54.4232C179.256 53.7763 180.425 53.4529 181.36 53.4529C183.231 53.4529 184.838 54.776 186.183 57.4222C186.943 59.0099 187.323 60.3624 187.323 61.4797C187.323 66.7132 181.097 69.33 168.646 69.33C164.32 69.33 160.462 68.595 157.071 67.1249C153.739 65.596 151.138 63.5966 149.267 61.1269C145.584 56.3637 143.743 51.042 143.743 45.1615C143.743 37.7522 146.11 31.8424 150.845 27.4321C155.639 22.963 161.601 20.7284 168.733 20.7284C176.859 20.7284 182.821 23.6098 186.621 29.3726C188.609 32.4305 189.602 35.7823 189.602 39.4281ZM171.101 41.9861C173.322 41.9861 174.433 41.0453 174.433 39.1635C174.433 37.811 173.907 36.7232 172.854 35.8999C171.861 35.0766 170.399 34.665 168.47 34.665C166.6 34.665 164.729 35.4589 162.858 37.0466C160.988 38.5755 160.052 40.222 160.052 41.9861H171.101Z" fill="#182739"/>
<path d="M221.015 21.6987C226.861 21.6987 231.713 23.9627 235.571 28.4906C239.488 32.9597 241.446 38.4285 241.446 44.8969V60.4212C241.446 61.7737 241.387 62.8028 241.271 63.5084C241.212 64.1553 240.978 64.8903 240.569 65.7136C239.751 67.3013 237.471 68.0951 233.73 68.0951C229.579 68.0951 227.182 67.0073 226.539 64.8315C226.189 63.8318 226.013 62.3323 226.013 60.333V44.8087C226.013 42.3978 225.312 40.516 223.909 39.1635C222.564 37.811 220.723 37.1348 218.385 37.1348C216.105 37.1348 214.234 37.8404 212.773 39.2517C211.37 40.663 210.668 42.5154 210.668 44.8087V60.4212C210.668 61.7737 210.61 62.8028 210.493 63.5084C210.434 64.1553 210.171 64.8903 209.704 65.7136C208.944 67.3013 206.693 68.0951 202.952 68.0951C199.269 68.0951 197.018 67.3013 196.2 65.7136C195.791 64.8315 195.528 64.0671 195.411 63.4202C195.352 62.7146 195.323 61.6855 195.323 60.333V29.108C195.323 27.8143 195.352 26.8441 195.411 26.1972C195.528 25.4916 195.82 24.7271 196.288 23.9039C197.106 22.4338 199.357 21.6987 203.04 21.6987C206.605 21.6987 208.798 22.375 209.616 23.7275C210.201 24.7271 210.493 25.9326 210.493 27.3439C210.727 26.9323 211.253 26.3442 212.071 25.5798C212.89 24.8153 213.679 24.1979 214.439 23.7275C216.426 22.375 218.618 21.6987 221.015 21.6987Z" fill="#182739"/>
<path d="M274.475 37.3112L268.776 36.9584V49.1308C268.776 50.7185 269.01 51.8652 269.477 52.5709C270.003 53.2765 270.939 53.6293 272.283 53.6293C273.686 53.6293 274.738 53.6881 275.44 53.8057C276.2 53.8646 276.989 54.1292 277.807 54.5996C279.152 55.364 279.824 57.334 279.824 60.5094C279.824 64.2141 279.006 66.478 277.369 67.3013C276.492 67.7129 275.703 67.9775 275.001 68.0951C274.358 68.1539 273.394 68.1833 272.108 68.1833C266.028 68.1833 261.41 66.8014 258.253 64.0377C255.097 61.2739 253.518 56.5989 253.518 50.0129V36.9584C252.408 37.1348 251.209 37.223 249.923 37.223C248.637 37.223 247.556 36.7232 246.679 35.7235C245.861 34.7238 245.451 33.0185 245.451 30.6075C245.451 28.1966 245.597 26.4618 245.89 25.4034C246.182 24.2861 246.591 23.4922 247.117 23.0218C248.053 22.2573 249.222 21.8751 250.625 21.8751L253.518 22.2279V13.1427C253.518 11.7902 253.548 10.7906 253.606 10.1437C253.723 9.49686 254.015 8.79121 254.483 8.02676C255.243 6.55666 257.493 5.82161 261.235 5.82161C265.21 5.82161 267.577 6.90948 268.337 9.08523C268.63 10.0261 268.776 11.5256 268.776 13.5837V22.2279C271.348 21.9927 273.277 21.8751 274.563 21.8751C275.908 21.8751 276.901 21.9339 277.544 22.0515C278.246 22.1103 279.035 22.375 279.912 22.8454C281.432 23.6098 282.192 25.8738 282.192 29.6373C282.192 33.3419 281.402 35.6059 279.824 36.4291C278.947 36.8408 278.158 37.1054 277.457 37.223C276.814 37.2818 275.82 37.3112 274.475 37.3112Z" fill="#182739"/>
<path d="M300.625 53.6293C301.619 54.629 302.115 56.6871 302.115 59.8038V60.1566C302.115 61.5679 302.057 62.6264 301.94 63.332C301.882 63.9789 301.589 64.7727 301.063 65.7136C300.186 67.4189 297.965 68.2716 294.399 68.2716C290.892 68.2716 288.553 67.7129 287.384 66.5956C286.274 65.4784 285.718 63.3614 285.718 60.2448V59.892C285.718 58.5395 285.747 57.5104 285.806 56.8048C285.923 56.0991 286.215 55.3052 286.683 54.4232C287.56 52.6591 289.752 51.777 293.259 51.777C296.825 51.777 299.28 52.3944 300.625 53.6293Z" fill="#182739"/>
<path d="M333.183 21.7869C338.386 21.7869 343.15 24.1097 347.476 28.7552C351.86 33.4007 354.052 38.8107 354.052 44.9851C354.052 51.1008 351.889 56.4813 347.563 61.1269C343.238 65.7136 338.59 68.0069 333.621 68.0069C328.652 68.0069 325.116 66.5956 323.011 63.773C322.544 66.6544 320.03 68.0951 315.47 68.0951C311.788 68.0951 309.537 67.3013 308.719 65.7136C308.309 64.8315 308.046 64.0671 307.929 63.4202C307.871 62.7146 307.842 61.6855 307.842 60.333V7.67393C307.842 6.32144 307.871 5.32177 307.929 4.67493C308.046 3.96928 308.309 3.20482 308.719 2.38157C309.537 0.793855 311.817 0 315.558 0C319.241 0 321.462 0.793855 322.222 2.38157C322.69 3.26363 322.953 4.05748 323.011 4.76313C323.128 5.40998 323.187 6.40965 323.187 7.76214V26.109C325.525 23.2276 328.857 21.7869 333.183 21.7869ZM325.467 50.2775C326.928 51.8652 328.74 52.6591 330.903 52.6591C333.066 52.6591 334.907 51.8652 336.427 50.2775C337.947 48.6898 338.707 46.9257 338.707 44.9851C338.707 43.0446 338.006 41.2805 336.603 39.6928C335.2 38.0462 333.329 37.223 330.991 37.223C328.652 37.223 326.782 38.0462 325.379 39.6928C324.034 41.3393 323.362 43.1328 323.362 45.0733C323.362 46.9551 324.064 48.6898 325.467 50.2775Z" fill="#182739"/>
<path d="M389.722 26.6383C390.073 23.3452 392.382 21.6987 396.65 21.6987C398.929 21.6987 400.625 21.8751 401.735 22.2279C402.846 22.5808 403.606 23.1982 404.015 24.0803C404.483 24.9623 404.746 25.7562 404.804 26.4618C404.921 27.1087 404.98 28.1084 404.98 29.4608V60.333C404.98 61.6855 404.921 62.7146 404.804 63.4202C404.746 64.0671 404.512 64.8315 404.103 65.7136C403.284 67.2425 401.268 68.0069 398.052 68.0069C394.896 68.0069 392.762 67.6247 391.651 66.8603C390.599 66.037 389.985 64.8609 389.81 63.332C387.647 66.4486 384.023 68.0069 378.937 68.0069C373.91 68.0069 369.233 65.6842 364.907 61.0386C360.581 56.3931 358.419 51.0125 358.419 44.8969C358.419 38.7225 360.581 33.3419 364.907 28.7552C369.292 24.1097 374.085 21.7869 379.288 21.7869C381.275 21.7869 383.087 22.1397 384.724 22.8454C386.361 23.551 387.501 24.2273 388.144 24.8741C388.787 25.4622 389.313 26.0502 389.722 26.6383ZM373.764 44.9851C373.764 46.9257 374.523 48.6898 376.043 50.2775C377.563 51.8064 379.405 52.5709 381.568 52.5709C383.73 52.5709 385.513 51.777 386.916 50.1893C388.378 48.6016 389.109 46.8669 389.109 44.9851C389.109 43.0446 388.407 41.2511 387.004 39.6046C385.66 37.958 383.818 37.1348 381.48 37.1348C379.2 37.1348 377.329 37.958 375.868 39.6046C374.465 41.2511 373.764 43.0446 373.764 44.9851Z" fill="#182739"/>
<path d="M437.31 21.7869C442.512 21.7869 447.277 24.1097 451.602 28.7552C455.987 33.4007 458.179 38.8107 458.179 44.9851C458.179 51.1008 456.016 56.4813 451.69 61.1269C447.364 65.7136 442.717 68.0069 437.748 68.0069C432.779 68.0069 429.243 66.5956 427.138 63.773C426.67 66.6544 424.157 68.0951 419.597 68.0951C415.914 68.0951 413.664 67.3013 412.845 65.7136C412.436 64.8315 412.173 64.0671 412.056 63.4202C411.998 62.7146 411.968 61.6855 411.968 60.333V7.67393C411.968 6.32144 411.998 5.32177 412.056 4.67493C412.173 3.96928 412.436 3.20482 412.845 2.38157C413.664 0.793855 415.944 0 419.685 0C423.368 0 425.589 0.793855 426.349 2.38157C426.817 3.26363 427.08 4.05748 427.138 4.76313C427.255 5.40998 427.313 6.40965 427.313 7.76214V26.109C429.652 23.2276 432.984 21.7869 437.31 21.7869ZM429.593 50.2775C431.055 51.8652 432.867 52.6591 435.03 52.6591C437.193 52.6591 439.034 51.8652 440.554 50.2775C442.074 48.6898 442.834 46.9257 442.834 44.9851C442.834 43.0446 442.132 41.2805 440.729 39.6928C439.326 38.0462 437.456 37.223 435.117 37.223C432.779 37.223 430.909 38.0462 429.506 39.6928C428.161 41.3393 427.489 43.1328 427.489 45.0733C427.489 46.9551 428.19 48.6898 429.593 50.2775Z" fill="#182739"/>
<path d="M506.827 22.2279C510.276 23.7569 512 25.6092 512 27.7849C512 28.8434 511.766 29.8431 511.299 30.7839C510.831 31.7248 510.597 32.2246 510.597 32.2834L487.623 83.9722C487.156 85.0895 486.747 85.9422 486.396 86.5302C486.104 87.1183 485.607 87.6769 484.905 88.2061C484.204 88.7354 483.327 89 482.275 89C481.222 89 479.673 88.559 477.627 87.6769C474.178 86.148 472.454 84.3251 472.454 82.2081C472.454 80.7968 475.26 74.0638 480.872 62.0089L463.422 32.4599C462.253 30.5193 461.668 29.0786 461.668 28.1378C461.668 26.256 463.247 24.3743 466.403 22.4926C468.391 21.3165 469.94 20.7284 471.051 20.7284C472.161 20.7284 473.068 20.9637 473.769 21.4341C474.471 21.9045 474.967 22.4044 475.26 22.9336C475.61 23.404 477.218 26.1384 480.082 31.1368C483.005 36.0763 485.782 40.6924 488.413 44.9851C488.705 44.0443 490.283 40.4278 493.148 34.1358C496.012 27.7849 497.532 24.4037 497.707 23.9921C497.941 23.5804 498.292 23.0806 498.759 22.4926C499.519 21.4929 500.572 20.9931 501.916 20.9931C503.319 20.9931 504.956 21.4047 506.827 22.2279Z" fill="#182739"/>
<path d="M50.3453 19.3964C51.8622 22.478 52.6207 25.9085 52.6207 29.6878C52.6207 33.4671 51.8622 36.8976 50.3453 39.9792C48.8284 43.0026 46.8739 45.4156 44.4818 47.218C39.6394 50.9392 34.6219 52.7998 29.4293 52.7998H18.4901V62.6551C18.4901 63.9924 18.4317 65.0099 18.315 65.7076C18.2567 66.3472 17.9941 67.1031 17.5274 67.9752C16.7106 69.5451 14.4352 70.33 10.7013 70.33C6.61726 70.33 4.2252 69.2544 3.52509 67.1031C3.17503 66.1146 3 64.6029 3 62.5679V14.1635C3 12.8262 3.02917 11.8378 3.08751 11.1982C3.2042 10.5005 3.49591 9.71556 3.96266 8.84341C4.77946 7.27354 7.05483 6.4886 10.7888 6.4886H29.5169C34.651 6.4886 39.6394 8.34919 44.4818 12.0704C46.8739 13.8728 48.8284 16.3148 50.3453 19.3964ZM29.5169 37.3627C31.2672 37.3627 32.9883 36.7232 34.6802 35.444C36.3722 34.1648 37.2181 32.2461 37.2181 29.6878C37.2181 27.1295 36.3722 25.2108 34.6802 23.9316C32.9883 22.5943 31.238 21.9257 29.4293 21.9257H18.4901V37.3627H29.5169Z" fill="url(#paint0_linear)"/>
<path d="M88.2247 29.3389C88.5747 26.0829 90.8793 24.4549 95.1383 24.4549C97.4137 24.4549 99.1056 24.6293 100.214 24.9782C101.323 25.3271 102.081 25.9376 102.49 26.8097C102.956 27.6819 103.219 28.4668 103.277 29.1645C103.394 29.8041 103.452 30.7925 103.452 32.1298V62.6551C103.452 63.9924 103.394 65.0099 103.277 65.7076C103.219 66.3472 102.985 67.1031 102.577 67.9752C101.76 69.4869 99.7474 70.2428 96.5385 70.2428C93.388 70.2428 91.2585 69.8649 90.15 69.109C89.0998 68.295 88.4872 67.1321 88.3122 65.6204C86.1535 68.702 82.5362 70.2428 77.4604 70.2428C72.4429 70.2428 67.7755 67.9462 63.4581 63.3528C59.1407 58.7595 56.982 53.4394 56.982 47.3925C56.982 41.2874 59.1407 35.9673 63.4581 31.4321C67.8338 26.8388 72.6179 24.5421 77.8105 24.5421C79.7941 24.5421 81.6028 24.891 83.2364 25.5887C84.87 26.2864 86.0076 26.9551 86.6494 27.5946C87.2912 28.1761 87.8163 28.7575 88.2247 29.3389ZM72.2971 47.4797C72.2971 49.3984 73.0555 51.1427 74.5724 52.7126C76.0893 54.2243 77.9271 54.9802 80.0858 54.9802C82.2445 54.9802 84.024 54.1952 85.4242 52.6254C86.8828 51.0555 87.6121 49.3403 87.6121 47.4797C87.6121 45.5609 86.912 43.7876 85.5117 42.1596C84.1698 40.5315 82.332 39.7175 79.9983 39.7175C77.7229 39.7175 75.856 40.5315 74.3974 42.1596C72.9972 43.7876 72.2971 45.5609 72.2971 47.4797Z" fill="url(#paint1_linear)"/>
<path d="M141.758 24.9782C142.866 25.3271 143.77 25.9376 144.47 26.8097C145.229 27.6237 145.608 28.961 145.608 30.8216C145.608 32.6822 145.054 34.7172 143.945 36.9267C142.837 39.1361 141.232 40.2408 139.132 40.2408C138.082 40.2408 137.061 40.0083 136.069 39.5431C135.136 39.078 133.881 38.8454 132.306 38.8454C130.731 38.8454 129.243 39.3978 127.843 40.5025C126.501 41.6072 125.83 42.9445 125.83 44.5144V62.8295C125.83 64.1668 125.772 65.1843 125.655 65.8821C125.597 66.5216 125.334 67.2775 124.867 68.1497C123.992 69.6614 121.717 70.4172 118.041 70.4172C115.241 70.4172 113.228 69.923 112.003 68.9346C111.069 68.1206 110.544 66.8705 110.427 65.1843C110.427 64.6029 110.427 63.7598 110.427 62.6551V32.0426C110.427 30.7053 110.457 29.7169 110.515 29.0773C110.632 28.3796 110.894 27.6237 111.302 26.8097C112.119 25.2398 114.395 24.4549 118.129 24.4549C121.629 24.4549 123.817 25.1236 124.692 26.4609C125.334 27.3911 125.655 28.3505 125.655 29.3389C125.947 28.9319 126.355 28.4377 126.88 27.8563C127.463 27.2749 128.66 26.4899 130.468 25.5015C132.277 24.5131 133.852 24.0188 135.194 24.0188C136.594 24.0188 137.761 24.106 138.695 24.2805C139.628 24.3968 140.649 24.6293 141.758 24.9782Z" fill="url(#paint2_linear)"/>
<path d="M192.232 41.9851C192.232 45.5319 191.328 48.1774 189.519 49.9217C187.769 51.6079 185.814 52.4509 183.656 52.4509H162.915C162.915 54.079 163.877 55.4453 165.803 56.55C167.728 57.6548 169.653 58.2071 171.579 58.2071C174.963 58.2071 177.617 57.8583 179.543 57.1606L180.505 56.8117C181.905 56.1721 183.072 55.8523 184.006 55.8523C185.873 55.8523 187.477 57.1605 188.819 59.777C189.577 61.3469 189.957 62.6842 189.957 63.7889C189.957 68.9637 183.743 71.551 171.316 71.551C166.999 71.551 163.148 70.8242 159.764 69.3707C156.439 67.8589 153.842 65.8821 151.975 63.44C148.3 58.7304 146.462 53.4684 146.462 47.6541C146.462 40.328 148.825 34.4846 153.551 30.1239C158.335 25.705 164.286 23.4955 171.404 23.4955C179.513 23.4955 185.464 26.3446 189.257 32.0426C191.24 35.0661 192.232 38.3802 192.232 41.9851ZM173.767 44.5144C175.984 44.5144 177.092 43.5841 177.092 41.7235C177.092 40.3862 176.567 39.3105 175.517 38.4965C174.525 37.6825 173.066 37.2755 171.141 37.2755C169.274 37.2755 167.407 38.0605 165.54 39.6303C163.673 41.1421 162.74 42.7701 162.74 44.5144H173.767Z" fill="url(#paint3_linear)"/>
<path d="M223.583 24.4549C229.418 24.4549 234.26 26.6934 238.111 31.1705C242.02 35.5894 243.974 40.9967 243.974 47.3925V62.7423C243.974 64.0796 243.916 65.0971 243.799 65.7948C243.741 66.4344 243.508 67.1612 243.099 67.9752C242.282 69.5451 240.007 70.33 236.273 70.33C232.131 70.33 229.739 69.2544 229.097 67.1031C228.747 66.1146 228.572 64.632 228.572 62.6551V47.3053C228.572 44.9214 227.872 43.0608 226.471 41.7235C225.13 40.3862 223.292 39.7175 220.958 39.7175C218.683 39.7175 216.816 40.4153 215.357 41.8107C213.957 43.2061 213.257 45.0377 213.257 47.3053V62.7423C213.257 64.0796 213.198 65.0971 213.082 65.7948C213.023 66.4344 212.761 67.1612 212.294 67.9752C211.536 69.5451 209.289 70.33 205.555 70.33C201.88 70.33 199.634 69.5451 198.817 67.9752C198.408 67.1031 198.146 66.3472 198.029 65.7076C197.971 65.0099 197.942 63.9924 197.942 62.6551V31.781C197.942 30.5018 197.971 29.5425 198.029 28.9029C198.146 28.2052 198.438 27.4493 198.904 26.6353C199.721 25.1817 201.967 24.4549 205.643 24.4549C209.202 24.4549 211.39 25.1236 212.207 26.4609C212.79 27.4493 213.082 28.6412 213.082 30.0367C213.315 29.6297 213.84 29.0482 214.657 28.2924C215.474 27.5365 216.261 26.926 217.02 26.4609C219.004 25.1236 221.191 24.4549 223.583 24.4549Z" fill="url(#paint4_linear)"/>
<path d="M276.939 39.892L271.251 39.5431V51.5788C271.251 53.1487 271.484 54.2825 271.951 54.9802C272.476 55.6779 273.409 56.0268 274.751 56.0268C276.152 56.0268 277.202 56.0849 277.902 56.2012C278.66 56.2593 279.448 56.521 280.265 56.9861C281.607 57.742 282.278 59.6898 282.278 62.8295C282.278 66.4926 281.461 68.7311 279.827 69.5451C278.952 69.9521 278.164 70.2137 277.464 70.33C276.823 70.3882 275.86 70.4172 274.576 70.4172C268.509 70.4172 263.9 69.0509 260.749 66.3181C257.599 63.5854 256.023 58.963 256.023 52.4509V39.5431C254.915 39.7175 253.719 39.8048 252.435 39.8048C251.152 39.8048 250.072 39.3105 249.197 38.3221C248.38 37.3337 247.972 35.6475 247.972 33.2636C247.972 30.8797 248.118 29.1645 248.41 28.1179C248.701 27.0132 249.11 26.2283 249.635 25.7631C250.568 25.0073 251.735 24.6293 253.135 24.6293L256.023 24.9782V15.995C256.023 14.6577 256.052 13.6693 256.111 13.0297C256.227 12.3902 256.519 11.6924 256.986 10.9366C257.744 9.48299 259.991 8.7562 263.725 8.7562C267.692 8.7562 270.055 9.83185 270.813 11.9832C271.105 12.9134 271.251 14.3961 271.251 16.4311V24.9782C273.818 24.7456 275.743 24.6293 277.027 24.6293C278.369 24.6293 279.36 24.6875 280.002 24.8038C280.702 24.8619 281.49 25.1236 282.365 25.5887C283.882 26.3446 284.641 28.5831 284.641 32.3043C284.641 35.9673 283.853 38.2058 282.278 39.0198C281.402 39.4268 280.615 39.6885 279.915 39.8048C279.273 39.8629 278.281 39.892 276.939 39.892Z" fill="url(#paint5_linear)"/>
<path d="M303.038 56.0268C304.029 57.0152 304.525 59.0502 304.525 62.1318V62.4807C304.525 63.8761 304.467 64.9227 304.35 65.6204C304.292 66.26 304 67.0449 303.475 67.9752C302.6 69.6614 300.383 70.5045 296.824 70.5045C293.324 70.5045 290.99 69.9521 289.823 68.8474C288.714 67.7427 288.16 65.6495 288.16 62.5679V62.219C288.16 60.8817 288.189 59.8642 288.248 59.1665C288.364 58.4688 288.656 57.6838 289.123 56.8117C289.998 55.0674 292.186 54.1952 295.686 54.1952C299.245 54.1952 301.696 54.8057 303.038 56.0268Z" fill="url(#paint6_linear)"/>
<path d="M335.532 24.5421C340.725 24.5421 345.48 26.8388 349.797 31.4321C354.173 36.0254 356.361 41.3746 356.361 47.4797C356.361 53.5266 354.202 58.8467 349.885 63.44C345.567 67.9752 340.929 70.2428 335.97 70.2428C331.011 70.2428 327.481 68.8474 325.38 66.0565C324.914 68.9055 322.405 70.33 317.854 70.33C314.179 70.33 311.932 69.5451 311.116 67.9752C310.707 67.1031 310.445 66.3472 310.328 65.7076C310.27 65.0099 310.241 63.9924 310.241 62.6551V10.5877C310.241 9.25041 310.27 8.26198 310.328 7.6224C310.445 6.92468 310.707 6.16881 311.116 5.35481C311.932 3.78494 314.208 3 317.942 3C321.617 3 323.834 3.78494 324.593 5.35481C325.06 6.22696 325.322 7.0119 325.38 7.70961C325.497 8.34919 325.556 9.33763 325.556 10.6749V28.8157C327.889 25.9666 331.215 24.5421 335.532 24.5421ZM327.831 52.7126C329.289 54.2825 331.098 55.0674 333.257 55.0674C335.415 55.0674 337.253 54.2825 338.77 52.7126C340.287 51.1427 341.046 49.3984 341.046 47.4797C341.046 45.5609 340.345 43.8166 338.945 42.2468C337.545 40.6188 335.678 39.8048 333.344 39.8048C331.011 39.8048 329.144 40.6188 327.743 42.2468C326.401 43.8748 325.731 45.6482 325.731 47.5669C325.731 49.4275 326.431 51.1427 327.831 52.7126Z" fill="url(#paint7_linear)"/>
<path d="M391.961 29.3389C392.311 26.0829 394.616 24.4549 398.875 24.4549C401.15 24.4549 402.842 24.6293 403.951 24.9782C405.059 25.3271 405.818 25.9376 406.226 26.8097C406.693 27.6819 406.955 28.4668 407.014 29.1645C407.13 29.8041 407.189 30.7925 407.189 32.1298V62.6551C407.189 63.9924 407.13 65.0099 407.014 65.7076C406.955 66.3472 406.722 67.1031 406.314 67.9752C405.497 69.4869 403.484 70.2428 400.275 70.2428C397.125 70.2428 394.995 69.8649 393.887 69.109C392.836 68.295 392.224 67.1321 392.049 65.6204C389.89 68.702 386.273 70.2428 381.197 70.2428C376.179 70.2428 371.512 67.9462 367.195 63.3528C362.877 58.7595 360.719 53.4394 360.719 47.3925C360.719 41.2874 362.877 35.9673 367.195 31.4321C371.57 26.8388 376.354 24.5421 381.547 24.5421C383.531 24.5421 385.339 24.891 386.973 25.5887C388.606 26.2864 389.744 26.9551 390.386 27.5946C391.028 28.1761 391.553 28.7575 391.961 29.3389ZM376.034 47.4797C376.034 49.3984 376.792 51.1427 378.309 52.7126C379.826 54.2243 381.664 54.9802 383.822 54.9802C385.981 54.9802 387.76 54.1952 389.161 52.6254C390.619 51.0555 391.349 49.3403 391.349 47.4797C391.349 45.5609 390.648 43.7876 389.248 42.1596C387.906 40.5315 386.069 39.7175 383.735 39.7175C381.459 39.7175 379.592 40.5315 378.134 42.1596C376.734 43.7876 376.034 45.5609 376.034 47.4797Z" fill="url(#paint8_linear)"/>
<path d="M439.456 24.5421C444.648 24.5421 449.403 26.8388 453.72 31.4321C458.096 36.0254 460.284 41.3746 460.284 47.4797C460.284 53.5266 458.125 58.8467 453.808 63.44C449.491 67.9752 444.852 70.2428 439.893 70.2428C434.934 70.2428 431.404 68.8474 429.304 66.0565C428.837 68.9055 426.328 70.33 421.778 70.33C418.102 70.33 415.856 69.5451 415.039 67.9752C414.631 67.1031 414.368 66.3472 414.251 65.7076C414.193 65.0099 414.164 63.9924 414.164 62.6551V10.5877C414.164 9.25041 414.193 8.26198 414.251 7.6224C414.368 6.92468 414.631 6.16881 415.039 5.35481C415.856 3.78494 418.131 3 421.865 3C425.541 3 427.758 3.78494 428.516 5.35481C428.983 6.22696 429.246 7.0119 429.304 7.70961C429.421 8.34919 429.479 9.33763 429.479 10.6749V28.8157C431.813 25.9666 435.138 24.5421 439.456 24.5421ZM431.754 52.7126C433.213 54.2825 435.021 55.0674 437.18 55.0674C439.339 55.0674 441.177 54.2825 442.694 52.7126C444.21 51.1427 444.969 49.3984 444.969 47.4797C444.969 45.5609 444.269 43.8166 442.869 42.2468C441.468 40.6188 439.601 39.8048 437.268 39.8048C434.934 39.8048 433.067 40.6188 431.667 42.2468C430.325 43.8748 429.654 45.6482 429.654 47.5669C429.654 49.4275 430.354 51.1427 431.754 52.7126Z" fill="url(#paint9_linear)"/>
<path d="M508.837 24.9782C512.279 26.4899 514 28.3214 514 30.4727C514 31.5193 513.767 32.5078 513.3 33.4381C512.833 34.3684 512.6 34.8626 512.6 34.9207L489.671 86.0287C489.204 87.1335 488.796 87.9765 488.446 88.558C488.154 89.1394 487.658 89.6918 486.958 90.2151C486.258 90.7383 485.383 91 484.333 91C483.282 91 481.736 90.5639 479.694 89.6918C476.252 88.18 474.531 86.3776 474.531 84.2844C474.531 82.889 477.331 76.2316 482.932 64.3122L465.517 35.0951C464.35 33.1764 463.767 31.7519 463.767 30.8216C463.767 28.961 465.342 27.1004 468.493 25.2398C470.476 24.077 472.022 23.4955 473.131 23.4955C474.239 23.4955 475.144 23.7281 475.844 24.1933C476.544 24.6584 477.04 25.1526 477.331 25.6759C477.682 26.1411 479.286 28.8447 482.145 33.7869C485.062 38.671 487.833 43.2352 490.459 47.4797C490.75 46.5494 492.326 42.9736 495.184 36.7522C498.043 30.4727 499.56 27.1295 499.735 26.7225C499.969 26.3155 500.319 25.8213 500.785 25.2398C501.544 24.2514 502.594 23.7572 503.936 23.7572C505.336 23.7572 506.97 24.1642 508.837 24.9782Z" fill="url(#paint10_linear)"/>
<defs>
<linearGradient id="paint0_linear" x1="185.449" y1="33.9239" x2="198.73" y2="119.893" gradientUnits="userSpaceOnUse">
<stop stop-color="#FF9CAA"/>
<stop offset="1" stop-color="#FFAF96"/>
</linearGradient>
<linearGradient id="paint1_linear" x1="185.449" y1="33.9239" x2="198.73" y2="119.893" gradientUnits="userSpaceOnUse">
<stop stop-color="#FF9CAA"/>
<stop offset="1" stop-color="#FFAF96"/>
</linearGradient>
<linearGradient id="paint2_linear" x1="185.449" y1="33.9239" x2="198.73" y2="119.893" gradientUnits="userSpaceOnUse">
<stop stop-color="#FF9CAA"/>
<stop offset="1" stop-color="#FFAF96"/>
</linearGradient>
<linearGradient id="paint3_linear" x1="185.449" y1="33.9239" x2="198.73" y2="119.893" gradientUnits="userSpaceOnUse">
<stop stop-color="#FF9CAA"/>
<stop offset="1" stop-color="#FFAF96"/>
</linearGradient>
<linearGradient id="paint4_linear" x1="185.449" y1="33.9239" x2="198.73" y2="119.893" gradientUnits="userSpaceOnUse">
<stop stop-color="#FF9CAA"/>
<stop offset="1" stop-color="#FFAF96"/>
</linearGradient>
<linearGradient id="paint5_linear" x1="185.449" y1="33.9239" x2="198.73" y2="119.893" gradientUnits="userSpaceOnUse">
<stop stop-color="#FF9CAA"/>
<stop offset="1" stop-color="#FFAF96"/>
</linearGradient>
<linearGradient id="paint6_linear" x1="185.449" y1="33.9239" x2="198.73" y2="119.893" gradientUnits="userSpaceOnUse">
<stop stop-color="#FF9CAA"/>
<stop offset="1" stop-color="#FFAF96"/>
</linearGradient>
<linearGradient id="paint7_linear" x1="185.449" y1="33.9239" x2="198.73" y2="119.893" gradientUnits="userSpaceOnUse">
<stop stop-color="#FF9CAA"/>
<stop offset="1" stop-color="#FFAF96"/>
</linearGradient>
<linearGradient id="paint8_linear" x1="185.449" y1="33.9239" x2="198.73" y2="119.893" gradientUnits="userSpaceOnUse">
<stop stop-color="#FF9CAA"/>
<stop offset="1" stop-color="#FFAF96"/>
</linearGradient>
<linearGradient id="paint9_linear" x1="185.449" y1="33.9239" x2="198.73" y2="119.893" gradientUnits="userSpaceOnUse">
<stop stop-color="#FF9CAA"/>
<stop offset="1" stop-color="#FFAF96"/>
</linearGradient>
<linearGradient id="paint10_linear" x1="185.449" y1="33.9239" x2="198.73" y2="119.893" gradientUnits="userSpaceOnUse">
<stop stop-color="#FF9CAA"/>
<stop offset="1" stop-color="#FFAF96"/>
</linearGradient>
</defs>
</svg>
