<svg width="190" height="160" viewBox="0 0 190 160" fill="none" xmlns="http://www.w3.org/2000/svg">
<path fill-rule="evenodd" clip-rule="evenodd" d="M0 9.37768C0 4.19853 4.19853 0 9.37768 0H180.622C185.801 0 190 4.19853 190 9.37768V158.605C190 159.281 189.452 159.828 188.777 159.828C188.101 159.828 187.554 159.281 187.554 158.605V9.37768C187.554 5.54961 184.45 2.44635 180.622 2.44635H9.37768C5.54962 2.44635 2.44635 5.54962 2.44635 9.37768V158.605C2.44635 159.281 1.89872 159.828 1.22318 159.828C0.547635 159.828 0 159.281 0 158.605V9.37768Z" fill="#2B3864"/>
<path fill-rule="evenodd" clip-rule="evenodd" d="M16.6667 14.6102C15.0905 14.6102 13.8127 15.888 13.8127 17.4642L13.8126 158.605C13.8126 159.281 13.2649 159.828 12.5894 159.828C11.9138 159.828 11.3662 159.281 11.3662 158.605L11.3663 17.4642C11.3663 14.5369 13.7394 12.1638 16.6667 12.1638H64.0957C64.7712 12.1638 65.3189 12.7115 65.3189 13.387V23.6597C65.3189 25.236 66.5967 26.5138 68.173 26.5138H121.826C123.402 26.5138 124.68 25.236 124.68 23.6597V13.387C124.68 12.7115 125.228 12.1638 125.903 12.1638H173.332C176.259 12.1638 178.633 14.5369 178.633 17.4643L178.632 158.605C178.632 159.281 178.085 159.828 177.409 159.828C176.734 159.828 176.186 159.281 176.186 158.605L176.186 17.4642C176.186 15.888 174.908 14.6102 173.332 14.6102H127.126V23.6597C127.126 26.5871 124.753 28.9602 121.826 28.9602H68.173C65.2456 28.9602 62.8725 26.5871 62.8725 23.6597V14.6102H16.6667Z" fill="#2B3864"/>
<path fill-rule="evenodd" clip-rule="evenodd" d="M21.3125 21.2017C21.3125 20.5262 21.8601 19.9785 22.5357 19.9785H42.4277C43.1033 19.9785 43.6509 20.5262 43.6509 21.2017C43.6509 21.8772 43.1033 22.4249 42.4277 22.4249H22.5357C21.8601 22.4249 21.3125 21.8772 21.3125 21.2017Z" fill="#2B3864"/>
<path fill-rule="evenodd" clip-rule="evenodd" d="M154.874 21.2017C154.874 20.5262 155.422 19.9785 156.097 19.9785H167.464C168.14 19.9785 168.687 20.5262 168.687 21.2017C168.687 21.8772 168.14 22.4249 167.464 22.4249H156.097C155.422 22.4249 154.874 21.8772 154.874 21.2017Z" fill="#2B3864"/>
<path fill-rule="evenodd" clip-rule="evenodd" d="M138.534 21.2017C138.534 20.5262 139.082 19.9785 139.757 19.9785L147.572 19.9785C148.248 19.9785 148.795 20.5262 148.795 21.2017C148.795 21.8772 148.248 22.4249 147.572 22.4249L139.757 22.4249C139.082 22.4249 138.534 21.8772 138.534 21.2017Z" fill="#2B3864"/>
<path fill-rule="evenodd" clip-rule="evenodd" d="M45.6654 50.5579C38.4597 50.5579 32.6182 56.3994 32.6182 63.6051C32.6182 70.8109 38.4597 76.6523 45.6654 76.6523C52.8712 76.6523 58.7126 70.8109 58.7126 63.6051C58.7126 56.3994 52.8712 50.5579 45.6654 50.5579ZM30.1719 63.6051C30.1719 55.0483 37.1086 48.1116 45.6654 48.1116C54.2223 48.1116 61.159 55.0483 61.159 63.6051C61.159 72.162 54.2223 79.0987 45.6654 79.0987C37.1086 79.0987 30.1719 72.162 30.1719 63.6051Z" fill="#9C224E"/>
<path d="M38.0666 63.872L41.3475 65.0954L42.6264 69.2103C42.682 69.4884 43.0157 69.544 43.2381 69.3771L45.0731 67.8758C45.24 67.7089 45.518 67.7089 45.7404 67.8758L49.0212 70.2669C49.2437 70.4337 49.5773 70.3225 49.6329 70.0444L52.0796 58.3669C52.1352 58.0889 51.8572 57.8109 51.5792 57.9221L38.0666 63.1492C37.733 63.2604 37.733 63.7608 38.0666 63.872ZM42.4596 64.4837L48.91 60.5356C49.0212 60.48 49.1325 60.6468 49.0212 60.7024L43.7386 65.6515C43.5717 65.8183 43.4049 66.0407 43.4049 66.3188L43.2381 67.6533C43.2381 67.8201 42.9601 67.8758 42.9045 67.6533L42.2372 65.2066C42.0703 64.9286 42.1816 64.5949 42.4596 64.4837Z" fill="#9C224E"/>
<path fill-rule="evenodd" clip-rule="evenodd" d="M95.0004 50.5579C87.7946 50.5579 81.9532 56.3994 81.9532 63.6051C81.9532 70.8109 87.7946 76.6523 95.0004 76.6523C102.206 76.6523 108.048 70.8109 108.048 63.6051C108.048 56.3994 102.206 50.5579 95.0004 50.5579ZM79.5068 63.6051C79.5068 55.0483 86.4435 48.1116 95.0004 48.1116C103.557 48.1116 110.494 55.0483 110.494 63.6051C110.494 72.162 103.557 79.0987 95.0004 79.0987C86.4435 79.0987 79.5068 72.162 79.5068 63.6051Z" fill="#2B3864"/>
<path d="M101.422 59.1945C101.422 58.1261 100.479 57.1833 99.4107 57.1833H91.3032C90.2347 57.1833 89.292 58.1261 89.292 59.1945V67.302C89.292 68.3704 90.2347 69.3132 91.3032 69.3132H95.3883V64.7252H93.88V62.714H95.3883V61.897C95.3883 60.5143 96.3939 59.3202 97.6509 59.3202H99.285V61.3314H97.6509C97.4623 61.3314 97.2738 61.5199 97.2738 61.897V62.714H99.285V64.7252H97.2738V69.3132H99.4107C100.479 69.3132 101.422 68.3704 101.422 67.302V59.1945Z" fill="#2B3864"/>
<path fill-rule="evenodd" clip-rule="evenodd" d="M45.6654 97.8541C38.4597 97.8541 32.6182 103.696 32.6182 110.901C32.6182 118.107 38.4597 123.948 45.6654 123.948C52.8712 123.948 58.7126 118.107 58.7126 110.901C58.7126 103.696 52.8712 97.8541 45.6654 97.8541ZM30.1719 110.901C30.1719 102.344 37.1086 95.4077 45.6654 95.4077C54.2223 95.4077 61.159 102.344 61.159 110.901C61.159 119.458 54.2223 126.395 45.6654 126.395C37.1086 126.395 30.1719 119.458 30.1719 110.901Z" fill="#2B3864"/>
<path d="M53.2281 107.262C52.7287 107.476 52.1579 107.619 51.587 107.691C52.1579 107.334 52.6573 106.763 52.8714 106.121C52.3006 106.478 51.7298 106.692 51.0162 106.834C50.5168 106.264 49.7319 105.907 48.947 105.907C47.3773 105.907 46.0929 107.191 46.0929 108.761C46.0929 108.975 46.0929 109.189 46.1643 109.403C43.8097 109.26 41.6691 108.119 40.2421 106.406C40.028 106.834 39.8853 107.334 39.8853 107.833C39.8853 108.832 40.3848 109.688 41.1697 110.188C40.6702 110.188 40.2421 110.045 39.8853 109.831C39.8853 111.187 40.8843 112.4 42.1686 112.614C41.9545 112.685 41.6691 112.685 41.3837 112.685C41.1697 112.685 41.027 112.685 40.8129 112.614C41.1697 113.755 42.2399 114.612 43.5243 114.612C42.5254 115.397 41.3124 115.825 39.9567 115.825C39.7426 115.825 39.5286 115.825 39.2432 115.753C40.5275 116.538 42.0259 117.038 43.667 117.038C48.947 117.038 51.8011 112.685 51.8011 108.904V108.547C52.3719 108.333 52.8714 107.833 53.2281 107.262Z" fill="#2B3864"/>
<path fill-rule="evenodd" clip-rule="evenodd" d="M144.335 50.5579C137.13 50.5579 131.288 56.3994 131.288 63.6051C131.288 70.8109 137.13 76.6523 144.335 76.6523C151.541 76.6523 157.383 70.8109 157.383 63.6051C157.383 56.3994 151.541 50.5579 144.335 50.5579ZM128.842 63.6051C128.842 55.0483 135.779 48.1116 144.335 48.1116C152.892 48.1116 159.829 55.0483 159.829 63.6051C159.829 72.162 152.892 79.0987 144.335 79.0987C135.779 79.0987 128.842 72.162 128.842 63.6051Z" fill="#2B3864"/>
<path d="M149.991 57.9417C148.582 56.537 146.702 55.7566 144.718 55.7566C140.594 55.7566 137.252 59.0863 137.252 63.1965C137.252 64.4972 137.618 65.7979 138.244 66.8905L137.2 70.7405L141.168 69.6999C142.264 70.2723 143.465 70.5844 144.718 70.5844C148.843 70.5844 152.184 67.2547 152.184 63.1445C152.132 61.2195 151.401 59.3465 149.991 57.9417ZM148.321 65.8499C148.164 66.2661 147.433 66.6824 147.068 66.7344C146.754 66.7864 146.337 66.7864 145.919 66.6824C145.658 66.5783 145.293 66.4742 144.875 66.2661C142.995 65.4857 141.795 63.6127 141.69 63.4567C141.586 63.3526 140.907 62.4681 140.907 61.5316C140.907 60.5951 141.377 60.1789 141.534 59.9708C141.69 59.7627 141.899 59.7627 142.056 59.7627C142.16 59.7627 142.317 59.7627 142.421 59.7627C142.525 59.7627 142.682 59.7107 142.839 60.0749C142.995 60.4391 143.361 61.3756 143.413 61.4276C143.465 61.5316 143.465 61.6357 143.413 61.7397C143.361 61.8438 143.309 61.9479 143.204 62.0519C143.1 62.156 142.995 62.312 142.943 62.3641C142.839 62.4681 142.734 62.5722 142.839 62.7283C142.943 62.9364 143.309 63.5087 143.883 64.029C144.614 64.6533 145.188 64.8614 145.397 64.9655C145.606 65.0695 145.71 65.0175 145.815 64.9134C145.919 64.8094 146.285 64.3931 146.389 64.185C146.493 63.9769 146.65 64.029 146.807 64.081C146.963 64.133 147.903 64.6013 148.06 64.7053C148.268 64.8094 148.373 64.8614 148.425 64.9134C148.477 65.0695 148.477 65.4337 148.321 65.8499Z" fill="#2B3864"/>
<path fill-rule="evenodd" clip-rule="evenodd" d="M144.335 145.558C137.13 145.558 131.288 151.399 131.288 158.605C131.288 159.281 130.741 159.828 130.065 159.828C129.389 159.828 128.842 159.281 128.842 158.605C128.842 150.048 135.779 143.112 144.335 143.112C152.892 143.112 159.829 150.048 159.829 158.605C159.829 159.281 159.281 159.828 158.606 159.828C157.93 159.828 157.383 159.281 157.383 158.605C157.383 151.399 151.541 145.558 144.335 145.558Z" fill="#2B3864"/>
<path fill-rule="evenodd" clip-rule="evenodd" d="M95.4076 145.558C88.2018 145.558 82.3604 151.399 82.3604 158.605C82.3604 159.281 81.8128 159.828 81.1372 159.828C80.4617 159.828 79.9141 159.281 79.9141 158.605C79.9141 150.048 86.8508 143.112 95.4076 143.112C103.964 143.112 110.901 150.048 110.901 158.605C110.901 159.281 110.354 159.828 109.678 159.828C109.002 159.828 108.455 159.281 108.455 158.605C108.455 151.399 102.613 145.558 95.4076 145.558Z" fill="#2B3864"/>
<path fill-rule="evenodd" clip-rule="evenodd" d="M45.6654 145.558C38.4597 145.558 32.6182 151.399 32.6182 158.605C32.6182 159.281 32.0706 159.828 31.3951 159.828C30.7195 159.828 30.1719 159.281 30.1719 158.605C30.1719 150.048 37.1086 143.112 45.6654 143.112C54.2223 143.112 61.159 150.048 61.159 158.605C61.159 159.281 60.6114 159.828 59.9358 159.828C59.2603 159.828 58.7126 159.281 58.7126 158.605C58.7126 151.399 52.8712 145.558 45.6654 145.558Z" fill="#2B3864"/>
<path fill-rule="evenodd" clip-rule="evenodd" d="M95.0004 97.8541C87.7946 97.8541 81.9532 103.696 81.9532 110.901C81.9532 118.107 87.7946 123.948 95.0004 123.948C102.206 123.948 108.048 118.107 108.048 110.901C108.048 103.696 102.206 97.8541 95.0004 97.8541ZM79.5068 110.901C79.5068 102.344 86.4435 95.4077 95.0004 95.4077C103.557 95.4077 110.494 102.344 110.494 110.901C110.494 119.458 103.557 126.395 95.0004 126.395C86.4435 126.395 79.5068 119.458 79.5068 110.901Z" fill="#2B3864"/>
<path fill-rule="evenodd" clip-rule="evenodd" d="M88.4766 108.222V114.571C88.4766 115.697 89.3893 116.61 90.5152 116.61H99.4851C100.611 116.61 101.524 115.697 101.524 114.571V108.296L95.418 111.94C95.1583 112.095 94.8343 112.093 94.576 111.936L88.4766 108.222ZM89.0309 106.65C89.4027 106.255 89.9301 106.009 90.5152 106.009H99.4851C100.095 106.009 100.642 106.276 101.015 106.7L95.0043 110.287L89.0309 106.65Z" fill="#2B3864"/>
<path fill-rule="evenodd" clip-rule="evenodd" d="M144.335 97.8541C137.13 97.8541 131.288 103.696 131.288 110.901C131.288 118.107 137.13 123.948 144.335 123.948C151.541 123.948 157.383 118.107 157.383 110.901C157.383 103.696 151.541 97.8541 144.335 97.8541ZM128.842 110.901C128.842 102.344 135.779 95.4077 144.335 95.4077C152.892 95.4077 159.829 102.344 159.829 110.901C159.829 119.458 152.892 126.395 144.335 126.395C135.779 126.395 128.842 119.458 128.842 110.901Z" fill="#2B3864"/>
<path fill-rule="evenodd" clip-rule="evenodd" d="M139.195 106.448C139.007 106.636 138.835 106.867 138.723 107.068C138.583 107.314 138.48 107.583 138.418 107.863L138.385 108.033C137.874 110.625 138.523 112.943 140.665 115.07C142.07 116.465 143.136 117.039 144.595 117.248C144.832 117.282 145.079 117.308 145.372 117.329L145.977 117.366C146.314 117.383 146.876 117.411 147.067 117.422C147.32 117.437 147.654 117.388 148.103 117.283L148.171 117.263C148.563 117.125 148.921 116.9 149.221 116.6C150.318 115.502 150.318 113.722 149.221 112.623L149.123 112.53C148.063 111.565 146.441 111.556 145.371 112.508L145.244 112.623L144.566 113.302C144.418 113.451 144.184 113.471 144.012 113.35C143.654 113.098 142.705 112.168 142.473 111.851C142.347 111.679 142.365 111.441 142.516 111.29L143.113 110.692L143.164 110.651L143.24 110.58C143.254 110.567 143.268 110.553 143.282 110.54C144.41 109.41 144.41 107.578 143.282 106.448C142.153 105.318 140.323 105.318 139.195 106.448Z" fill="#2B3864"/>
</svg>
