<svg width="190" height="160" viewBox="0 0 190 160" fill="none" xmlns="http://www.w3.org/2000/svg">
<path fill-rule="evenodd" clip-rule="evenodd" d="M9.78613 27.6388C9.78613 25.6121 11.3758 23.9692 13.3367 23.9692L176.665 23.9692C178.626 23.9692 180.215 25.6121 180.215 27.6388C180.215 29.6654 178.626 31.3083 176.665 31.3083L13.3367 31.3083C11.3758 31.3083 9.78613 29.6654 9.78613 27.6388Z" fill="#2B3864"/>
<path d="M16.7325 13.0472C16.7325 15.0738 15.0862 16.7167 13.0552 16.7167C11.0243 16.7167 9.37793 15.0738 9.37793 13.0472C9.37793 11.0206 11.0243 9.37769 13.0552 9.37769C15.0862 9.37769 16.7325 11.0206 16.7325 13.0472Z" fill="#2B3864"/>
<path d="M29.5197 13.0472C29.5197 15.0738 27.8733 16.7167 25.8423 16.7167C23.8114 16.7167 22.165 15.0738 22.165 13.0472C22.165 11.0206 23.8114 9.37769 25.8423 9.37769C27.8733 9.37769 29.5197 11.0206 29.5197 13.0472Z" fill="#2B3864"/>
<path d="M42.3077 13.0472C42.3077 15.0738 40.6614 16.7167 38.6304 16.7167C36.5995 16.7167 34.9531 15.0738 34.9531 13.0472C34.9531 11.0206 36.5995 9.37769 38.6304 9.37769C40.6614 9.37769 42.3077 11.0206 42.3077 13.0472Z" fill="#2B3864"/>
<path fill-rule="evenodd" clip-rule="evenodd" d="M0 9.37768C0 4.19853 4.19853 0 9.37768 0H180.622C185.801 0 190 4.19853 190 9.37768V150.451C190 155.63 185.801 159.828 180.622 159.828H9.37768C4.19853 159.828 0 155.63 0 150.451V9.37768ZM9.37768 2.44635C5.54962 2.44635 2.44635 5.54962 2.44635 9.37768V150.451C2.44635 154.279 5.54961 157.382 9.37768 157.382H180.622C184.45 157.382 187.554 154.279 187.554 150.451V9.37768C187.554 5.54961 184.45 2.44635 180.622 2.44635H9.37768Z" fill="#2B3864"/>
<path fill-rule="evenodd" clip-rule="evenodd" d="M8.1543 38.3263C8.1543 36.5248 9.61465 35.0645 11.4161 35.0645H177.768C179.57 35.0645 181.03 36.5248 181.03 38.3263V143.927C181.03 146.854 178.657 149.228 175.729 149.228H13.4547C10.5274 149.228 8.1543 146.854 8.1543 143.927V38.3263ZM11.4161 37.5108C10.9657 37.5108 10.6006 37.8759 10.6006 38.3263V143.927C10.6006 145.503 11.8785 146.781 13.4547 146.781H175.729C177.306 146.781 178.583 145.503 178.583 143.927V38.3263C178.583 37.8759 178.218 37.5108 177.768 37.5108H11.4161Z" fill="#2B3864"/>
<path fill-rule="evenodd" clip-rule="evenodd" d="M25.8821 46.9623C26.0705 47.3714 25.8916 47.8557 25.4826 48.0441L20.9337 50.1392L25.4826 52.2342C25.8916 52.4226 26.0705 52.9069 25.8821 53.316C25.6937 53.725 25.2094 53.9039 24.8003 53.7155L18.6433 50.8798C18.3542 50.7467 18.1689 50.4575 18.1689 50.1392C18.1689 49.8208 18.3542 49.5316 18.6433 49.3985L24.8003 46.5628C25.2094 46.3744 25.6937 46.5533 25.8821 46.9623Z" fill="#2B3864"/>
<path fill-rule="evenodd" clip-rule="evenodd" d="M35.2936 46.9623C35.1053 47.3714 35.2841 47.8557 35.6932 48.0441L40.2421 50.1392L35.6932 52.2342C35.2841 52.4226 35.1053 52.9069 35.2936 53.316C35.482 53.725 35.9664 53.9039 36.3754 53.7155L42.5325 50.8798C42.8216 50.7467 43.0068 50.4575 43.0068 50.1392C43.0068 49.8208 42.8216 49.5316 42.5325 49.3985L36.3754 46.5628C35.9664 46.3744 35.482 46.5533 35.2936 46.9623Z" fill="#2B3864"/>
<path fill-rule="evenodd" clip-rule="evenodd" d="M32.7618 43.7014C33.1849 43.8556 33.4029 44.3236 33.2487 44.7467L29.4598 55.1443C29.3056 55.5675 28.8375 55.7855 28.4144 55.6313C27.9913 55.4771 27.7732 55.0091 27.9274 54.5859L31.7164 44.1883C31.8706 43.7652 32.3386 43.5472 32.7618 43.7014Z" fill="#2B3864"/>
<path fill-rule="evenodd" clip-rule="evenodd" d="M27.707 69.2801C27.707 68.6045 28.2547 68.0569 28.9302 68.0569H38.8762C39.5518 68.0569 40.0994 68.6045 40.0994 69.2801C40.0994 69.9556 39.5518 70.5032 38.8762 70.5032H28.9302C28.2547 70.5032 27.707 69.9556 27.707 69.2801Z" fill="#2B3864"/>
<path fill-rule="evenodd" clip-rule="evenodd" d="M34.8105 90.5481C34.8105 89.8726 35.3582 89.325 36.0337 89.325H63.0301C63.7056 89.325 64.2533 89.8726 64.2533 90.5481C64.2533 91.2237 63.7056 91.7713 63.0301 91.7713H36.0337C35.3582 91.7713 34.8105 91.2237 34.8105 90.5481Z" fill="#2B3864"/>
<path fill-rule="evenodd" clip-rule="evenodd" d="M41.915 111.816C41.915 111.14 42.4627 110.593 43.1382 110.593H78.6597C79.3353 110.593 79.8829 111.14 79.8829 111.816C79.8829 112.491 79.3353 113.039 78.6597 113.039H43.1382C42.4627 113.039 41.915 112.491 41.915 111.816Z" fill="#2B3864"/>
<path fill-rule="evenodd" clip-rule="evenodd" d="M34.8105 76.3694C34.8105 75.6939 35.3582 75.1462 36.0337 75.1462H99.9725C100.648 75.1462 101.196 75.6939 101.196 76.3694C101.196 77.045 100.648 77.5926 99.9725 77.5926H36.0337C35.3582 77.5926 34.8105 77.045 34.8105 76.3694Z" fill="#2B3864"/>
<path fill-rule="evenodd" clip-rule="evenodd" d="M145.965 48.5192C145.965 45.5596 148.423 43.2187 151.382 43.2187L167.458 43.2187C170.417 43.2187 172.875 45.5596 172.875 48.5192C172.875 51.4788 170.417 53.8196 167.458 53.8196L151.382 53.8196C148.423 53.8196 145.965 51.4788 145.965 48.5192ZM151.382 45.6651C149.708 45.6651 148.411 46.9752 148.411 48.5192C148.411 50.0632 149.708 51.3733 151.382 51.3733L167.458 51.3733C169.131 51.3733 170.428 50.0632 170.428 48.5192C170.428 46.9752 169.131 45.6651 167.458 45.6651L151.382 45.6651Z" fill="#9C224E"/>
<path fill-rule="evenodd" clip-rule="evenodd" d="M41.915 97.6372C41.915 96.9617 42.4627 96.4141 43.1382 96.4141H96.6887C97.3643 96.4141 97.9119 96.9617 97.9119 97.6372C97.9119 98.3128 97.3643 98.8604 96.6887 98.8604H43.1382C42.4627 98.8604 41.915 98.3128 41.915 97.6372Z" fill="#2B3864"/>
<path fill-rule="evenodd" clip-rule="evenodd" d="M41.915 118.905C41.915 118.23 42.4627 117.682 43.1382 117.682H119.154C119.83 117.682 120.377 118.23 120.377 118.905C120.377 119.581 119.83 120.128 119.154 120.128H43.1382C42.4627 120.128 41.915 119.581 41.915 118.905Z" fill="#2B3864"/>
<path fill-rule="evenodd" clip-rule="evenodd" d="M34.8105 83.459C34.8105 82.7835 35.3582 82.2358 36.0337 82.2358H108.498C109.173 82.2358 109.721 82.7835 109.721 83.459C109.721 84.1346 109.173 84.6822 108.498 84.6822H36.0337C35.3582 84.6822 34.8105 84.1346 34.8105 83.459Z" fill="#2B3864"/>
<path fill-rule="evenodd" clip-rule="evenodd" d="M34.8105 104.727C34.8105 104.051 35.3582 103.503 36.0337 103.503H48.111C48.7866 103.503 49.3342 104.051 49.3342 104.727C49.3342 105.402 48.7866 105.95 48.111 105.95H36.0337C35.3582 105.95 34.8105 105.402 34.8105 104.727Z" fill="#2B3864"/>
<path fill-rule="evenodd" clip-rule="evenodd" d="M41.915 125.994C41.915 125.319 42.4627 124.771 43.1382 124.771H102.814C103.49 124.771 104.038 125.319 104.038 125.994C104.038 126.67 103.49 127.218 102.814 127.218H43.1382C42.4627 127.218 41.915 126.67 41.915 125.994Z" fill="#2B3864"/>
<path fill-rule="evenodd" clip-rule="evenodd" d="M41.915 133.084C41.915 132.408 42.4627 131.861 43.1382 131.861H91.4475C92.123 131.861 92.6707 132.408 92.6707 133.084C92.6707 133.76 92.123 134.307 91.4475 134.307H43.1382C42.4627 134.307 41.915 133.76 41.915 133.084Z" fill="#2B3864"/>
</svg>
