<svg width="190" height="160" viewBox="0 0 190 160" fill="none" xmlns="http://www.w3.org/2000/svg">
<path fill-rule="evenodd" clip-rule="evenodd" d="M0 9.37768C0 4.19853 4.19853 0 9.37768 0H180.622C185.801 0 190 4.19853 190 9.37768V150.451C190 155.63 185.801 159.828 180.622 159.828H9.37768C4.19853 159.828 0 155.63 0 150.451V9.37768ZM9.37768 2.44635C5.54962 2.44635 2.44635 5.54962 2.44635 9.37768V150.451C2.44635 154.279 5.54961 157.382 9.37768 157.382H180.622C184.45 157.382 187.554 154.279 187.554 150.451V9.37768C187.554 5.54961 184.45 2.44635 180.622 2.44635H9.37768Z" fill="#2B3864"/>
<path fill-rule="evenodd" clip-rule="evenodd" d="M66.0508 134.957C66.0508 130.424 69.8106 126.802 74.383 126.802L115.616 126.802C120.188 126.802 123.948 130.424 123.948 134.957C123.948 139.49 120.188 143.112 115.616 143.112L74.383 143.112C69.8106 143.112 66.0508 139.49 66.0508 134.957ZM74.383 129.249C71.103 129.249 68.4971 131.833 68.4971 134.957C68.4971 138.081 71.103 140.665 74.383 140.665L115.616 140.665C118.896 140.665 121.501 138.081 121.501 134.957C121.501 131.833 118.896 129.249 115.616 129.249L74.383 129.249Z" fill="#9C224E"/>
<path d="M180.622 13.0472C180.622 15.0738 178.979 16.7167 176.953 16.7167C174.926 16.7167 173.283 15.0738 173.283 13.0472C173.283 11.0206 174.926 9.37769 176.953 9.37769C178.979 9.37769 180.622 11.0206 180.622 13.0472Z" fill="#2B3864"/>
<path fill-rule="evenodd" clip-rule="evenodd" d="M23.6484 54.6352C23.6484 50.3155 27.2663 46.8884 31.6353 46.8884H158.365C162.734 46.8884 166.352 50.3155 166.352 54.6352C166.352 58.9549 162.734 62.382 158.365 62.382H31.6353C27.2663 62.382 23.6484 58.9549 23.6484 54.6352ZM31.6353 49.3348C28.5333 49.3348 26.0948 51.7492 26.0948 54.6352C26.0948 57.5213 28.5333 59.9356 31.6353 59.9356H158.365C161.467 59.9356 163.906 57.5213 163.906 54.6352C163.906 51.7492 161.467 49.3348 158.365 49.3348H31.6353Z" fill="#2B3864"/>
<path fill-rule="evenodd" clip-rule="evenodd" d="M30.1719 55.6543C30.1719 54.8662 30.8066 54.2273 31.5896 54.2273H85.0203C85.8033 54.2273 86.438 54.8662 86.438 55.6543C86.438 56.4425 85.8033 57.0814 85.0203 57.0814H31.5896C30.8066 57.0814 30.1719 56.4425 30.1719 55.6543Z" fill="#2B3864"/>
<path fill-rule="evenodd" clip-rule="evenodd" d="M74.2061 25.6868C74.2061 24.1106 75.4743 22.8328 77.0387 22.8328H125.193C126.758 22.8328 128.026 24.1106 128.026 25.6868C128.026 27.2631 126.758 28.5409 125.193 28.5409H77.0387C75.4743 28.5409 74.2061 27.2631 74.2061 25.6868Z" fill="#2B3864"/>
<path fill-rule="evenodd" clip-rule="evenodd" d="M61.9746 25.6868C61.9746 24.1106 63.2428 22.8328 64.8072 22.8328H68.1119C69.6764 22.8328 70.9446 24.1106 70.9446 25.6868C70.9446 27.2631 69.6764 28.5409 68.1119 28.5409H64.8072C63.2428 28.5409 61.9746 27.2631 61.9746 25.6868Z" fill="#2B3864"/>
<path fill-rule="evenodd" clip-rule="evenodd" d="M23.6484 79.914C23.6484 75.5943 27.2663 72.1672 31.6353 72.1672H158.365C162.734 72.1672 166.352 75.5943 166.352 79.914C166.352 84.2337 162.734 87.6608 158.365 87.6608H31.6353C27.2663 87.6608 23.6484 84.2337 23.6484 79.914ZM31.6353 74.6136C28.5333 74.6136 26.0948 77.028 26.0948 79.914C26.0948 82.8001 28.5333 85.2144 31.6353 85.2144H158.365C161.467 85.2144 163.906 82.8001 163.906 79.914C163.906 77.028 161.467 74.6136 158.365 74.6136H31.6353Z" fill="#2B3864"/>
<path fill-rule="evenodd" clip-rule="evenodd" d="M30.1719 80.9334C30.1719 80.1453 30.8111 79.5063 31.5996 79.5063H71.1475C71.9361 79.5063 72.5753 80.1453 72.5753 80.9334C72.5753 81.7215 71.9361 82.3604 71.1475 82.3604H31.5996C30.8111 82.3604 30.1719 81.7215 30.1719 80.9334Z" fill="#2B3864"/>
<path fill-rule="evenodd" clip-rule="evenodd" d="M23.6484 105.193C23.6484 100.874 27.2663 97.4465 31.6353 97.4465H158.365C162.734 97.4465 166.352 100.874 166.352 105.193C166.352 109.513 162.734 112.94 158.365 112.94H31.6353C27.2663 112.94 23.6484 109.513 23.6484 105.193ZM31.6353 99.8929C28.5333 99.8929 26.0948 102.307 26.0948 105.193C26.0948 108.079 28.5333 110.494 31.6353 110.494H158.365C161.467 110.494 163.906 108.079 163.906 105.193C163.906 102.307 161.467 99.8929 158.365 99.8929H31.6353Z" fill="#2B3864"/>
<path fill-rule="evenodd" clip-rule="evenodd" d="M30.1719 106.212C30.1719 105.424 30.805 104.785 31.586 104.785H96.4402C97.2212 104.785 97.8543 105.424 97.8543 106.212C97.8543 107.001 97.2212 107.639 96.4402 107.639H31.586C30.805 107.639 30.1719 107.001 30.1719 106.212Z" fill="#2B3864"/>
</svg>
