<svg width="190" height="160" viewBox="0 0 190 160" fill="none" xmlns="http://www.w3.org/2000/svg">
<path fill-rule="evenodd" clip-rule="evenodd" d="M9.78613 27.6388C9.78613 25.6121 11.3758 23.9692 13.3367 23.9692L176.665 23.9692C178.626 23.9692 180.215 25.6121 180.215 27.6388C180.215 29.6654 178.626 31.3083 176.665 31.3083L13.3367 31.3083C11.3758 31.3083 9.78613 29.6654 9.78613 27.6388Z" fill="#2B3864"/>
<path d="M16.7325 13.0472C16.7325 15.0738 15.0862 16.7167 13.0552 16.7167C11.0243 16.7167 9.37793 15.0738 9.37793 13.0472C9.37793 11.0206 11.0243 9.37769 13.0552 9.37769C15.0862 9.37769 16.7325 11.0206 16.7325 13.0472Z" fill="#2B3864"/>
<path d="M29.5197 13.0472C29.5197 15.0738 27.8733 16.7167 25.8423 16.7167C23.8114 16.7167 22.165 15.0738 22.165 13.0472C22.165 11.0206 23.8114 9.37769 25.8423 9.37769C27.8733 9.37769 29.5197 11.0206 29.5197 13.0472Z" fill="#2B3864"/>
<path d="M42.3077 13.0472C42.3077 15.0738 40.6614 16.7167 38.6304 16.7167C36.5995 16.7167 34.9531 15.0738 34.9531 13.0472C34.9531 11.0206 36.5995 9.37769 38.6304 9.37769C40.6614 9.37769 42.3077 11.0206 42.3077 13.0472Z" fill="#2B3864"/>
<path fill-rule="evenodd" clip-rule="evenodd" d="M0 9.37768C0 4.19853 4.19853 0 9.37768 0H180.622C185.801 0 190 4.19853 190 9.37768V150.451C190 155.63 185.801 159.828 180.622 159.828H9.37768C4.19853 159.828 0 155.63 0 150.451V9.37768ZM9.37768 2.44635C5.54962 2.44635 2.44635 5.54962 2.44635 9.37768V150.451C2.44635 154.279 5.54961 157.382 9.37768 157.382H180.622C184.45 157.382 187.554 154.279 187.554 150.451V9.37768C187.554 5.54961 184.45 2.44635 180.622 2.44635H9.37768Z" fill="#2B3864"/>
<path fill-rule="evenodd" clip-rule="evenodd" d="M8.1543 38.3263C8.1543 36.5248 9.61465 35.0645 11.4161 35.0645H177.768C179.57 35.0645 181.03 36.5248 181.03 38.3263V143.927C181.03 146.854 178.657 149.228 175.729 149.228H13.4547C10.5274 149.228 8.1543 146.854 8.1543 143.927V38.3263ZM11.4161 37.5108C10.9657 37.5108 10.6006 37.8759 10.6006 38.3263V143.927C10.6006 145.503 11.8785 146.781 13.4547 146.781H175.729C177.306 146.781 178.583 145.503 178.583 143.927V38.3263C178.583 37.8759 178.218 37.5108 177.768 37.5108H11.4161Z" fill="#2B3864"/>
<path fill-rule="evenodd" clip-rule="evenodd" d="M125.626 55.5592C125.985 55.3425 126.43 55.3246 126.805 55.5117L155.222 69.6903C155.615 69.8864 155.873 70.2781 155.897 70.7165C155.922 71.155 155.709 71.573 155.34 71.8116L129.055 88.8259C128.688 89.0633 128.222 89.087 127.833 88.8882L98.7056 74.0007C98.3103 73.7987 98.0556 73.3985 98.0398 72.9549C98.0241 72.5113 98.2499 72.094 98.6299 71.8646L125.626 55.5592ZM126.315 58.0013L101.776 72.8225L128.318 86.3886L152.212 70.9225L126.315 58.0013Z" fill="#2B3864"/>
<path d="M110.186 78.4943L113.827 80.3552L117.467 82.2162L144.02 65.4677L140.468 63.6954L136.915 61.9231L110.186 78.4943Z" fill="#2B3864"/>
<path fill-rule="evenodd" clip-rule="evenodd" d="M136.271 60.8835C136.631 60.66 137.082 60.6393 137.461 60.8286L144.565 64.3733C144.961 64.5705 145.219 64.9655 145.241 65.4067C145.263 65.8479 145.046 66.2667 144.672 66.5023L118.12 83.2507C117.754 83.4811 117.295 83.5019 116.91 83.3053L109.628 79.5835C109.235 79.3826 108.981 78.9857 108.963 78.5447C108.945 78.1038 109.166 77.6872 109.541 77.4547L136.271 60.8835ZM136.98 63.3223L112.672 78.3917L117.404 80.8101L141.529 65.5923L136.98 63.3223Z" fill="#2B3864"/>
<path fill-rule="evenodd" clip-rule="evenodd" d="M98.6238 71.8683C98.987 71.646 99.4397 71.6287 99.8189 71.8225L128.947 86.71C129.356 86.9191 129.613 87.3397 129.613 87.7991V120.41C129.613 120.836 129.392 121.231 129.028 121.453C128.665 121.675 128.212 121.693 127.833 121.499L98.7056 106.611C98.2965 106.402 98.0391 105.982 98.0391 105.522V72.9117C98.0391 72.4858 98.2605 72.0906 98.6238 71.8683ZM100.485 74.9105V104.774L127.167 118.411V88.5476L100.485 74.9105Z" fill="#2B3864"/>
<path fill-rule="evenodd" clip-rule="evenodd" d="M155.261 69.7102C155.654 69.9243 155.899 70.3366 155.899 70.7847V83.0137C155.899 83.6892 155.352 84.2369 154.676 84.2369C154.001 84.2369 153.453 83.6892 153.453 83.0137V73.0335L129.613 88.4643V118.161L132.654 116.193C133.221 115.826 133.979 115.988 134.346 116.555C134.713 117.122 134.551 117.879 133.983 118.246L129.055 121.436C128.679 121.68 128.199 121.698 127.806 121.484C127.412 121.27 127.167 120.858 127.167 120.41V87.799C127.167 87.3841 127.377 86.9975 127.726 86.7721L154.011 69.7579C154.388 69.5144 154.867 69.4961 155.261 69.7102Z" fill="#2B3864"/>
<path d="M110.186 84.9631L110.186 78.4941L113.827 80.3551L117.467 82.216V88.685C117.467 88.685 117.467 90.9062 114.163 89.4957C110.859 88.0851 110.186 84.9631 110.186 84.9631Z" fill="#2B3864"/>
<path fill-rule="evenodd" clip-rule="evenodd" d="M109.547 77.4509C109.91 77.2286 110.363 77.2112 110.742 77.405L118.024 81.1269C118.433 81.336 118.69 81.7566 118.69 82.216V88.685H117.467C118.69 88.685 118.69 88.6859 118.69 88.6868L118.69 88.6887L118.69 88.6926L118.69 88.7011C118.69 88.7071 118.69 88.7138 118.69 88.721C118.689 88.7354 118.689 88.7523 118.688 88.7715C118.686 88.8097 118.682 88.8575 118.676 88.913C118.664 89.0229 118.64 89.1697 118.594 89.3369C118.504 89.6633 118.309 90.1282 117.881 90.5206C116.927 91.3959 115.483 91.3891 113.683 90.6206C111.743 89.7927 110.571 88.4563 109.89 87.3356C109.55 86.7769 109.33 86.2678 109.193 85.892C109.124 85.7035 109.076 85.5469 109.043 85.4322C109.027 85.3748 109.015 85.3277 109.006 85.2921C109.002 85.2743 108.998 85.2594 108.996 85.2475L108.992 85.2319L108.991 85.2259L108.99 85.2233L108.99 85.2221C108.99 85.2216 108.99 85.221 110.185 84.9631L108.99 85.221C108.971 85.1363 108.962 85.0499 108.962 84.9632L108.962 78.4942C108.962 78.0683 109.183 77.6731 109.547 77.4509ZM111.408 84.8045C111.426 84.8655 111.453 84.9503 111.491 85.054C111.584 85.3076 111.738 85.6672 111.98 86.0653C112.462 86.8582 113.278 87.7881 114.643 88.3707C115.7 88.8219 116.117 88.7526 116.227 88.7122C116.23 88.7056 116.233 88.6961 116.237 88.6832C116.24 88.6698 116.243 88.6581 116.244 88.6502V82.9645L111.408 80.4931L111.408 84.8045ZM116.259 88.6957C116.259 88.6965 116.253 88.7009 116.24 88.7068C116.252 88.6979 116.258 88.6949 116.259 88.6957Z" fill="#2B3864"/>
<path fill-rule="evenodd" clip-rule="evenodd" d="M152.082 88.8841C143.074 88.8841 135.773 96.1859 135.773 105.193C135.773 114.2 143.074 121.502 152.082 121.502C161.089 121.502 168.391 114.2 168.391 105.193C168.391 96.1859 161.089 88.8841 152.082 88.8841ZM133.326 105.193C133.326 94.8348 141.723 86.4377 152.082 86.4377C162.44 86.4377 170.837 94.8348 170.837 105.193C170.837 115.551 162.44 123.948 152.082 123.948C141.723 123.948 133.326 115.551 133.326 105.193Z" fill="#9C224E"/>
<path fill-rule="evenodd" clip-rule="evenodd" d="M157.224 97.3758C158.83 95.5679 161.598 95.4044 163.406 97.0107C165.214 98.617 165.377 101.385 163.771 103.193L154.425 113.712C153.617 114.622 152.466 115.154 151.25 115.181C150.033 115.209 148.86 114.728 148.011 113.856L142.63 108.319C140.945 106.585 140.984 103.813 142.719 102.127C144.453 100.441 147.225 100.481 148.911 102.215L151.008 104.373L157.224 97.3758ZM161.781 98.8395C160.983 98.1306 159.762 98.2028 159.053 99.0007L151.962 106.981C151.736 107.236 151.415 107.384 151.075 107.392C150.735 107.399 150.408 107.265 150.171 107.021L147.156 103.92C146.413 103.155 145.189 103.137 144.424 103.881C143.658 104.625 143.641 105.849 144.385 106.614L149.766 112.151C150.14 112.536 150.658 112.748 151.195 112.736C151.732 112.724 152.24 112.489 152.596 112.087L161.942 101.568C162.651 100.77 162.579 99.5484 161.781 98.8395Z" fill="#9C224E"/>
<path fill-rule="evenodd" clip-rule="evenodd" d="M68.8991 60.7176L76.6833 68.5019C77.161 68.9796 77.161 69.754 76.6833 70.2317L68.8991 78.016C68.4214 78.4936 67.6469 78.4936 67.1692 78.016C66.6916 77.5383 66.6916 76.7638 67.1692 76.2861L72.8654 70.59H20.4048C19.7293 70.59 19.1816 70.0423 19.1816 69.3668C19.1816 68.6913 19.7293 68.1436 20.4048 68.1436H72.8654L67.1692 62.4475C66.6916 61.9698 66.6916 61.1953 67.1692 60.7176C67.6469 60.24 68.4214 60.24 68.8991 60.7176Z" fill="#2B3864"/>
<path fill-rule="evenodd" clip-rule="evenodd" d="M68.8991 84.1122L76.6833 91.8964C77.161 92.3741 77.161 93.1486 76.6833 93.6262L68.8991 101.41C68.4214 101.888 67.6469 101.888 67.1692 101.41C66.6916 100.933 66.6916 100.158 67.1692 99.6807L72.8654 93.9845H20.4048C19.7293 93.9845 19.1816 93.4369 19.1816 92.7613C19.1816 92.0858 19.7293 91.5382 20.4048 91.5382H72.8654L67.1692 85.842C66.6916 85.3643 66.6916 84.5898 67.1692 84.1122C67.6469 83.6345 68.4214 83.6345 68.8991 84.1122Z" fill="#2B3864"/>
<path fill-rule="evenodd" clip-rule="evenodd" d="M68.8991 107.507L76.6833 115.291C77.161 115.769 77.161 116.543 76.6833 117.021L68.8991 124.805C68.4214 125.283 67.6469 125.283 67.1692 124.805C66.6916 124.327 66.6916 123.553 67.1692 123.075L72.8654 117.379H20.4048C19.7293 117.379 19.1816 116.831 19.1816 116.156C19.1816 115.48 19.7293 114.933 20.4048 114.933H72.8654L67.1692 109.237C66.6916 108.759 66.6916 107.984 67.1692 107.507C67.6469 107.029 68.4214 107.029 68.8991 107.507Z" fill="#2B3864"/>
</svg>
